<svg width="150" height="100" viewBox="0 0 150 100" fill="none" xmlns="http://www.w3.org/2000/svg">
<g id="Fab lab 2" clip-path="url(#clip0_995_14592)">
<g id="Background_Complete">
<g id="Group">
<path id="Vector" d="M59.052 75.2739H52.02V77.5119H59.052V75.2739Z" fill="#565656"/>
<path id="Vector_2" d="M130.212 54.0356H123.18V56.2736H130.212V54.0356Z" fill="#565656"/>
<path id="Vector_3" d="M55.13 80.3337C53.958 80.3537 51.004 80.4036 49.872 80.4156L48.098 80.4237H48.008V80.3317L48 78.0937V77.9937H48.1L51.616 78.0077C52.492 78.0157 54.256 78.0337 55.132 78.0457H55.18V78.0917L55.13 80.3337ZM55.13 80.3337L55.082 78.0957L55.13 78.1437C54.252 78.1557 52.492 78.1757 51.614 78.1817L48.098 78.1957L48.198 78.0957L48.19 80.3337L48.098 80.2417L49.84 80.2497C50.954 80.2657 53.976 80.3157 55.13 80.3337Z" fill="#565656"/>
<path id="Vector_4" d="M85.7001 37.7638C84.5281 37.7838 81.5741 37.8338 80.4421 37.8458L78.6681 37.8538H78.5781V37.7618L78.5701 35.5238V35.4238H78.6701L82.1861 35.4378C83.0621 35.4458 84.8261 35.4638 85.7021 35.4758H85.7501L85.7481 35.5218L85.7001 37.7638ZM85.7001 37.7638L85.6521 35.5258L85.7001 35.5738C84.8221 35.5858 83.0621 35.6058 82.1841 35.6118L78.6681 35.6258L78.7681 35.5258L78.7601 37.7638L78.6681 37.6718L80.4101 37.6798C81.5261 37.6958 84.5481 37.7458 85.7001 37.7638Z" fill="#565656"/>
<path id="Vector_5" d="M81.7782 40.5856C80.6062 40.6056 77.6522 40.6556 76.5202 40.6676L74.7462 40.6756H74.6562V40.5836L74.6482 38.3456V38.2456H74.7482L78.2642 38.2596C79.1402 38.2676 80.9042 38.2856 81.7802 38.2976H81.8282L81.8262 38.3436L81.7782 40.5856ZM81.7782 40.5856L81.7302 38.3476L81.7782 38.3956C80.9002 38.4076 79.1402 38.4276 78.2622 38.4336L74.7462 38.4476L74.8462 38.3476L74.8382 40.5856L74.7462 40.4936L76.4882 40.5016C77.6022 40.5176 80.6242 40.5676 81.7782 40.5856Z" fill="#565656"/>
<path id="Vector_6" d="M77.8721 35.5259H70.8401V37.7639H77.8721V35.5259Z" fill="#565656"/>
<path id="Vector_7" d="M138.368 78.0957H131.336V80.3337H138.368V78.0957Z" fill="#565656"/>
<path id="Vector_8" d="M134.446 8.98584H127.414V11.2238H134.446V8.98584Z" fill="#565656"/>
<path id="Vector_9" d="M21.032 54H14V56.238H21.032V54Z" fill="#565656"/>
<path id="Vector_10" d="M138.368 14.0456C137.196 14.0656 134.242 14.1156 133.11 14.1276L131.336 14.1356H131.246V14.0436L131.238 11.8056V11.7056H131.338L134.854 11.7196C135.73 11.7276 137.494 11.7456 138.37 11.7576H138.418V11.8036L138.368 14.0456ZM138.368 14.0456L138.32 11.8076L138.368 11.8556C137.49 11.8676 135.73 11.8876 134.852 11.8936L131.336 11.9076L131.436 11.8076L131.428 14.0456L131.336 13.9536L133.078 13.9616C134.194 13.9756 137.216 14.0276 138.368 14.0456Z" fill="#565656"/>
<path id="Vector_11" d="M24.9542 59.0597C23.7822 59.0797 20.8282 59.1297 19.6962 59.1417L17.9222 59.1497H17.8322V59.0577L17.8242 56.8197V56.7197H17.9242L21.4402 56.7337C22.3162 56.7417 24.0802 56.7597 24.9562 56.7717H25.0042V56.8177L24.9542 59.0597ZM24.9542 59.0597L24.9062 56.8217L24.9542 56.8697C24.0762 56.8817 22.3162 56.9017 21.4382 56.9077L17.9222 56.9217L18.0222 56.8217L18.0142 59.0597L17.9222 58.9677L19.6642 58.9757C20.7802 58.9897 23.8022 59.0417 24.9542 59.0597Z" fill="#565656"/>
<path id="Vector_12" d="M66.5863 11.2238C65.4143 11.2438 62.4603 11.2938 61.3283 11.3058L59.5543 11.3138H59.4643V11.2218L59.4563 8.98379V8.88379H59.5563L63.0723 8.89779C63.9483 8.90579 65.7123 8.92379 66.5883 8.93579H66.6363V8.98179L66.5863 11.2238ZM66.5863 11.2238L66.5383 8.98579L66.5863 9.03379C65.7083 9.04579 63.9483 9.06579 63.0703 9.07179L59.5543 9.08579L59.6543 8.98579L59.6463 11.2238L59.5543 11.1318L61.2963 11.1398C62.4103 11.1538 65.4323 11.2058 66.5863 11.2238Z" fill="#565656"/>
</g>
<g id="Group_2">
<path id="Vector_13" d="M84.2821 53.3701H35V55.1541H84.2821V53.3701Z" fill="#565656"/>
<g id="Group_3">
<path id="Vector_14" d="M79.8873 55.1543H39.3945V60.0763H79.8873V55.1543Z" fill="#565656"/>
<path id="Vector_15" d="M79.8873 56.1283L39.3945 56.6043V55.1543H79.8873V56.1283Z" fill="#898989"/>
<path id="Vector_16" d="M73.7864 59.1484H45.4961V56.0864H73.7864V59.1484ZM45.8334 58.9484H73.4491V56.2864H45.8334V58.9484Z" fill="#DBDBDB"/>
<path id="Vector_17" d="M64.2513 57.2041H55.0337V58.0301H64.2513V57.2041Z" fill="#DBDBDB"/>
</g>
<g id="Group_4">
<path id="Vector_18" d="M39.0679 88.3881H37.7256L41.6278 60.0781H45.0477L39.0679 88.3881Z" fill="#565656"/>
<path id="Vector_19" d="M45.048 60.0781L44.6467 61.9721H41.3684L41.6281 60.0781H45.048Z" fill="#898989"/>
</g>
<g id="Group_5">
<path id="Vector_20" d="M80.2147 88.3881H81.557L77.6548 60.0781H74.2349L80.2147 88.3881Z" fill="#565656"/>
<path id="Vector_21" d="M74.2349 60.0781L74.6362 61.9721H77.9145L77.6548 60.0781H74.2349Z" fill="#898989"/>
</g>
</g>
<g id="xsrjP0_1_">
<g id="Group_6">
<path id="Vector_22" fill-rule="evenodd" clip-rule="evenodd" d="M128.528 41.5899C128.288 41.3599 128.1 41.0559 127.722 41.0159C127.578 40.9999 127.632 40.8899 127.648 40.8119C127.936 39.4199 128.226 38.0299 128.514 36.6379C128.536 36.5359 128.558 36.4539 128.68 36.4219C129.854 36.1079 130.534 35.1499 131.372 34.3839C132.268 33.5679 132.724 32.5759 132.8 31.3879C132.82 31.0659 132.996 30.9559 133.292 30.9499C133.648 30.9439 133.966 31.1079 134.034 31.3659C134.2 32.0039 134.32 32.6559 134.262 33.3159C134.214 33.8559 133.918 34.3299 133.742 34.8379C133.614 35.2099 133.446 35.5679 133.294 35.9399C133.372 36.0279 133.488 36.0139 133.588 36.0359C134.762 36.2819 135.938 36.5259 137.114 36.7719C137.61 36.8759 137.822 37.0679 137.822 37.4099C137.822 37.8379 137.518 38.2079 137.098 38.3219C137.002 38.3479 136.85 38.2739 136.81 38.4099C136.77 38.5479 136.936 38.5679 137.006 38.6419C137.37 39.0219 137.166 39.6079 136.602 39.8539C136.466 39.9119 136.244 39.8259 136.202 39.9979C136.17 40.1359 136.386 40.1799 136.462 40.2959C136.734 40.7059 136.432 41.3039 135.866 41.4539C135.794 41.4719 135.71 41.4619 135.642 41.4899C135.576 41.5179 135.51 41.5499 135.606 41.6519C136.04 42.1219 135.922 42.6259 135.334 42.8879C135.276 42.9139 135.218 42.9399 135.158 42.9659C134.944 43.0639 134.724 43.0159 134.512 42.9719C132.668 42.5919 130.826 42.2059 128.984 41.8219C128.812 41.7899 128.638 41.7479 128.528 41.5899Z" fill="#053C5E"/>
<path id="Vector_23" fill-rule="evenodd" clip-rule="evenodd" d="M123.798 38.0459C123.982 37.1619 124.17 36.2779 124.348 35.3939C124.384 35.2139 124.42 35.1299 124.64 35.1779C125.716 35.4159 126.792 35.6399 127.874 35.8519C128.086 35.8939 128.104 35.9739 128.064 36.1619C127.688 37.9399 127.316 39.7179 126.954 41.4979C126.908 41.7239 126.834 41.7759 126.606 41.7239C125.562 41.4939 124.518 41.2739 123.47 41.0719C123.208 41.0219 123.192 40.9239 123.242 40.6959C123.438 39.8159 123.614 38.9299 123.798 38.0459Z" fill="#053C5E"/>
</g>
</g>
<g id="xsrjP0_1__2">
<g id="Group_7">
<path id="Vector_24" fill-rule="evenodd" clip-rule="evenodd" d="M4.30852 71.6402C4.06852 71.4102 3.88052 71.1062 3.50252 71.0662C3.35852 71.0502 3.41252 70.9402 3.42852 70.8622C3.71652 69.4702 4.00652 68.0802 4.29452 66.6882C4.31652 66.5862 4.33852 66.5042 4.46052 66.4722C5.63452 66.1582 6.31451 65.2002 7.15251 64.4342C8.04851 63.6182 8.50452 62.6262 8.58052 61.4382C8.60052 61.1162 8.77652 61.0062 9.07252 61.0002C9.42852 60.9942 9.74652 61.1582 9.81452 61.4162C9.98052 62.0542 10.1005 62.7062 10.0425 63.3662C9.99452 63.9062 9.69852 64.3802 9.52252 64.8882C9.39452 65.2602 9.22652 65.6182 9.07452 65.9902C9.15252 66.0782 9.26852 66.0642 9.36852 66.0862C10.5425 66.3322 11.7185 66.5762 12.8945 66.8222C13.3905 66.9262 13.6025 67.1182 13.6025 67.4602C13.6025 67.8882 13.2985 68.2582 12.8785 68.3722C12.7825 68.3982 12.6305 68.3242 12.5905 68.4602C12.5505 68.5982 12.7165 68.6182 12.7865 68.6922C13.1505 69.0722 12.9465 69.6582 12.3825 69.9042C12.2465 69.9622 12.0245 69.8762 11.9825 70.0482C11.9505 70.1862 12.1665 70.2302 12.2425 70.3462C12.5145 70.7562 12.2125 71.3542 11.6465 71.5042C11.5745 71.5222 11.4905 71.5122 11.4225 71.5402C11.3565 71.5682 11.2905 71.6002 11.3865 71.7022C11.8205 72.1722 11.7025 72.6762 11.1145 72.9382C11.0565 72.9642 10.9985 72.9902 10.9385 73.0162C10.7245 73.1142 10.5045 73.0662 10.2925 73.0222C8.44852 72.6422 6.60652 72.2562 4.76452 71.8722C4.59252 71.8402 4.41852 71.7982 4.30852 71.6402Z" fill="#053C5E"/>
<path id="Vector_25" fill-rule="evenodd" clip-rule="evenodd" d="M-0.421468 68.0962C-0.237468 67.2122 -0.049468 66.3282 0.128532 65.4442C0.164532 65.2642 0.200536 65.1802 0.420536 65.2282C1.49654 65.4662 2.57253 65.6902 3.65453 65.9022C3.86653 65.9442 3.88454 66.0242 3.84454 66.2122C3.46854 67.9902 3.09653 69.7682 2.73453 71.5482C2.68853 71.7742 2.61453 71.8262 2.38653 71.7742C1.34253 71.5442 0.298535 71.3242 -0.749465 71.1222C-1.01146 71.0722 -1.02747 70.9742 -0.977468 70.7462C-0.781468 69.8662 -0.605468 68.9802 -0.421468 68.0962Z" fill="#053C5E"/>
</g>
</g>
<g id="xsrjP0_1__3">
<g id="Group_8">
<path id="Vector_26" fill-rule="evenodd" clip-rule="evenodd" d="M143.707 54.7951C143.542 54.6907 143.398 54.5377 143.176 54.5588C143.091 54.5664 143.109 54.4968 143.109 54.45C143.112 53.6151 143.117 52.7811 143.12 51.9462C143.121 51.8849 143.124 51.8352 143.19 51.8025C143.83 51.4846 144.109 50.8537 144.502 50.3149C144.922 49.7406 145.069 49.1163 144.974 48.4236C144.948 48.2359 145.036 48.152 145.206 48.114C145.41 48.0689 145.612 48.1262 145.682 48.2668C145.852 48.6146 145.997 48.9759 146.041 49.3626C146.076 49.679 145.961 49.9864 145.919 50.2994C145.889 50.5285 145.834 50.7542 145.79 50.9861C145.845 51.0276 145.91 51.006 145.971 51.007C146.675 51.0115 147.38 51.0145 148.086 51.0188C148.384 51.0207 148.528 51.1065 148.568 51.3033C148.618 51.5497 148.486 51.7982 148.258 51.9129C148.206 51.939 148.11 51.9142 148.102 51.9972C148.096 52.0813 148.193 52.0734 148.242 52.1078C148.496 52.284 148.447 52.6452 148.151 52.8526C148.08 52.9019 147.942 52.8783 147.938 52.9823C147.936 53.0654 148.065 53.0655 148.122 53.1234C148.327 53.3277 148.223 53.7072 147.915 53.8596C147.875 53.8784 147.826 53.8824 147.79 53.9065C147.755 53.9303 147.721 53.9565 147.788 54.004C148.093 54.2238 148.084 54.5277 147.776 54.7472C147.746 54.7689 147.715 54.7907 147.684 54.8126C147.572 54.8941 147.44 54.8921 147.313 54.8916C146.207 54.8882 145.101 54.8812 143.996 54.8753C143.894 54.877 143.788 54.8732 143.707 54.7951Z" fill="#053C5E"/>
<path id="Vector_27" fill-rule="evenodd" clip-rule="evenodd" d="M140.57 53.3078C140.573 52.7774 140.578 52.2466 140.577 51.717C140.576 51.6092 140.587 51.5566 140.72 51.5585C141.367 51.5698 142.012 51.5731 142.66 51.5687C142.787 51.5681 142.807 51.6121 142.806 51.725C142.797 52.7923 142.79 53.8593 142.79 54.9261C142.79 55.0616 142.753 55.1002 142.616 55.0969C141.988 55.0864 141.361 55.0818 140.735 55.0879C140.578 55.0897 140.557 55.0352 140.559 54.8981C140.57 54.3687 140.567 53.8381 140.57 53.3078Z" fill="#053C5E"/>
</g>
</g>
<g id="xsrjP0_1__4">
<g id="Group_9">
<path id="Vector_28" fill-rule="evenodd" clip-rule="evenodd" d="M19.4869 84.8454C19.3219 84.741 19.1782 84.588 18.9559 84.6091C18.8712 84.6167 18.8894 84.5471 18.8895 84.5003C18.8927 83.6654 18.8973 82.8314 18.9004 81.9965C18.9012 81.9352 18.9043 81.8855 18.9708 81.8528C19.6099 81.5349 19.8894 80.904 20.2823 80.3652C20.7027 79.7909 20.8493 79.1666 20.7543 78.4739C20.7282 78.2862 20.8166 78.2023 20.9863 78.1643C21.1905 78.1192 21.3927 78.1765 21.462 78.317C21.6321 78.6649 21.7773 79.0262 21.821 79.4129C21.8565 79.7293 21.7415 80.0367 21.6995 80.3497C21.6693 80.5788 21.6144 80.8045 21.5704 81.0364C21.6255 81.0779 21.6907 81.0563 21.7508 81.0573C22.4553 81.0618 23.1608 81.0648 23.8664 81.0691C24.1641 81.071 24.3085 81.1567 24.3485 81.3536C24.3985 81.6 24.2667 81.8485 24.0383 81.9631C23.986 81.9893 23.8899 81.9645 23.8828 82.0474C23.8759 82.1316 23.9738 82.1237 24.0227 82.1581C24.2766 82.3343 24.2276 82.6955 23.9317 82.9029C23.8602 82.9522 23.7224 82.9286 23.7183 83.0326C23.716 83.1157 23.8455 83.1158 23.9028 83.1737C24.1072 83.3779 24.0032 83.7574 23.695 83.9099C23.6556 83.9287 23.6061 83.9327 23.5702 83.9568C23.5355 83.9806 23.5012 84.0067 23.5684 84.0542C23.8731 84.2741 23.8641 84.578 23.5562 84.7975C23.5259 84.8192 23.4955 84.841 23.464 84.8629C23.3523 84.9444 23.2201 84.9424 23.0929 84.9419C21.9871 84.9385 20.8817 84.9315 19.7765 84.9256C19.6738 84.9273 19.5687 84.9234 19.4869 84.8454Z" fill="#053C5E"/>
<path id="Vector_29" fill-rule="evenodd" clip-rule="evenodd" d="M16.3503 83.3581C16.3529 82.8277 16.3579 82.2969 16.3571 81.7673C16.3568 81.6594 16.3677 81.6069 16.4999 81.6088C17.1471 81.6201 17.7926 81.6234 18.4402 81.619C18.5671 81.6184 18.5868 81.6624 18.5858 81.7753C18.577 82.8426 18.5706 83.9095 18.5701 84.9764C18.5701 85.1119 18.5335 85.1505 18.3962 85.1472C17.7684 85.1367 17.1418 85.1321 16.5149 85.1382C16.3583 85.14 16.3376 85.0855 16.3398 84.9484C16.3498 84.419 16.3476 83.8884 16.3503 83.3581Z" fill="#053C5E"/>
</g>
</g>
<g id="Group_10">
<g id="Group_11">
<g id="Group_12">
<path id="Vector_30" d="M12.6121 10H12.4121V32.742H12.6121V10Z" fill="#898989"/>
<g id="Group_13">
<path id="Vector_31" d="M20.024 39.9817L19.42 41.3097H5.604L5 39.9817L10.884 35.9097H14.142L20.024 39.9817Z" fill="#565656"/>
<path id="Vector_32" d="M14.5501 31.9878L14.1421 35.9098H10.8841L10.4741 31.9878H14.5501Z" fill="#DBDBDB"/>
<path id="Vector_33" d="M20.024 39.9839L19.42 41.3119H5.602L5 39.9839H20.024Z" fill="#DBDBDB"/>
</g>
</g>
</g>
<g id="Group_14">
<g id="Group_15">
<path id="Vector_34" d="M26.5621 10H26.3621V22.858H26.5621V10Z" fill="#898989"/>
<g id="Group_16">
<path id="Vector_35" d="M33.974 30.0979L33.37 31.4259H19.554L18.95 30.0979L24.834 26.0259H28.092L33.974 30.0979Z" fill="#565656"/>
<path id="Vector_36" d="M28.5001 22.104L28.0921 26.026H24.8341L24.4241 22.104H28.5001Z" fill="#DBDBDB"/>
<path id="Vector_37" d="M33.974 30.0981L33.37 31.4261H19.552L18.95 30.0981H33.974Z" fill="#DBDBDB"/>
</g>
</g>
</g>
</g>
<g id="Group_17">
<g id="Group_18">
<path id="Vector_38" d="M83.6131 18.5518H72.9971V29.1678H83.6131V18.5518Z" fill="white"/>
<path id="Vector_39" d="M84.1668 18H72.4448V29.72H84.1668V18ZM72.9968 29.168V18.552H83.6128V29.168H72.9968Z" fill="#DBDBDB"/>
<path id="Vector_40" d="M75.0546 28.4038H78.7246V20.1298H75.0546V28.4038Z" fill="#565656"/>
<path id="Vector_41" d="M76.185 25.98H80.425V21.74H76.185V25.98Z" fill="#898989"/>
<path id="Vector_42" d="M84.167 30.1722V29.7202L72.445 29.7202V30.1722L84.167 30.1722Z" fill="#898989"/>
</g>
<g id="Group_19">
<path id="Vector_43" d="M67.8911 18.5518H57.2751V29.1678H67.8911V18.5518Z" fill="white"/>
<path id="Vector_44" d="M66.1931 20.3779H58.1851V23.1499H66.1931V20.3779Z" fill="#898989"/>
<path id="Vector_45" d="M68.4451 18H56.7251V29.72H68.4451V18ZM57.2751 29.17V18.552H67.8911V29.168H57.2751V29.17Z" fill="#DBDBDB"/>
<path id="Vector_46" d="M64.7051 21.7422H60.4651V25.9822H64.7051V21.7422Z" fill="#565656"/>
<path id="Vector_47" d="M68.4441 30.1732V29.7212L56.7221 29.7212V30.1732L68.4441 30.1732Z" fill="#898989"/>
</g>
<g id="Group_20">
<path id="Vector_48" d="M52.1675 18.5518H41.5515V29.1678H52.1675V18.5518Z" fill="white"/>
<path id="Vector_49" d="M50.7215 19.73H47.2395V25.556H50.7215V19.73Z" fill="#565656"/>
<path id="Vector_50" d="M52.7215 18H41.0015V29.72H52.7215V18ZM41.5515 29.168V18.552H52.1675V29.168H41.5515Z" fill="#DBDBDB"/>
<path id="Vector_51" d="M48.9815 21.7402H44.7415V25.9802H48.9815V21.7402Z" fill="#898989"/>
<path id="Vector_52" d="M52.7219 30.1727V29.7207L40.9999 29.7207V30.1727L52.7219 30.1727Z" fill="#898989"/>
</g>
</g>
<g id="Group_21">
<path id="Vector_53" d="M122.56 75.0896C120.816 75.1516 118.834 74.6096 117.804 73.0976C116.948 71.8416 117.014 70.1916 117.646 68.8556C117.978 68.1536 118.46 67.5416 119.06 67.0476C119.794 66.4436 120.652 66.0156 121.494 65.5856C123.082 64.7736 124.91 63.7636 125.446 61.9216C125.916 60.3016 125.002 58.6336 123.668 57.7296C122.736 57.0976 121.588 56.8036 120.462 56.8636C120.436 56.7736 120.408 56.6836 120.376 56.5956C119.858 55.2276 118.566 54.2636 117.204 53.8356C115.644 53.3436 113.916 53.4276 112.402 54.0396C112.028 54.1916 111.668 54.3756 111.326 54.5896C111.214 54.6596 111.314 54.8396 111.426 54.7676C112.778 53.9176 114.42 53.5716 116.002 53.7776C117.454 53.9656 118.882 54.6356 119.746 55.8536C119.966 56.1656 120.142 56.5096 120.25 56.8736C119.854 56.9116 119.464 56.9916 119.088 57.1196C118.412 57.3496 117.382 57.8056 117.456 58.6696C117.51 59.2956 118.106 59.8136 118.722 59.8456C119.474 59.8836 120.104 59.2716 120.378 58.6216C120.586 58.1296 120.616 57.5816 120.51 57.0616C121.576 57.0116 122.66 57.2956 123.548 57.8916C124.876 58.7836 125.748 60.4596 125.19 62.0436C124.89 62.8936 124.25 63.5836 123.548 64.1276C122.828 64.6876 122.004 65.0896 121.196 65.5036C120.39 65.9156 119.582 66.3436 118.884 66.9236C118.318 67.3936 117.854 67.9776 117.524 68.6356C116.904 69.8736 116.736 71.3816 117.326 72.6636C118.038 74.2076 119.694 75.0156 121.31 75.2316C121.724 75.2856 122.142 75.3056 122.56 75.2896C122.69 75.2896 122.692 75.0836 122.56 75.0896ZM120.364 57.7236C120.34 58.4376 119.982 59.1856 119.318 59.5116C119.012 59.6616 118.658 59.6916 118.344 59.5496C118.072 59.4256 117.836 59.1996 117.722 58.9216C117.376 58.0736 118.444 57.5656 119.086 57.3396C119.478 57.2016 119.888 57.1156 120.302 57.0796C120.348 57.2896 120.372 57.5056 120.364 57.7236Z" fill="#565656"/>
<path id="Vector_54" d="M138.878 57.1519C137.526 57.2759 136.19 57.5939 134.928 58.0939C133.706 58.5779 132.522 59.2259 131.504 60.0599C130.532 60.8559 129.72 61.8619 129.334 63.0719C129.33 63.0859 129.326 63.0999 129.322 63.1139C128.758 63.2919 128.214 63.5659 127.722 63.8399C126.764 64.3699 125.89 65.0499 125.126 65.8339C123.608 67.3939 122.524 69.3899 122.096 71.5279C122.044 71.7859 122.002 72.0479 121.97 72.3099C121.954 72.4419 122.158 72.4799 122.174 72.3479C122.426 70.3019 123.288 68.3579 124.582 66.7579C125.23 65.9579 125.982 65.2459 126.822 64.6519C127.56 64.1279 128.386 63.6579 129.252 63.3659C129.126 63.8659 129.074 64.3839 129.124 64.8979C129.182 65.4919 129.374 66.1239 129.854 66.5139C130.06 66.6819 130.316 66.8039 130.582 66.8299C130.894 66.8599 131.194 66.7599 131.458 66.5979C131.936 66.3039 132.298 65.8219 132.442 65.2799C132.586 64.7419 132.484 64.1479 132.166 63.6899C131.856 63.2459 131.356 62.9899 130.824 62.9319C130.402 62.8859 129.978 62.9379 129.564 63.0459C129.882 62.1159 130.468 61.2939 131.184 60.6179C132.088 59.7639 133.184 59.1039 134.31 58.5859C135.47 58.0519 136.704 57.6759 137.964 57.4759C138.274 57.4259 138.586 57.3879 138.898 57.3599C139.03 57.3459 139.012 57.1399 138.878 57.1519ZM129.576 63.2639C130.07 63.1259 130.608 63.0579 131.112 63.1939C131.636 63.3339 132.04 63.7239 132.212 64.2359C132.39 64.7659 132.288 65.3499 131.978 65.8099C131.67 66.2679 131.11 66.7179 130.526 66.6119C129.932 66.5019 129.574 65.9579 129.426 65.4139C129.268 64.8359 129.284 64.2079 129.404 63.6239C129.428 63.5119 129.458 63.4019 129.488 63.2919C129.516 63.2819 129.546 63.2719 129.576 63.2639Z" fill="#565656"/>
<g id="Group_22">
<path id="Vector_55" d="M106.5 85.8577C106.008 83.3777 105.762 80.7597 106.436 78.2877C106.97 76.3257 108.164 74.4857 109.906 73.3917C110.774 72.8457 111.744 72.5357 112.768 72.4617C113.848 72.3837 114.93 72.4997 116.01 72.4097C117.028 72.3237 118.002 72.0177 118.772 71.3277C119.492 70.6837 119.98 69.7897 120.178 68.8497C120.6 66.8577 119.612 64.8237 118.03 63.6197C116.49 62.4477 114.22 61.9957 112.482 63.0157C112.292 63.1277 112.114 63.2597 111.95 63.4077C111.17 62.9537 110.286 62.6837 109.384 62.6217C107.35 62.4817 105.38 63.5517 104.274 65.2437C104.01 65.6477 103.802 66.0877 103.65 66.5457C103.6 66.6977 103.842 66.7537 103.892 66.6037C104.5 64.7657 106.14 63.3257 108.038 62.9517C109.3 62.7037 110.642 62.9577 111.764 63.5897C110.808 64.5937 110.434 66.1817 111.07 67.4477C111.492 68.2877 112.474 68.9977 113.408 68.5057C113.808 68.2957 114.108 67.9117 114.26 67.4917C114.432 67.0157 114.386 66.4797 114.228 66.0057C113.898 65.0217 113.134 64.1937 112.286 63.6197C112.246 63.5937 112.206 63.5697 112.166 63.5437C112.254 63.4697 112.344 63.3977 112.44 63.3337C114.066 62.2557 116.3 62.6477 117.802 63.7577C119.346 64.8997 120.344 66.8597 119.934 68.7917C119.74 69.7077 119.264 70.5677 118.556 71.1857C117.788 71.8577 116.804 72.1137 115.804 72.1757C114.78 72.2397 113.754 72.1377 112.732 72.2157C111.782 72.2877 110.872 72.5517 110.042 73.0197C108.398 73.9477 107.174 75.5417 106.5 77.2877C105.652 79.4837 105.652 81.9177 105.97 84.2197C106.05 84.7937 106.148 85.3637 106.262 85.9297C106.292 86.0877 106.53 86.0137 106.5 85.8577ZM113.378 64.9697C113.966 65.7337 114.43 66.8397 113.862 67.7417C113.628 68.1137 113.228 68.4137 112.776 68.4237C112.244 68.4357 111.77 68.0517 111.476 67.6377C110.632 66.4497 110.984 64.7157 111.98 63.7117C112.514 64.0477 112.994 64.4717 113.378 64.9697Z" fill="#565656"/>
</g>
</g>
</g>
<g id="Floor">
<path id="Vector_56" d="M58.0581 91.3842C84.9281 91.2622 115.072 91.2602 141.942 91.3842C115.072 91.5082 84.9281 91.5062 58.0581 91.3842Z" fill="#263238"/>
</g>
<g id="Character">
<g id="Group_23">
<g id="Group_24">
<g id="Group_25">
<g id="Group_26">
<g id="Group_27">
<path id="Vector_57" d="M121.05 90.832C121.738 90.602 121.128 88.618 120.362 88.004C120.118 87.81 119.216 87.35 118.086 86.804C115.596 85.606 112.014 84.006 112.014 84.006L115.066 71.082L102.632 71.15C102.632 71.15 99.2359 83.29 99.2579 84.044C99.2599 84.09 99.2599 84.138 99.2619 84.184C99.3679 87.61 99.5379 90.414 99.8199 90.59C100.572 91.068 120.358 91.064 121.05 90.832Z" fill="#EB9481"/>
<path id="Vector_58" d="M121.05 90.832C120.358 91.064 100.57 91.07 99.8179 90.59C99.5359 90.414 99.3659 87.61 99.2599 84.184C99.2599 84.138 99.2579 84.09 99.2579 84.044C99.2539 83.882 99.4039 83.2 99.6459 82.23H112.432L112.012 84.01C112.012 84.01 115.594 85.61 118.084 86.808C119.214 87.354 120.118 87.814 120.36 88.008C121.128 88.618 121.736 90.602 121.05 90.832Z" fill="#565656"/>
<g id="Group_28">
<path id="Vector_59" d="M121.272 90.9419C120.568 91.1779 100.42 91.1559 99.6558 90.6659C99.3618 90.4859 99.1938 87.5499 99.0938 83.9959C99.0938 83.9579 99.0918 83.9219 99.0918 83.8839L112.09 83.7539L112.084 83.9739C112.084 83.9739 119.792 87.4319 120.578 88.0579C121.356 88.6839 121.976 90.7099 121.272 90.9419Z" fill="#FF7900"/>
<g id="Group_29">
<g id="Group_30">
<path id="Vector_60" d="M121.046 90.1622C117.65 90.0742 103.944 90.0442 100.58 90.2142C100.552 90.2162 100.552 90.2342 100.58 90.2362C103.944 90.3962 117.65 90.3162 121.046 90.2182C121.116 90.2142 121.116 90.1642 121.046 90.1622Z" fill="#263238"/>
<path id="Vector_61" d="M113.536 83.7964C112.2 83.5464 110.566 83.7484 109.542 84.7004C109.502 84.7364 109.556 84.7924 109.598 84.7784C110.916 84.3644 112.148 84.0984 113.528 83.9644C113.626 83.9544 113.63 83.8144 113.536 83.7964Z" fill="#263238"/>
<path id="Vector_62" d="M114.5 84.3783C113.164 84.1263 111.53 84.3303 110.506 85.2823C110.466 85.3183 110.52 85.3743 110.562 85.3603C111.882 84.9463 113.112 84.6803 114.492 84.5463C114.59 84.5363 114.594 84.3963 114.5 84.3783Z" fill="#263238"/>
<path id="Vector_63" d="M115.464 84.96C114.128 84.71 112.492 84.912 111.47 85.864C111.43 85.9 111.484 85.956 111.526 85.942C112.844 85.528 114.076 85.262 115.456 85.128C115.554 85.12 115.558 84.978 115.464 84.96Z" fill="#263238"/>
<g id="Group_31">
<path id="Vector_64" d="M115.276 80.8821C114.752 80.1581 113.774 80.4821 113.214 80.9501C112.31 81.7081 111.518 82.8941 111.152 84.0101C111.144 84.0381 111.162 84.0541 111.184 84.0581C111.188 84.1601 111.278 84.2681 111.394 84.2261C112.498 83.8181 113.728 83.5201 114.674 82.7861C115.228 82.3561 115.772 81.5661 115.276 80.8821ZM112.942 83.2661C112.404 83.4801 111.858 83.6661 111.328 83.8981C111.732 83.3021 112.108 82.6921 112.572 82.1381C112.794 81.8741 113.026 81.6061 113.282 81.3741C113.68 81.0121 115.254 80.2441 115.018 81.7101C114.886 82.5181 113.584 83.0101 112.942 83.2661Z" fill="#263238"/>
<path id="Vector_65" d="M107.758 83.6559C108.86 84.1259 110.126 84.1039 111.296 84.2199C111.418 84.2319 111.478 84.1039 111.456 84.0059C111.476 83.9959 111.49 83.9759 111.474 83.9519C110.838 82.9639 109.772 82.0179 108.706 81.5139C108.048 81.2019 107.018 81.1359 106.694 81.9699C106.388 82.7559 107.114 83.3819 107.758 83.6559ZM107.154 82.7039C106.554 81.3459 108.272 81.6899 108.748 81.9399C109.054 82.0999 109.346 82.2999 109.628 82.4999C110.216 82.9199 110.734 83.4139 111.276 83.8879C110.704 83.7959 110.13 83.7539 109.554 83.6839C108.87 83.5979 107.486 83.4519 107.154 82.7039Z" fill="#263238"/>
</g>
</g>
</g>
</g>
</g>
<g id="Group_32">
<path id="Vector_66" d="M84.8859 63.0439C84.8859 63.0439 82.6559 71.1119 86.5479 73.4999C89.1459 75.0939 100.624 72.8899 101.114 71.4699C102.036 68.7899 102.038 67.8079 102.038 67.8079L99.0899 82.0199L113.552 82.1899C113.552 82.1899 116.266 70.4319 115.568 57.9539C115.31 53.3399 109.108 51.9439 104.794 54.2399C100.61 56.4659 93.1199 62.6419 93.1199 62.6419L84.8859 63.0439Z" fill="#37474F"/>
<g id="Group_33">
<path id="Vector_67" d="M100.31 73.6918C101.09 71.7838 101.028 71.0358 102.974 65.1158C103.234 64.3238 103.452 63.5198 103.684 62.7198C103.926 61.8898 104.21 61.0638 104.394 60.2198C104.402 60.1778 104.47 60.1958 104.458 60.2358C104.234 60.9678 104.088 61.7238 103.894 62.4638C103.704 63.1878 103.512 63.9118 103.31 64.6338C103.222 64.9458 103.13 65.2558 103.042 65.5678C103.082 65.5038 103.12 65.4398 103.158 65.3758C103.328 65.0838 103.498 64.7938 103.676 64.5058C104.04 63.9138 104.482 63.3558 104.802 62.7378C104.822 62.6998 104.882 62.7338 104.858 62.7698C104.49 63.3618 104.23 64.0178 103.884 64.6238C103.716 64.9178 103.542 65.2058 103.362 65.4918C103.204 65.7438 103.044 66.0318 102.842 66.2598C102.576 67.1738 102.006 69.3758 101.722 70.2838C100.828 73.1458 101.12 72.2138 100.454 73.7518C100.42 73.8298 100.276 73.7738 100.31 73.6918Z" fill="#263238"/>
<path id="Vector_68" d="M106.898 79.6717C104.72 79.6497 102.548 79.5257 100.372 79.4837C100.33 79.4837 100.324 79.4197 100.366 79.4177C102.536 79.4057 104.702 79.3197 106.872 79.3457C109.05 79.3717 111.222 79.4797 113.398 79.5517C113.454 79.5537 113.462 79.6397 113.404 79.6397C111.234 79.6457 109.068 79.6937 106.898 79.6717Z" fill="#263238"/>
<path id="Vector_69" d="M101.562 78.944C101.76 77.984 102.04 77.038 102.292 76.09C102.546 75.142 102.8 74.192 103.062 73.246C103.586 71.352 104.132 69.464 104.678 67.576C104.988 66.504 105.322 65.438 105.65 64.372C105.66 64.342 105.706 64.352 105.698 64.384C104.728 68.192 103.682 71.98 102.572 75.748C102.256 76.818 101.97 77.902 101.594 78.95C101.588 78.972 101.558 78.966 101.562 78.944Z" fill="#263238"/>
</g>
<path id="Vector_70" d="M86.5478 73.4981C82.6578 71.1101 84.8858 63.0421 84.8858 63.0421L91.8258 62.7041L101.272 71.0061C101.222 71.1541 101.17 71.3101 101.114 71.4721C100.626 72.8901 89.1458 75.0941 86.5478 73.4981Z" fill="#263238"/>
<path id="Vector_71" d="M113.624 81.862C113.578 82.076 113.552 82.188 113.552 82.188L99.0898 82.018L101.358 71.082L113.624 81.862Z" fill="#263238"/>
</g>
</g>
</g>
<g id="Group_34">
<g id="Group_35">
<path id="Vector_72" d="M55.2679 92.9002C55.1379 93.6142 57.1719 94.0342 58.0779 93.6582C58.3659 93.5382 59.2019 92.9682 60.2259 92.2402C62.4759 90.6342 65.6019 88.2662 65.6019 88.2662L76.2279 88.9082L82.1579 77.9802C82.1579 77.9802 72.3859 77.4162 71.7139 77.0702C71.6719 77.0482 71.6319 77.0262 71.5899 77.0062C68.5359 75.4502 65.9959 74.2482 65.7059 74.4102C64.9239 74.8402 55.3979 92.1822 55.2679 92.9002Z" fill="#EB9481"/>
<path id="Vector_73" d="M73.5777 77.3519L67.9877 88.4119L65.6017 88.2659C65.6017 88.2659 62.4737 90.6319 60.2237 92.2379C59.2017 92.9659 58.3657 93.5359 58.0777 93.6559C57.1717 94.0319 55.1397 93.6099 55.2677 92.8959C55.3977 92.1779 64.9237 74.8379 65.7057 74.4059C65.9937 74.2459 68.5357 75.4459 71.5877 77.0039C71.6317 77.0239 71.6697 77.0459 71.7117 77.0659C71.8777 77.1559 72.5917 77.2539 73.5777 77.3519Z" fill="#565656"/>
<g id="Group_36">
<path id="Vector_74" d="M55.0638 93.042C55.1958 92.312 64.9198 74.666 65.7158 74.23C66.0158 74.058 68.6698 75.326 71.8318 76.95C71.8638 76.968 71.8978 76.984 71.9298 77.002L65.7838 88.456L65.5938 88.346C65.5938 88.346 58.8518 93.436 57.9238 93.822C57.0018 94.204 54.9298 93.772 55.0638 93.042Z" fill="#FF7900"/>
<g id="Group_37">
<g id="Group_38">
<path id="Vector_75" d="M55.8578 93.2181C57.5698 90.2841 64.1998 78.2881 65.6678 75.2581C65.6798 75.2341 65.6638 75.2241 65.6498 75.2481C63.8898 78.1201 57.3578 90.1681 55.8098 93.1921C55.7758 93.2561 55.8218 93.2801 55.8578 93.2181Z" fill="#263238"/>
<path id="Vector_76" d="M65.0537 89.7042C65.9177 88.6542 66.5257 87.1242 66.1857 85.7702C66.1717 85.7182 66.0977 85.7382 66.0897 85.7822C65.8177 87.1382 65.4577 88.3442 64.9097 89.6182C64.8697 89.7082 64.9917 89.7782 65.0537 89.7042Z" fill="#263238"/>
<path id="Vector_77" d="M64.0799 90.2682C64.9439 89.2182 65.5519 87.6882 65.2119 86.3342C65.1979 86.2822 65.1239 86.3022 65.1159 86.3462C64.8439 87.7022 64.4819 88.9082 63.9359 90.1822C63.8959 90.2722 64.0179 90.3442 64.0799 90.2682Z" fill="#263238"/>
<path id="Vector_78" d="M63.1038 90.8322C63.9678 89.7822 64.5758 88.2522 64.2358 86.8982C64.2218 86.8462 64.1478 86.8662 64.1398 86.9102C63.8678 88.2662 63.5078 89.4722 62.9598 90.7462C62.9218 90.8362 63.0438 90.9082 63.1038 90.8322Z" fill="#263238"/>
<g id="Group_39">
<path id="Vector_79" d="M66.7677 92.6325C67.6537 92.5225 67.8417 91.5085 67.6997 90.7925C67.4717 89.6345 66.8137 88.3705 66.0117 87.5125C65.9917 87.4905 65.9677 87.5005 65.9537 87.5165C65.8637 87.4705 65.7237 87.4985 65.7057 87.6205C65.5317 88.7845 65.1997 90.0065 65.3877 91.1885C65.4997 91.8805 65.9297 92.7385 66.7677 92.6325ZM65.8037 89.4385C65.8757 88.8645 65.9757 88.2965 66.0257 87.7205C66.3537 88.3605 66.7057 88.9845 66.9697 89.6585C67.0957 89.9805 67.2177 90.3125 67.2977 90.6485C67.4237 91.1705 67.3377 92.9225 66.1677 92.0085C65.5217 91.5025 65.7177 90.1245 65.8037 89.4385Z" fill="#263238"/>
<path id="Vector_80" d="M67.9576 84.7063C67.0156 85.4443 66.4236 86.5643 65.7596 87.5363C65.6916 87.6363 65.7736 87.7523 65.8696 87.7803C65.8676 87.8023 65.8796 87.8243 65.9096 87.8223C67.0816 87.7403 68.4236 87.2623 69.3796 86.5703C69.9696 86.1423 70.5236 85.2743 69.9496 84.5883C69.4076 83.9403 68.5076 84.2763 67.9576 84.7063ZM69.0836 84.6383C70.5636 84.7663 69.4336 86.1063 68.9856 86.4043C68.6976 86.5963 68.3816 86.7563 68.0716 86.9043C67.4216 87.2183 66.7376 87.4343 66.0616 87.6803C66.4176 87.2223 66.7316 86.7403 67.0696 86.2703C67.4736 85.7103 68.2676 84.5683 69.0836 84.6383Z" fill="#263238"/>
</g>
</g>
</g>
</g>
</g>
<g id="Group_40">
<path id="Vector_81" d="M94.0359 61.0699C94.0359 61.0699 94.4039 64.4259 94.3699 66.9919C94.3699 66.9919 108.106 74.1919 108.734 81.0339C108.956 83.4579 108.632 87.9979 103.88 90.0679C98.5699 92.3799 69.2219 90.7879 69.2219 90.7879L72.8879 77.2759L85.8319 77.2819C85.8319 77.2819 76.6979 78.7339 75.7059 72.6479C74.7839 66.9899 78.2579 61.0679 78.2579 61.0679H94.0359V61.0699Z" fill="#37474F"/>
<path id="Vector_82" d="M72.2539 90.1278C72.5779 88.5718 72.8899 87.0058 73.2519 85.4578C73.6139 83.9058 73.9979 82.3598 74.4079 80.8198C74.5239 80.3858 74.6419 79.9518 74.7599 79.5178C74.8159 79.3118 74.8719 79.1038 74.9319 78.8998C74.9919 78.6918 75.0399 78.4778 75.1219 78.2778C75.1319 78.2558 75.1559 78.2678 75.1539 78.2898C75.1179 78.6858 75.0059 79.0958 74.9219 79.4838C74.8399 79.8598 74.7619 80.2358 74.6799 80.6118C74.5099 81.3838 74.3379 82.1558 74.1619 82.9258C73.8079 84.4698 73.4139 86.0018 73.0119 87.5318C72.7839 88.4018 72.5539 89.2718 72.3239 90.1398C72.3059 90.1898 72.2419 90.1798 72.2539 90.1278Z" fill="#263238"/>
<path id="Vector_83" d="M81.364 77.282C82.412 77.206 83.464 77.172 84.514 77.152C85.564 77.13 86.616 77.142 87.668 77.16C88.718 77.194 89.77 77.236 90.818 77.33C91.866 77.426 92.914 77.542 93.94 77.78L93.158 77.678L92.374 77.604C91.852 77.56 91.33 77.516 90.804 77.492C89.758 77.432 88.708 77.39 87.66 77.372C86.612 77.336 85.562 77.328 84.512 77.314L81.364 77.282Z" fill="#263238"/>
<path id="Vector_84" d="M81.134 62.1777C80.664 63.3817 80.258 64.6097 79.914 65.8537C79.574 67.0977 79.3 68.3637 79.166 69.6417C79.102 70.2797 79.076 70.9237 79.126 71.5597C79.178 72.1937 79.304 72.8277 79.592 73.3837C79.734 73.6617 79.926 73.9097 80.152 74.1157C80.386 74.3217 80.648 74.4997 80.922 74.6557C81.474 74.9637 82.074 75.1857 82.688 75.3657C83.918 75.7177 85.198 75.9017 86.476 76.0537C87.756 76.2017 89.044 76.3057 90.332 76.4377C91.62 76.5697 92.912 76.7237 94.182 77.0357C94.812 77.1937 95.45 77.3957 96.032 77.7177C96.612 78.0357 97.144 78.4157 97.64 78.8577L97.93 79.1157L97.538 79.1097L87.072 78.9677L81.838 78.9257C80.094 78.9197 78.348 78.9157 76.604 78.9617C78.346 78.8597 80.092 78.8337 81.836 78.8017C83.58 78.7717 85.326 78.7677 87.07 78.7617L92.304 78.7657L97.538 78.8157L97.436 79.0697C96.966 78.6537 96.438 78.2797 95.884 77.9797C95.332 77.6757 94.726 77.4857 94.104 77.3337C92.86 77.0357 91.578 76.8877 90.296 76.7457C89.014 76.6077 87.724 76.4977 86.438 76.3417C85.152 76.1837 83.864 75.9937 82.608 75.6257C81.982 75.4397 81.364 75.2077 80.792 74.8757C80.508 74.7077 80.234 74.5177 79.988 74.2917C79.74 74.0597 79.534 73.7857 79.386 73.4857C79.084 72.8857 78.966 72.2237 78.922 71.5717C78.88 70.9177 78.916 70.2657 78.99 69.6197C79.14 68.3277 79.45 67.0637 79.818 65.8237C80.19 64.5857 80.624 63.3657 81.134 62.1777Z" fill="#263238"/>
<path id="Vector_85" d="M92.5378 60.9279C92.5378 60.8999 92.5858 60.8959 92.5898 60.9259C92.6438 61.3939 92.8078 64.0659 92.8878 65.0739C92.9158 65.4339 92.8978 66.0719 93.4198 66.0719C93.8338 66.0719 94.0398 65.6199 94.0858 65.2699C94.1418 64.8419 93.9118 61.7399 93.8598 60.7059C93.8578 60.6759 93.9058 60.6759 93.9118 60.7039C94.1018 61.7379 94.4718 65.0299 94.3618 65.4899C94.2758 65.8519 94.0898 66.1959 93.7218 66.3179C93.7138 66.3199 93.7818 66.8019 93.7038 67.5379C93.6998 67.5719 93.5958 67.5799 93.5878 67.5539H93.5858C93.6038 67.3119 93.4758 66.3739 93.4798 66.3699C93.2078 66.3699 92.9958 66.3079 92.8138 66.0659C92.4498 65.5799 92.5298 62.1179 92.5378 60.9279Z" fill="#263238"/>
<path id="Vector_86" d="M91.054 68.8538C91.428 68.5958 91.816 68.3598 92.206 68.1298C92.594 67.8978 92.992 67.6798 93.392 67.4678C93.794 67.2578 94.196 67.0518 94.61 66.8638C95.022 66.6738 95.438 66.4918 95.866 66.3398C95.672 66.4578 95.472 66.5638 95.278 66.6798L94.686 67.0098C94.292 67.2318 93.892 67.4438 93.494 67.6558C93.092 67.8638 92.694 68.0758 92.286 68.2738L91.676 68.5718C91.468 68.6658 91.264 68.7658 91.054 68.8538Z" fill="#263238"/>
<path id="Vector_87" d="M81.3059 66.7058C82.0359 66.7038 84.3059 66.8358 85.3899 65.9218C86.2659 65.1818 86.6519 62.6538 86.8019 61.9618C86.8099 61.9278 86.8599 61.9398 86.8599 61.9718C86.8839 62.7498 86.7719 63.5418 86.5659 64.2918C86.3899 64.9318 86.1519 65.6458 85.6359 66.0958C85.0919 66.5678 84.3519 66.7338 83.6559 66.8198C82.8699 66.9178 82.0859 66.8938 81.3019 66.7878C81.2539 66.7778 81.2539 66.7058 81.3059 66.7058Z" fill="#263238"/>
</g>
</g>
</g>
<g id="Group_41">
<g id="Group_42">
<g id="Group_43">
<path id="Vector_88" d="M93.51 47.302C95.814 50.73 99.016 56.972 102.584 57.652C105.978 58.3 112.13 50.796 113.898 48.278C114.54 47.364 107.804 42.952 106.96 43.712C105.37 45.144 102.296 49.22 101.768 49.15C101.216 49.074 99.204 47.33 94.966 44.262C92.398 42.402 90.914 43.438 93.51 47.302Z" fill="#EB9481"/>
<g id="Group_44">
<g id="Group_45">
<path id="Vector_89" d="M113.268 49.0298C114.01 48.4558 117.174 45.5238 117.872 44.5098C118.57 43.4978 120.368 40.4358 119.646 39.8238C118.924 39.2098 118.326 40.0638 118.326 40.0638C118.326 40.0638 118.88 38.6518 118.098 38.0998C117.316 37.5478 116.428 38.9078 116.428 38.9078C116.428 38.9078 116.892 37.4158 116.072 36.9218C115.252 36.4278 114.59 37.9438 114.59 37.9438C114.59 37.9438 115.078 36.5998 114.23 36.4758C113.212 36.3278 112.592 38.9078 111.738 39.9678C111.544 40.2078 107.456 44.5678 107.456 44.5678L113.268 49.0298Z" fill="#EB9481"/>
<g id="Group_46">
<path id="Vector_90" d="M114.65 37.8136C114.19 39.7096 113.662 40.4596 112.282 41.7976C112.254 41.8236 112.288 41.8696 112.318 41.8456C113.788 40.6596 114.588 39.8136 114.742 37.8316C114.752 37.7356 114.672 37.7236 114.65 37.8136Z" fill="#263238"/>
<path id="Vector_91" d="M116.464 38.7557C115.814 40.6837 115.248 41.5017 113.906 43.0097C113.888 43.0317 113.922 43.0657 113.942 43.0457C115.382 41.6777 116.16 40.8157 116.556 38.8037C116.574 38.7137 116.494 38.6677 116.464 38.7557Z" fill="#263238"/>
<path id="Vector_92" d="M118.256 40.1379C117.492 41.9599 116.91 42.8839 115.42 44.1799C115.384 44.2099 115.426 44.2639 115.464 44.2379C117.112 43.0639 117.848 41.9159 118.308 40.1679C118.34 40.0479 118.304 40.0239 118.256 40.1379Z" fill="#263238"/>
</g>
</g>
<g id="Group_47">
<path id="Vector_93" d="M106.178 44.9517C106.178 44.9517 106.542 42.5337 106.934 41.5057C107.328 40.4797 110.204 37.1917 110.95 37.7717C111.912 38.5217 110.626 40.7457 109.854 41.7537C109.854 41.7537 112.082 43.4857 111.504 45.2837C110.924 47.0797 106.178 44.9517 106.178 44.9517Z" fill="#EB9481"/>
<path id="Vector_94" d="M111.146 38.0659C111.53 39.3819 110.43 40.6399 109.754 41.6739C109.702 41.7519 109.748 41.8219 109.816 41.8499C110.702 42.6379 111.72 44.0079 111.57 45.2519C111.566 45.2879 111.616 45.2999 111.626 45.2639C111.968 43.9539 111.076 42.5259 110.05 41.7239C110.76 40.6759 111.808 39.3659 111.156 38.0659C111.154 38.0539 111.144 38.0559 111.146 38.0659Z" fill="#263238"/>
</g>
</g>
</g>
<g id="Group_48">
<g id="Group_49">
<path id="Vector_95" d="M105.19 44.5857L112.196 51.0957C112.196 51.0957 105.432 59.1117 102.608 58.4017C99.356 57.5857 94.924 51.4877 92.588 46.0377C90.97 42.2677 93.426 42.2577 95.576 44.1017C97.816 46.0217 101.678 48.7817 101.932 48.6957C102.186 48.6097 105.19 44.5857 105.19 44.5857Z" fill="#FF7900"/>
<path id="Vector_96" d="M96.226 44.6455C96.174 44.6975 96.134 44.7575 96.108 44.8255C96.06 44.9235 96.054 45.0435 96.08 45.1375C96.096 45.2355 96.108 45.3275 96.13 45.4195C96.158 45.3275 96.172 45.2355 96.19 45.1375C96.2 45.0435 96.228 44.9735 96.27 44.9035C96.304 44.8535 96.344 44.8115 96.39 44.7795C96.334 44.7355 96.28 44.6915 96.226 44.6455ZM92.082 44.3475C92.084 44.3515 92.084 44.3575 92.084 44.3635C92.09 44.3535 92.096 44.3435 92.102 44.3335C92.096 44.3375 92.088 44.3415 92.082 44.3475ZM106.922 53.6055C106.83 53.5915 106.76 53.5695 106.69 53.5235C106.558 53.4375 106.482 53.2975 106.488 53.1395C106.482 52.9095 106.324 52.6815 106.112 52.6055C106.006 52.5675 105.884 52.5715 105.798 52.5895C105.698 52.6055 105.606 52.6195 105.508 52.6475C105.606 52.6715 105.698 52.6815 105.798 52.7015C105.896 52.7115 105.966 52.7355 106.036 52.7755C106.168 52.8555 106.25 53.0015 106.25 53.1475C106.25 53.3715 106.394 53.6115 106.608 53.6855C106.706 53.7315 106.83 53.7375 106.922 53.7195C107.02 53.6975 107.114 53.6855 107.206 53.6615C107.114 53.6335 107.02 53.6215 106.922 53.6055ZM98.308 49.5375C98.21 49.5275 98.14 49.4995 98.07 49.4595C97.944 49.3715 97.862 49.2315 97.868 49.0755C97.868 48.8395 97.706 48.6175 97.492 48.5415C97.394 48.5015 97.264 48.5015 97.178 48.5195C97.08 48.5415 96.986 48.5535 96.894 48.5775C96.986 48.6055 97.08 48.6175 97.178 48.6335C97.278 48.6455 97.346 48.6655 97.416 48.7095C97.55 48.7915 97.638 48.9315 97.638 49.0815C97.632 49.3075 97.776 49.5375 97.99 49.6195C98.09 49.6675 98.216 49.6675 98.308 49.6495C98.402 49.6335 98.494 49.6195 98.592 49.5915C98.494 49.5695 98.402 49.5575 98.308 49.5375ZM109.966 48.9455C109.95 48.8475 109.938 48.7555 109.91 48.6615C109.888 48.7475 109.876 48.8315 109.856 48.9215C109.854 48.9295 109.852 48.9375 109.85 48.9455C109.84 49.0435 109.822 49.1135 109.78 49.1835C109.7 49.3155 109.556 49.4035 109.41 49.3975C109.186 49.3975 108.946 49.5435 108.866 49.7575C108.826 49.8555 108.82 49.9775 108.838 50.0715C108.854 50.1695 108.866 50.2615 108.894 50.3595C108.924 50.2615 108.936 50.1695 108.952 50.0715C108.964 49.9775 108.986 49.9075 109.034 49.8375C109.12 49.7055 109.258 49.6295 109.416 49.6355C109.648 49.6295 109.874 49.4735 109.95 49.2595C109.978 49.1915 109.984 49.1075 109.978 49.0335C109.976 49.0015 109.972 48.9715 109.966 48.9455ZM100.898 52.5335C100.882 52.4335 100.87 52.3415 100.842 52.2495C100.82 52.3415 100.806 52.4335 100.784 52.5335C100.772 52.6315 100.756 52.7015 100.714 52.7715C100.632 52.9035 100.488 52.9895 100.342 52.9855C100.118 52.9855 99.88 53.1295 99.798 53.3435C99.758 53.4415 99.752 53.5655 99.77 53.6575C99.786 53.7555 99.798 53.8495 99.826 53.9475C99.856 53.8495 99.868 53.7555 99.886 53.6575C99.896 53.5655 99.92 53.4955 99.966 53.4255C100.054 53.2935 100.192 53.2175 100.348 53.2235C100.582 53.2175 100.806 53.0595 100.882 52.8475C100.924 52.7475 100.918 52.6195 100.898 52.5335ZM104.408 56.5295C104.334 56.5935 104.27 56.6215 104.19 56.6375C104.032 56.6695 103.882 56.6275 103.778 56.5115C103.608 56.3495 103.336 56.3035 103.134 56.4015C103.03 56.4415 102.948 56.5335 102.896 56.6095C102.844 56.6915 102.78 56.7675 102.734 56.8535C102.82 56.8015 102.896 56.7415 102.978 56.6915C103.052 56.6275 103.118 56.5935 103.198 56.5755C103.348 56.5335 103.51 56.5755 103.614 56.6795C103.772 56.8475 104.038 56.9055 104.246 56.8115C104.35 56.7735 104.438 56.6915 104.496 56.6095C104.548 56.5295 104.606 56.4535 104.652 56.3655C104.566 56.4195 104.49 56.4755 104.408 56.5295ZM105.006 48.4335C104.93 48.4975 104.868 48.5255 104.786 48.5435C104.63 48.5735 104.478 48.5315 104.374 48.4155C104.206 48.2535 103.934 48.2075 103.732 48.3075C103.628 48.3455 103.546 48.4395 103.492 48.5155C103.442 48.5955 103.378 48.6715 103.33 48.7595C103.418 48.7055 103.492 48.6475 103.574 48.5955C103.65 48.5315 103.714 48.4975 103.796 48.4815C103.944 48.4395 104.108 48.4815 104.212 48.5855C104.368 48.7535 104.636 48.8095 104.844 48.7175C104.948 48.6775 105.034 48.5955 105.092 48.5155C105.146 48.4335 105.202 48.3575 105.25 48.2715C105.162 48.3235 105.088 48.3795 105.006 48.4335Z" fill="white"/>
</g>
<path id="Vector_97" d="M110.148 52.3915C109.136 51.4975 105.13 47.6855 104.32 46.8015C104.264 46.7395 104.288 46.6895 104.356 46.7455C107.452 49.3535 109.234 51.4215 110.182 52.3495C110.206 52.3735 110.174 52.4135 110.148 52.3915Z" fill="#263238"/>
<path id="Vector_98" opacity="0.1" d="M102.134 58.2476C98.9359 57.0036 94.8139 51.2276 92.5879 46.0396C91.6979 43.9636 92.0419 43.0276 92.8899 42.9136C95.6539 47.1596 99.2939 53.3916 102.134 58.2476Z" fill="#000102"/>
</g>
</g>
<g id="Group_50">
<g id="Group_51">
<g id="Group_52">
<path id="Vector_99" d="M75.7539 64.7578C75.7539 64.7598 95.0459 66.8418 95.0459 66.8438C94.9379 67.2058 96.9559 55.2358 95.3999 44.9578C95.0779 42.8278 91.6579 42.3018 90.0279 43.1058C82.8859 46.6298 75.7799 64.5918 75.7539 64.7578Z" fill="#FF7900"/>
</g>
</g>
<path id="Vector_100" d="M91.6779 60.578C91.6019 60.636 91.5319 60.67 91.4499 60.686C91.2999 60.716 91.1439 60.67 91.0399 60.56C90.8719 60.392 90.5999 60.344 90.3959 60.448C90.2959 60.49 90.2099 60.582 90.1579 60.658C90.1059 60.734 90.0499 60.808 89.9959 60.894C90.0839 60.85 90.1579 60.79 90.2399 60.734C90.3219 60.676 90.3839 60.642 90.4599 60.616C90.6099 60.582 90.7739 60.622 90.8779 60.728C91.0319 60.89 91.3059 60.954 91.5099 60.86C91.6139 60.822 91.7059 60.734 91.7579 60.658C91.8099 60.578 91.8679 60.502 91.9139 60.414C91.8319 60.462 91.7579 60.518 91.6779 60.578ZM79.3479 61.626C79.2719 61.69 79.2019 61.726 79.1279 61.736C78.9719 61.77 78.8199 61.726 78.7119 61.614C78.5419 61.448 78.2759 61.4 78.0739 61.498C77.9699 61.546 77.8819 61.638 77.8359 61.706C77.7759 61.788 77.7199 61.864 77.6719 61.95C77.7599 61.904 77.8359 61.846 77.9159 61.788C77.9919 61.726 78.0559 61.69 78.1359 61.672C78.2879 61.638 78.4499 61.678 78.5479 61.782C78.7059 61.944 78.9779 62.008 79.1859 61.916C79.2899 61.874 79.3759 61.788 79.4299 61.714C79.4799 61.632 79.5459 61.556 79.5919 61.47C79.5059 61.516 79.4299 61.574 79.3479 61.626ZM84.9659 52.502C84.8899 52.566 84.8279 52.594 84.7459 52.612C84.5899 52.642 84.4379 52.6 84.3339 52.486C84.1659 52.322 83.8939 52.278 83.6919 52.376C83.5879 52.416 83.5059 52.508 83.4539 52.584C83.4019 52.664 83.3379 52.74 83.2899 52.828C83.3779 52.774 83.4539 52.716 83.5339 52.664C83.6099 52.6 83.6739 52.566 83.7559 52.55C83.9059 52.508 84.0679 52.55 84.1719 52.654C84.3279 52.822 84.5959 52.878 84.8039 52.786C84.9079 52.746 84.9939 52.664 85.0539 52.584C85.1059 52.502 85.1619 52.426 85.2099 52.34C85.1239 52.392 85.0479 52.45 84.9659 52.502ZM91.8579 44.496C91.7819 44.556 91.7179 44.59 91.6359 44.606C91.4799 44.636 91.3299 44.596 91.2259 44.48C91.0579 44.318 90.7839 44.272 90.5819 44.37C90.4779 44.41 90.3979 44.502 90.3439 44.578C90.2919 44.66 90.2279 44.736 90.1819 44.822C90.2679 44.77 90.3439 44.712 90.4259 44.66C90.5019 44.596 90.5659 44.562 90.6439 44.544C90.7959 44.502 90.9579 44.544 91.0619 44.648C91.2199 44.816 91.4859 44.874 91.6939 44.78C91.7979 44.74 91.8859 44.66 91.9439 44.578C91.9979 44.496 92.0539 44.422 92.1019 44.334C92.0139 44.388 91.9379 44.446 91.8579 44.496ZM92.8819 49.796C92.8599 49.702 92.8479 49.61 92.8239 49.512C92.7959 49.61 92.7839 49.702 92.7659 49.796C92.7559 49.902 92.7299 49.97 92.6919 50.04C92.6099 50.174 92.4719 50.254 92.3199 50.254C92.0939 50.248 91.8619 50.398 91.7819 50.614C91.7339 50.712 91.7279 50.834 91.7539 50.926C91.7699 51.024 91.7819 51.118 91.8039 51.21C91.8319 51.118 91.8459 51.024 91.8619 50.926C91.8739 50.834 91.9019 50.764 91.9439 50.694C92.0319 50.562 92.1699 50.486 92.3259 50.492C92.5639 50.486 92.7839 50.328 92.8599 50.114C92.8999 50.01 92.8939 49.888 92.8819 49.796ZM84.4019 56.844C84.3839 56.746 84.3739 56.652 84.3459 56.56C84.3219 56.652 84.3099 56.746 84.2859 56.844C84.2759 56.942 84.2579 57.012 84.2159 57.082C84.1359 57.214 83.9919 57.302 83.8459 57.296C83.6199 57.296 83.3819 57.442 83.3019 57.656C83.2619 57.754 83.2559 57.876 83.2719 57.97C83.2899 58.068 83.3019 58.16 83.3299 58.258C83.3599 58.16 83.3719 58.068 83.3879 57.97C83.3999 57.876 83.4219 57.806 83.4699 57.736C83.5559 57.604 83.6939 57.528 83.8519 57.534C84.0839 57.528 84.3099 57.372 84.3839 57.158C84.4259 57.06 84.4199 56.93 84.4019 56.844ZM95.6039 55.474C95.5219 55.538 95.4579 55.572 95.3819 55.596C95.2319 55.63 95.0699 55.59 94.9639 55.484C94.8099 55.324 94.5379 55.26 94.3339 55.352C94.2299 55.392 94.1359 55.474 94.0859 55.554C94.0319 55.636 93.9739 55.712 93.9219 55.798C94.0099 55.746 94.0859 55.688 94.1659 55.636C94.2399 55.58 94.3099 55.544 94.3859 55.526C94.5439 55.498 94.6919 55.544 94.8039 55.652C94.9719 55.816 95.2399 55.862 95.4479 55.764C95.5459 55.722 95.6319 55.63 95.6859 55.554C95.7359 55.474 95.7959 55.4 95.8399 55.312C95.7599 55.364 95.6859 55.422 95.6039 55.474ZM89.6139 55.662C89.5219 55.65 89.4519 55.628 89.3819 55.586C89.2499 55.5 89.1739 55.356 89.1799 55.204C89.1739 54.966 89.0159 54.746 88.8019 54.67C88.7019 54.624 88.5759 54.63 88.4879 54.648C88.3899 54.67 88.2979 54.682 88.1999 54.704C88.2979 54.736 88.3899 54.746 88.4879 54.764C88.5879 54.774 88.6579 54.792 88.7279 54.834C88.8599 54.914 88.9399 55.058 88.9399 55.204C88.9399 55.434 89.0859 55.668 89.2999 55.748C89.3979 55.794 89.5219 55.794 89.6139 55.778C89.7119 55.76 89.8059 55.748 89.9039 55.72C89.8059 55.696 89.7119 55.684 89.6139 55.662ZM85.5879 63.158C85.4899 63.148 85.4199 63.12 85.3499 63.08C85.2219 62.992 85.1419 62.852 85.1459 62.696C85.1459 62.46 84.9839 62.238 84.7699 62.162C84.6719 62.122 84.5439 62.122 84.4559 62.14C84.3579 62.162 84.2659 62.174 84.1719 62.198C84.2659 62.226 84.3579 62.238 84.4559 62.254C84.5559 62.266 84.6239 62.286 84.6939 62.33C84.8299 62.412 84.9159 62.552 84.9159 62.702C84.9099 62.928 85.0539 63.158 85.2699 63.24C85.3679 63.288 85.4939 63.288 85.5879 63.27C85.6799 63.254 85.7719 63.24 85.8719 63.212C85.7719 63.19 85.6799 63.178 85.5879 63.158ZM91.9199 66.368C91.8219 66.354 91.7539 66.332 91.6839 66.286C91.5539 66.2 91.4739 66.06 91.4779 65.902C91.4779 65.666 91.3179 65.446 91.1019 65.37C91.0039 65.33 90.8779 65.336 90.7899 65.352C90.6979 65.37 90.5999 65.382 90.5059 65.406C90.5999 65.434 90.6979 65.446 90.7899 65.462C90.8879 65.476 90.9579 65.498 91.0259 65.538C91.1619 65.62 91.2479 65.76 91.2479 65.908C91.2419 66.136 91.3859 66.368 91.6019 66.448C91.6519 66.472 91.7079 66.484 91.7659 66.49C91.8199 66.494 91.8739 66.492 91.9199 66.484C92.0119 66.46 92.1039 66.448 92.2059 66.424C92.1039 66.396 92.0119 66.386 91.9199 66.368ZM88.0699 48.708C87.9759 48.694 87.9059 48.672 87.8359 48.626C87.7039 48.54 87.6279 48.4 87.6339 48.242C87.6279 48.012 87.4719 47.784 87.2579 47.71C87.1519 47.67 87.0319 47.676 86.9439 47.692C86.8459 47.71 86.7539 47.722 86.6539 47.75C86.7539 47.774 86.8459 47.784 86.9439 47.804C87.0419 47.816 87.1119 47.838 87.1819 47.878C87.3139 47.958 87.3959 48.104 87.3959 48.25C87.3959 48.476 87.5419 48.714 87.7559 48.79C87.8539 48.834 87.9759 48.84 88.0699 48.824C88.1679 48.8 88.2599 48.79 88.3539 48.764C88.2599 48.736 88.1679 48.724 88.0699 48.708Z" fill="white"/>
</g>
<g id="Group_53">
<g id="Group_54">
<path id="Vector_101" d="M87.4799 45.4435C82.6919 51.2655 77.1379 62.8455 78.5799 65.0115C80.1879 67.4255 86.7919 59.5315 86.7239 59.0975C86.6719 58.7695 88.6359 51.7055 90.1439 46.5615C91.6519 41.4215 88.6639 44.0035 87.4799 45.4435Z" fill="#EB9481"/>
<g id="Group_55">
<g id="Group_56">
<path id="Vector_102" d="M86.776 59.0998C86.934 58.3498 89.632 49.0258 90.378 46.0878C91.124 43.1498 90.114 42.3518 87.48 45.2218C84.846 48.0898 79.454 56.9298 78.438 61.6858C77.46 66.2658 79.648 66.5018 82.488 64.1738C84.814 62.2658 86.776 59.0998 86.776 59.0998Z" fill="#FF7900"/>
<path id="Vector_103" d="M88.0701 48.7079C87.9761 48.6939 87.9061 48.6719 87.8361 48.6259C87.7041 48.5399 87.6281 48.3999 87.6341 48.2419C87.6281 48.0119 87.4721 47.7839 87.2581 47.7099C87.1521 47.6699 87.0321 47.6759 86.9441 47.6919C86.8461 47.7099 86.7541 47.7219 86.6541 47.7499C86.7541 47.7739 86.8461 47.7839 86.9441 47.8039C87.0421 47.8159 87.1121 47.8379 87.1821 47.8779C87.3141 47.9579 87.3961 48.1039 87.3961 48.2499C87.3961 48.4759 87.5421 48.7139 87.7561 48.7899C87.8541 48.8339 87.9761 48.8399 88.0701 48.8239C88.1681 48.7999 88.2601 48.7899 88.3541 48.7639C88.2601 48.7359 88.1681 48.7239 88.0701 48.7079ZM84.4561 62.1399C84.3581 62.1619 84.2661 62.1739 84.1721 62.1979C84.2581 62.2239 84.3421 62.2359 84.4301 62.2499L84.5321 62.1299C84.5041 62.1319 84.4801 62.1339 84.4561 62.1399ZM84.4021 56.8439C84.3841 56.7459 84.3741 56.6519 84.3461 56.5599C84.3221 56.6519 84.3101 56.7459 84.2861 56.8439C84.2761 56.9419 84.2581 57.0119 84.2161 57.0819C84.1361 57.2139 83.9921 57.3019 83.8461 57.2959C83.6201 57.2959 83.3821 57.4419 83.3021 57.6559C83.2621 57.7539 83.2561 57.8759 83.2721 57.9699C83.2901 58.0679 83.3021 58.1599 83.3301 58.2579C83.3601 58.1599 83.3721 58.0679 83.3881 57.9699C83.4001 57.8759 83.4221 57.8059 83.4701 57.7359C83.5561 57.6039 83.6941 57.5279 83.8521 57.5339C84.0841 57.5279 84.3101 57.3719 84.3841 57.1579C84.4261 57.0599 84.4201 56.9299 84.4021 56.8439ZM90.6121 44.3579C90.6021 44.3619 90.5921 44.3659 90.5821 44.3699C90.4781 44.4099 90.3981 44.5019 90.3441 44.5779C90.2921 44.6599 90.2281 44.7359 90.1821 44.8219C90.2681 44.7699 90.3441 44.7119 90.4261 44.6599C90.4921 44.6039 90.5481 44.5719 90.6141 44.5519C90.6181 44.4839 90.6161 44.4199 90.6121 44.3579ZM84.9661 52.5019C84.8901 52.5659 84.8281 52.5939 84.7461 52.6119C84.5901 52.6419 84.4381 52.5999 84.3341 52.4859C84.1661 52.3219 83.8941 52.2779 83.6921 52.3759C83.5881 52.4159 83.5061 52.5079 83.4541 52.5839C83.4021 52.6639 83.3381 52.7399 83.2901 52.8279C83.3781 52.7739 83.4541 52.7159 83.5341 52.6639C83.6101 52.5999 83.6741 52.5659 83.7561 52.5499C83.9061 52.5079 84.0681 52.5499 84.1721 52.6539C84.3281 52.8219 84.5961 52.8779 84.8041 52.7859C84.9081 52.7459 84.9941 52.6639 85.0541 52.5839C85.1061 52.5019 85.1621 52.4259 85.2101 52.3399C85.1241 52.3919 85.0481 52.4499 84.9661 52.5019ZM79.3481 61.6259C79.2721 61.6899 79.2021 61.7259 79.1281 61.7359C78.9721 61.7699 78.8201 61.7259 78.7121 61.6139C78.6481 61.5499 78.5681 61.5039 78.4841 61.4779C78.4681 61.5479 78.4521 61.6159 78.4381 61.6839C78.4361 61.6899 78.4361 61.6979 78.4341 61.7039C78.4781 61.7219 78.5161 61.7479 78.5481 61.7819C78.7061 61.9439 78.9781 62.0079 79.1861 61.9159C79.2901 61.8739 79.3761 61.7879 79.4301 61.7139C79.4801 61.6319 79.5461 61.5559 79.5921 61.4699C79.5061 61.5159 79.4301 61.5739 79.3481 61.6259Z" fill="white"/>
</g>
<g id="Group_57">
<path id="Vector_104" d="M86.4319 60.3056C86.6599 59.3676 86.9019 58.4336 87.1479 57.4996C87.3919 56.5656 87.6479 55.6356 87.8979 54.7056L88.6799 51.9196L89.0819 50.5296C89.2199 50.0676 89.3559 49.6036 89.4979 49.1436C89.3859 49.6136 89.2639 50.0796 89.1479 50.5476L88.7839 51.9476L88.0319 54.7416C87.7699 55.6696 87.5159 56.6016 87.2499 57.5276C86.9839 58.4556 86.7159 59.3836 86.4319 60.3056Z" fill="#263238"/>
<path id="Vector_105" d="M88.9419 51.3134C89.0259 51.0714 89.1379 50.8434 89.2539 50.6194C89.3139 50.5074 89.3739 50.3974 89.4379 50.2874C89.4999 50.1774 89.5699 50.0714 89.6379 49.9634C89.5739 50.2134 89.4619 50.4434 89.3459 50.6674C89.2259 50.8914 89.0979 51.1114 88.9419 51.3134Z" fill="#263238"/>
</g>
</g>
</g>
<g id="Group_58">
<g id="Group_59">
<path id="Vector_106" d="M78.5901 64.9994C79.9101 66.7054 82.9321 66.9714 91.3941 68.2114C92.5661 68.3834 96.2501 60.2954 95.0081 60.0494C93.4441 59.7374 87.3101 58.8654 86.8541 58.8594C83.0041 58.7994 77.6941 63.8414 78.5901 64.9994Z" fill="#EB9481"/>
<g id="Group_60">
<path id="Vector_107" d="M92.1381 60.0295C92.1381 60.0295 95.3541 59.6935 97.4681 59.5715C98.6481 59.5035 100.678 59.5675 101.568 59.9155C102.898 60.4335 108.128 63.4515 107.424 64.7355C106.786 65.8975 102.622 62.7355 102.622 62.7355C102.622 62.7355 107.106 65.5555 106.082 66.8135C105.058 68.0715 100.828 63.8735 100.828 63.8735C100.828 63.8735 105.37 66.8735 104.108 68.0035C103.154 68.8575 99.1101 65.2695 99.1101 65.2695C99.1101 65.2695 102.996 67.8755 102.054 68.7955C101.012 69.8135 97.0701 66.7355 97.0701 66.7355C94.2781 68.6715 92.1581 68.4535 90.6681 68.1175C90.3021 68.0355 92.1381 60.0295 92.1381 60.0295Z" fill="#EB9481"/>
<g id="Group_61">
<path id="Vector_108" d="M101.132 61.6597C101.67 61.9717 102.218 62.2837 102.728 62.6437C103.238 63.0017 103.734 63.3797 104.208 63.7837C105.37 64.7757 105.94 65.5797 105.9 65.5337C104.936 64.4517 103.134 63.1377 102.626 62.7797C102.118 62.4217 101.628 62.0377 101.12 61.6797C101.104 61.6697 101.118 61.6517 101.132 61.6597Z" fill="#263238"/>
<path id="Vector_109" d="M99.8021 63.4736C100.472 63.9016 101.154 64.3036 101.806 64.7616C102.454 65.2176 103.03 65.7076 103.646 66.2056C103.694 66.2436 103.658 66.2576 103.608 66.2196C102.972 65.7456 102.35 65.3556 101.708 64.8896C101.07 64.4236 100.444 63.9316 99.7901 63.4896C99.7801 63.4816 99.7921 63.4676 99.8021 63.4736Z" fill="#263238"/>
<path id="Vector_110" d="M98.3801 64.8257C99.4381 65.4277 100.384 66.2237 101.294 67.0277C101.34 67.0677 101.29 67.0797 101.242 67.0417C100.288 66.2917 99.5441 65.6957 98.3601 64.8617C98.3421 64.8497 98.3581 64.8137 98.3801 64.8257Z" fill="#263238"/>
</g>
</g>
</g>
<g id="Group_62">
<path id="Vector_111" d="M94.056 59.7116L87.102 68.2436C87.102 68.2436 79.684 66.8636 78.498 65.0116C77.718 63.7916 82.976 58.4756 87.226 58.8656L94.056 59.7116Z" fill="#FF7900"/>
<path id="Vector_112" d="M85.9721 67.0833C85.8961 67.1413 85.8261 67.1753 85.7441 67.1933C85.5941 67.2213 85.4381 67.1753 85.3341 67.0673C85.1661 66.8973 84.8941 66.8513 84.6901 66.9553C84.5901 66.9973 84.5041 67.0893 84.4521 67.1653C84.4001 67.2413 84.3441 67.3133 84.2901 67.4013C84.3781 67.3553 84.4521 67.2973 84.5341 67.2413C84.6161 67.1813 84.6781 67.1473 84.7541 67.1233C84.9041 67.0893 85.0681 67.1293 85.1721 67.2353C85.3261 67.3953 85.6001 67.4593 85.8041 67.3673C85.9081 67.3273 86.0001 67.2413 86.0521 67.1653C86.1041 67.0833 86.1621 67.0073 86.2081 66.9213C86.1261 66.9673 86.0521 67.0253 85.9721 67.0833ZM91.6781 60.5773C91.6021 60.6353 91.5321 60.6693 91.4501 60.6853C91.3001 60.7153 91.1441 60.6693 91.0401 60.5593C90.8721 60.3913 90.6001 60.3433 90.3961 60.4473C90.2961 60.4893 90.2101 60.5813 90.1581 60.6573C90.1061 60.7333 90.0501 60.8073 89.9961 60.8933C90.0841 60.8493 90.1581 60.7893 90.2401 60.7333C90.3221 60.6753 90.3841 60.6413 90.4601 60.6153C90.6101 60.5813 90.7741 60.6213 90.8781 60.7273C91.0321 60.8893 91.3061 60.9533 91.5101 60.8593C91.6141 60.8213 91.7061 60.7333 91.7581 60.6573C91.8101 60.5773 91.8681 60.5013 91.9141 60.4133C91.8321 60.4613 91.7581 60.5173 91.6781 60.5773ZM80.6521 65.8693C80.6301 65.7713 80.6181 65.6793 80.5941 65.5873C80.5641 65.6793 80.5541 65.7713 80.5361 65.8693C80.5261 65.9693 80.5061 66.0393 80.4601 66.1093C80.4161 66.1813 80.3581 66.2373 80.2881 66.2733C80.3621 66.3073 80.4361 66.3413 80.5121 66.3733C80.5641 66.3193 80.6061 66.2533 80.6301 66.1833C80.6681 66.0853 80.6681 65.9573 80.6521 65.8693ZM85.5881 63.1573C85.4901 63.1473 85.4201 63.1193 85.3501 63.0793C85.2221 62.9913 85.1421 62.8513 85.1461 62.6953C85.1461 62.4593 84.9841 62.2373 84.7701 62.1613C84.6721 62.1213 84.5441 62.1213 84.4561 62.1393C84.3581 62.1613 84.2661 62.1733 84.1721 62.1973C84.2661 62.2253 84.3581 62.2373 84.4561 62.2533C84.5561 62.2653 84.6241 62.2853 84.6941 62.3293C84.8301 62.4113 84.9161 62.5513 84.9161 62.7013C84.9101 62.9273 85.0541 63.1573 85.2701 63.2393C85.3681 63.2873 85.4941 63.2873 85.5881 63.2693C85.6801 63.2533 85.7721 63.2393 85.8721 63.2113C85.7721 63.1893 85.6801 63.1773 85.5881 63.1573Z" fill="white"/>
<g id="Group_63">
<path id="Vector_113" d="M82.2519 60.4374C82.9099 59.9114 84.7719 58.6694 87.2299 58.8594C87.2519 58.8614 87.2539 58.8954 87.2319 58.8954C85.3859 58.9314 82.9459 60.0154 82.2699 60.4674C82.2519 60.4774 82.2359 60.4494 82.2519 60.4374Z" fill="#263238"/>
<path id="Vector_114" d="M85.0279 66.9716C85.7419 65.9916 86.5079 65.0516 87.2759 64.1156C88.0459 63.1776 88.8119 62.2376 89.6039 61.3176C90.0519 60.7976 90.4959 60.2756 90.9619 59.7716C90.9739 59.7576 90.9999 59.7756 90.9879 59.7916C90.2759 60.7696 89.5119 61.7136 88.7519 62.6556C87.9899 63.5996 87.2159 64.5356 86.4339 65.4636C85.9919 65.9876 85.5419 66.5056 85.0759 67.0096C85.0539 67.0316 85.0059 66.9996 85.0279 66.9716Z" fill="#263238"/>
<path id="Vector_115" d="M94.0639 59.6055C93.6079 59.4775 93.1399 59.4235 92.6719 59.3575C92.2039 59.2935 91.7359 59.2355 91.2659 59.1835C90.3319 59.0795 88.3659 58.7515 86.6579 58.8395C86.6399 58.8395 86.7399 58.9275 86.7599 58.9255C87.5719 58.8435 93.4619 59.7235 93.9439 59.7355C93.9259 59.7675 93.9099 59.7995 93.8979 59.8355C93.8899 59.8595 93.9139 59.8895 93.9379 59.8715C93.9959 59.8275 94.0359 59.7755 94.0899 59.7295C94.1339 59.6875 94.1219 59.6215 94.0639 59.6055Z" fill="#263238"/>
</g>
</g>
</g>
<g id="Group_64">
<path id="Vector_116" d="M84.5039 49.2236C82.7359 52.2636 76.8499 61.8976 78.5119 65.0516C78.3219 64.7436 78.2119 64.3856 78.1699 64.0256C77.7919 59.9836 82.2279 52.6356 84.5039 49.2236Z" fill="#263238"/>
<path id="Vector_117" d="M83.9619 49.5757C83.7959 50.0517 83.6339 50.5137 83.4199 50.9717C83.4999 50.4757 83.6739 49.9877 83.9619 49.5757Z" fill="#263238"/>
</g>
</g>
<g id="Group_65">
<g id="Group_66">
<g id="Group_67">
<path id="Vector_118" d="M93.8378 46.0638C92.9138 46.2598 91.0258 45.1338 90.4018 43.8058C90.3598 43.7138 90.5518 42.7938 90.7318 41.6658C90.8378 40.9798 90.9418 40.2138 90.9838 39.5098C90.9918 39.3658 95.3418 40.8558 95.3418 40.8558C95.3418 40.8558 94.8158 42.3078 94.7478 43.5378C94.7438 43.6398 94.7478 43.7378 94.7598 43.8298C94.7598 43.8438 94.7638 43.8598 94.7638 43.8778C94.8218 44.4338 94.8258 45.8538 93.8378 46.0638Z" fill="#EB9481"/>
</g>
<path id="Vector_119" d="M94.7638 43.83C94.7638 43.844 94.7658 43.862 94.7658 43.878C94.6258 43.888 94.4758 43.888 94.3118 43.874C91.7118 43.658 91.2238 40.356 91.1418 39.522C91.9218 39.682 95.3438 40.856 95.3438 40.856C95.3438 40.856 94.8178 42.31 94.7498 43.54C94.7458 43.642 94.7498 43.738 94.7638 43.83Z" fill="#263238"/>
</g>
<g id="Group_68">
<path id="Vector_120" d="M95.9178 31.852C96.1678 31.822 97.5358 33.47 97.6698 34.334C97.8038 35.198 97.7478 36.962 97.4998 37.03C97.2498 37.096 95.7258 31.876 95.9178 31.852Z" fill="#263238"/>
<g id="Group_69">
<path id="Vector_121" d="M90.0378 34.4697C89.6518 36.0677 90.7478 40.5497 91.9238 41.4957C93.6278 42.8657 96.2858 42.8477 97.4158 40.8297C98.5118 38.8737 96.9778 33.0557 95.6778 32.2117C93.7598 30.9677 90.6078 32.1117 90.0378 34.4697Z" fill="#EB9481"/>
</g>
<g id="Group_70">
<g id="Group_71">
<path id="Vector_122" d="M96.394 36.6216C96.394 36.6096 96.42 36.6316 96.422 36.6436C96.472 36.9496 96.582 37.2936 96.878 37.3396C96.888 37.3416 96.89 37.3556 96.878 37.3576C96.534 37.3776 96.394 36.9216 96.394 36.6216Z" fill="#263238"/>
<path id="Vector_123" d="M96.6041 36.2494C97.0881 36.1154 97.3201 37.0914 96.8741 37.2154C96.4321 37.3374 96.1981 36.3614 96.6041 36.2494Z" fill="#263238"/>
</g>
<g id="Group_72">
<path id="Vector_124" d="M94.686 37.0217C94.682 37.0097 94.666 37.0417 94.668 37.0537C94.746 37.3537 94.786 37.7117 94.536 37.8757C94.528 37.8817 94.532 37.8957 94.542 37.8917C94.868 37.7697 94.81 37.2937 94.686 37.0217Z" fill="#263238"/>
<path id="Vector_125" d="M94.344 36.7675C93.848 36.8415 94.034 37.8275 94.492 37.7595C94.944 37.6915 94.76 36.7055 94.344 36.7675Z" fill="#263238"/>
</g>
<path id="Vector_126" d="M93.9439 36.1474C94.0739 36.0914 94.1839 36.0194 94.3059 35.9514C94.4439 35.8754 94.5619 35.8274 94.6379 35.6814C94.6779 35.6034 94.6359 35.4794 94.5639 35.4334C94.3939 35.3254 94.2019 35.3774 94.0319 35.4634C93.8479 35.5574 93.7299 35.6754 93.6439 35.8634C93.5619 36.0454 93.7739 36.2214 93.9439 36.1474Z" fill="#263238"/>
<path id="Vector_127" d="M96.8438 35.5277C96.7038 35.5317 96.5718 35.5137 96.4318 35.5037C96.2738 35.4937 96.1478 35.4997 96.0178 35.3997C95.9478 35.3457 95.9338 35.2157 95.9798 35.1437C96.0878 34.9737 96.2838 34.9397 96.4738 34.9437C96.6798 34.9497 96.8378 35.0077 96.9938 35.1417C97.1458 35.2737 97.0298 35.5217 96.8438 35.5277Z" fill="#263238"/>
<path id="Vector_128" d="M94.912 39.8355C94.992 39.9015 95.074 39.9955 95.186 39.9975C95.294 39.9975 95.4181 39.9395 95.5141 39.8935C95.5241 39.8895 95.534 39.8995 95.528 39.9075C95.456 40.0335 95.2941 40.1195 95.1481 40.1055C95.0061 40.0915 94.9261 39.9755 94.8821 39.8495C94.8761 39.8335 94.9 39.8255 94.912 39.8355Z" fill="#263238"/>
<g id="Group_73">
<g id="Group_74">
<path id="Vector_129" d="M95.0378 38.8316C95.2618 39.0616 95.5398 39.1576 95.8218 39.1556C95.9478 39.1556 96.0758 39.1356 96.1978 39.0976C96.2218 39.0916 96.2458 39.0856 96.2678 39.0756C96.2898 39.0676 96.3098 39.0616 96.3318 39.0516C96.3658 39.0396 96.3798 39.0056 96.3798 38.9716V38.9696C96.3778 38.9576 96.3758 38.9496 96.3698 38.9396C96.3698 38.9396 96.3698 38.9396 96.3698 38.9376L96.3638 38.9116C96.3238 38.6756 96.2298 38.3236 96.2298 38.3236C96.3238 38.3496 96.7998 38.4596 96.7698 38.3376C96.5078 37.3336 96.2158 36.2176 95.7438 35.2756C95.7298 35.2436 95.6798 35.2616 95.6898 35.2936C95.9038 36.2676 96.2878 37.1976 96.5178 38.1736C96.3678 38.1476 96.1198 38.0956 95.9978 38.1216C95.9658 38.1376 96.1918 38.7996 96.1998 38.9076C96.1998 38.9076 96.1998 38.9116 96.1998 38.9196C95.8158 39.0476 95.4938 38.9876 95.0598 38.7996C95.0358 38.7856 95.0158 38.8116 95.0378 38.8316Z" fill="#263238"/>
</g>
</g>
<g id="Group_75">
<path id="Vector_130" d="M96.054 39.0658C96.054 39.0658 95.894 39.3697 95.63 39.5117C95.534 39.5637 95.426 39.5958 95.306 39.5818C95.06 39.5558 95.02 39.3397 95.036 39.1457C95.048 38.9877 95.098 38.8438 95.098 38.8438C95.098 38.8438 95.494 39.1158 96.054 39.0658Z" fill="#263238"/>
<path id="Vector_131" d="M95.63 39.5118C95.534 39.5638 95.426 39.5958 95.306 39.5818C95.06 39.5558 95.02 39.3398 95.036 39.1458C95.294 39.1338 95.572 39.2678 95.63 39.5118Z" fill="#FF9BBC"/>
</g>
</g>
<g id="Group_76">
<path id="Vector_132" d="M90.9619 38.4458C91.7619 38.3398 91.9519 37.3818 91.9479 36.0998C91.9459 35.3518 91.4379 33.9738 91.4379 33.9738C91.4379 33.9738 93.6539 34.4638 94.7679 34.1078C95.8839 33.7518 96.6339 32.5558 96.3819 31.6758C96.1659 30.9198 94.6519 30.2158 92.9379 30.5238C91.7439 30.7378 89.9559 32.1378 89.3579 33.6078C89.3579 33.6078 88.0259 34.6538 88.5019 35.7298C88.9759 36.8038 90.0519 38.5658 90.9619 38.4458Z" fill="#263238"/>
<path id="Vector_133" d="M90.9979 38.3438C92.0799 38.3318 92.2779 36.6538 92.1219 35.8358C91.9599 34.9878 91.4459 34.2078 91.1139 33.4178C91.1119 33.4138 91.1179 33.4098 91.1199 33.4138C91.6919 34.3318 92.3539 35.5098 92.2479 36.6298C92.1819 37.3338 91.9419 38.5278 90.9959 38.4018C90.9639 38.3998 90.9619 38.3438 90.9979 38.3438Z" fill="#263238"/>
<path id="Vector_134" d="M88.1998 35.4398C88.1898 34.7138 88.8278 33.8538 89.4538 33.5418C89.4598 33.5398 89.4638 33.5478 89.4598 33.5518C88.7318 34.0198 88.0178 35.1398 88.4638 35.9738C88.8198 36.6398 89.3718 37.4998 89.9818 37.9538C89.9978 37.9658 89.9798 37.9878 89.9638 37.9778C89.4978 37.6838 89.2198 37.2238 88.9098 36.7778C88.6398 36.3878 88.2058 35.9418 88.1998 35.4398Z" fill="#263238"/>
<path id="Vector_135" d="M89.2318 33.7459C89.8658 32.1959 91.5418 30.2199 93.3578 30.2439C93.3638 30.2439 93.3638 30.2519 93.3578 30.2539C91.4658 30.3839 90.1638 32.3099 89.3058 33.7879C89.2798 33.8299 89.2138 33.7879 89.2318 33.7459Z" fill="#263238"/>
</g>
<g id="Group_77">
<path id="Vector_136" d="M91.5497 38.1477C91.5497 38.1477 90.4097 36.7657 89.7757 37.1837C89.1397 37.6017 90.0777 39.6617 90.8817 39.8897C91.6837 40.1177 91.9097 39.3797 91.9097 39.3797L91.5497 38.1477Z" fill="#EB9481"/>
<path id="Vector_137" d="M90.0599 37.7676C90.0479 37.7676 90.0459 37.7856 90.0579 37.7896C90.6219 37.9676 90.9499 38.4516 91.1939 38.9616C91.0159 38.7716 90.7859 38.6796 90.5299 38.8936C90.5159 38.9056 90.5319 38.9256 90.5479 38.9216C90.7679 38.8556 90.9319 38.8816 91.0979 39.0496C91.2159 39.1676 91.3019 39.3236 91.3899 39.4636C91.4199 39.5096 91.5059 39.4776 91.4819 39.4216C91.4799 39.4176 91.4779 39.4136 91.4759 39.4096C91.4319 38.7096 90.8139 37.7776 90.0599 37.7676Z" fill="#263238"/>
</g>
</g>
<path id="Vector_138" d="M95.1378 43.9918C95.1358 44.2658 95.1178 44.5418 95.0838 44.8178C95.0538 45.0658 95.0218 45.3118 94.9438 45.5578C94.8018 45.9978 94.4918 46.4298 93.9718 46.6158C93.4758 46.7918 92.9418 46.7198 92.5178 46.5338C92.0558 46.3298 91.6778 46.0038 91.3318 45.6818C91.1178 45.4838 90.9118 45.2758 90.7198 45.0618C90.6218 44.9518 90.5238 44.8438 90.4318 44.7298C90.3418 44.6158 90.2558 44.4998 90.1578 44.3918C90.1498 44.3838 90.1278 44.3938 90.1358 44.4038C90.3318 44.6638 90.9258 45.4878 91.1178 45.6878C91.4658 46.0478 91.8458 46.4138 92.3278 46.6498C92.7838 46.8718 93.3298 46.9678 93.8858 46.8178C94.4358 46.6698 94.8238 46.2658 94.9958 45.8078C95.1018 45.5258 95.1338 45.2318 95.1478 44.9458C95.1618 44.6278 95.1578 44.3078 95.1438 43.9938C95.1438 43.9858 95.1378 43.9878 95.1378 43.9918Z" fill="#263238"/>
</g>
</g>
</g>
</g>
<g id="Light_bulb">
<g id="Group_78">
<g id="Group_79">
<path id="Vector_139" d="M115.176 13.8859C115.018 12.7679 114.996 11.6479 115.114 10.5259C115.272 11.6419 115.292 12.7639 115.176 13.8859Z" fill="#263238"/>
<path id="Vector_140" d="M107.502 16.026C106.808 15.138 106.228 14.176 105.768 13.146C106.464 14.034 107.042 14.996 107.502 16.026Z" fill="#263238"/>
<path id="Vector_141" d="M101.926 21.7178C100.88 21.2958 99.8979 20.7538 98.9839 20.0918C100.032 20.5118 101.014 21.0558 101.926 21.7178Z" fill="#263238"/>
<path id="Vector_142" d="M99.944 29.4341C98.826 29.5921 97.706 29.6141 96.584 29.4961C97.7 29.3361 98.822 29.3181 99.944 29.4341Z" fill="#263238"/>
<path id="Vector_143" d="M102.086 37.1079C101.198 37.8019 100.236 38.3819 99.2061 38.8419C100.094 38.1459 101.056 37.5679 102.086 37.1079Z" fill="#263238"/>
<path id="Vector_144" d="M128.742 36.832C129.788 37.254 130.77 37.796 131.684 38.458C130.636 38.038 129.654 37.494 128.742 36.832Z" fill="#263238"/>
<path id="Vector_145" d="M130.724 29.1159C131.842 28.9579 132.962 28.9359 134.084 29.0539C132.968 29.2139 131.846 29.2319 130.724 29.1159Z" fill="#263238"/>
<path id="Vector_146" d="M128.582 21.442C129.47 20.748 130.432 20.168 131.462 19.708C130.574 20.404 129.612 20.982 128.582 21.442Z" fill="#263238"/>
<path id="Vector_147" d="M122.892 15.8678C123.314 14.8218 123.856 13.8398 124.518 12.9258C124.098 13.9718 123.554 14.9538 122.892 15.8678Z" fill="#263238"/>
</g>
<g id="Group_80">
<g id="Group_81">
<g id="Group_82" opacity="0.5">
<path id="Vector_148" d="M128.394 30.0579C127.746 38.1699 120.988 40.6139 120.988 40.6139C120.492 41.8459 119.844 44.9839 119.844 44.9839H110.824C110.824 44.9839 110.176 41.8479 109.68 40.6139C109.68 40.6139 102.922 38.1679 102.274 30.0579C101.824 24.4219 105.838 16.0899 115.286 16.0879H115.384C124.83 16.0919 128.844 24.4219 128.394 30.0579Z" fill="#FFCC00"/>
</g>
<g id="Group_83" opacity="0.7">
<path id="Vector_149" d="M127.28 30.0997C126.688 37.5177 120.506 39.7557 120.506 39.7557C120.052 40.8837 119.46 44.9857 119.46 44.9857H111.21C111.21 44.9857 110.618 40.8837 110.164 39.7557C110.164 39.7557 103.984 37.5197 103.39 30.0997C102.978 24.9457 106.65 17.3257 115.29 17.3237H115.38C124.02 17.3237 127.69 24.9437 127.28 30.0997Z" fill="#FFCC00"/>
</g>
<g id="Group_84">
<path id="Vector_150" d="M110.783 31.4954L110.193 31.6055L112.844 45.8079L113.434 45.6978L110.783 31.4954Z" fill="#263238"/>
<path id="Vector_151" d="M119.888 31.4915L117.239 45.6953L117.829 45.8053L120.477 31.6015L119.888 31.4915Z" fill="#263238"/>
<path id="Vector_152" d="M115.334 36.256C114.528 36.256 113.786 35.506 113.266 34.544C113.02 34.822 112.756 34.97 112.5 34.97C111.174 34.97 110.64 32.224 110.618 32.108L110.814 32.07C110.82 32.096 111.338 34.77 112.5 34.77C112.712 34.77 112.944 34.622 113.166 34.352C112.754 33.526 112.502 32.578 112.502 31.826C112.502 31.062 112.788 30.624 113.286 30.624C113.604 30.624 113.854 30.766 114.01 31.036C114.41 31.73 114.118 33.17 113.592 34.08C113.53 34.186 113.468 34.284 113.402 34.372C113.892 35.31 114.588 36.054 115.332 36.054C116.012 36.054 116.606 35.432 117.032 34.606C116.508 34.036 116.208 33.104 116.208 32.218C116.208 31.234 116.576 30.624 117.168 30.624C117.644 30.624 117.916 31.102 117.916 31.936C117.916 32.672 117.688 33.704 117.27 34.574C117.518 34.806 117.822 34.952 118.182 34.952C119.008 34.952 119.734 32.992 119.944 32.236L120.136 32.29C120.104 32.406 119.328 35.152 118.182 35.152C117.8 35.152 117.462 35.002 117.18 34.752C116.74 35.602 116.11 36.256 115.334 36.256ZM117.17 30.824C116.61 30.824 116.41 31.576 116.41 32.218C116.41 32.924 116.642 33.848 117.126 34.42C117.498 33.628 117.718 32.688 117.718 31.936C117.718 31.602 117.666 30.824 117.17 30.824ZM113.288 30.826C112.78 30.826 112.704 31.454 112.704 31.828C112.704 32.514 112.932 33.392 113.304 34.17C113.344 34.112 113.384 34.048 113.422 33.982C113.91 33.138 114.2 31.762 113.84 31.138C113.718 30.928 113.538 30.826 113.288 30.826Z" fill="#263238"/>
</g>
<g id="Group_85">
<path id="Vector_153" d="M120.984 44.9961H109.684V51.2161H120.984V44.9961Z" fill="#898989"/>
<g id="Group_86">
<path id="Vector_154" d="M119.704 51.2139C119.04 52.3919 117.766 53.4459 115.334 53.4459C112.904 53.4459 111.63 52.3919 110.964 51.2139H119.704Z" fill="#898989"/>
<path id="Vector_155" d="M119.704 51.2139C119.514 51.5499 119.274 51.8759 118.972 52.1699L111.192 51.5739C111.11 51.4559 111.034 51.3359 110.966 51.2139H119.704Z" fill="#A6A6A6"/>
</g>
<g id="Group_87">
<path id="Vector_156" d="M121.314 46.1822L109.354 47.2882V46.7442L121.314 45.6382V46.1822Z" fill="#A6A6A6"/>
<path id="Vector_157" d="M121.314 47.8243L109.354 48.9303V48.3863L121.314 47.2803V47.8243Z" fill="#A6A6A6"/>
<path id="Vector_158" d="M121.314 49.4644L109.354 50.5704V50.0284L121.314 48.9224V49.4644Z" fill="#A6A6A6"/>
</g>
</g>
<g id="Group_88" opacity="0.5">
<path id="Vector_159" d="M105.12 28.1637C105.534 28.2337 106.07 26.0957 108.37 23.6197C109.392 22.5197 113.266 21.1457 112.986 19.8757C112.706 18.6057 109.25 19.9117 107.512 21.9257C104.714 25.1677 104.74 28.0997 105.12 28.1637Z" fill="white"/>
<path id="Vector_160" d="M125.506 28.6078C126.268 28.6078 126.27 27.4238 125.506 27.4238C124.744 27.4238 124.744 28.6078 125.506 28.6078Z" fill="white"/>
<path id="Vector_161" d="M121.778 37.5157C122.194 37.8337 124.216 35.9677 125.128 33.7417C125.884 31.8937 126.016 29.5577 125.506 29.4217C124.998 29.2857 124.668 32.4917 124.056 33.6717C123.284 35.1617 121.332 37.1757 121.778 37.5157Z" fill="white"/>
</g>
</g>
</g>
</g>
</g>
<g id="Sparkles">
<g id="Group_89">
<path id="Vector_162" d="M102.526 18.5441L103.98 18.2761L104.304 16.7441L104.628 18.2761L106.082 18.5461L104.636 18.9001L104.304 20.3461L103.974 18.9001L102.526 18.5441Z" fill="#FF7900"/>
<path id="Vector_163" d="M125.944 44.0183L127.398 43.7503L127.724 42.2183L128.048 43.7503L129.502 44.0183L128.054 44.3723L127.724 45.8203L127.392 44.3723L125.944 44.0183Z" fill="#FF7900"/>
<path id="Vector_164" d="M106.694 40.8039L107.506 40.6539L107.686 39.7979L107.868 40.6539L108.68 40.8039L107.872 41.0018L107.686 41.8099L107.502 41.0018L106.694 40.8039Z" fill="#FF7900"/>
<path id="Vector_165" d="M111.114 14.5881L111.926 14.4381L112.108 13.5801L112.288 14.4381L113.102 14.5881L112.292 14.7861L112.108 15.5941L111.922 14.7861L111.114 14.5881Z" fill="#FF7900"/>
<path id="Vector_166" d="M107.686 44.8079C107.99 44.8079 107.99 44.3379 107.686 44.3379C107.384 44.3359 107.384 44.8079 107.686 44.8079Z" fill="#FF7900"/>
<path id="Vector_167" d="M130.606 41.8101C130.82 41.8101 130.82 41.4761 130.606 41.4761C130.392 41.4781 130.392 41.8101 130.606 41.8101Z" fill="#FF7900"/>
<path id="Vector_168" d="M106.804 20.0601C107.018 20.0601 107.018 19.7261 106.804 19.7261C106.59 19.7281 106.59 20.0601 106.804 20.0601Z" fill="#FF7900"/>
<path id="Vector_169" d="M133.982 22.5943C134.196 22.5943 134.196 22.2603 133.982 22.2603C133.768 22.2603 133.766 22.5943 133.982 22.5943Z" fill="#FF7900"/>
<path id="Vector_170" d="M131.848 24.1262C132.43 24.1262 132.43 23.2222 131.848 23.2222C131.268 23.2222 131.266 24.1262 131.848 24.1262Z" fill="#FF7900"/>
</g>
</g>
<g id="Box">
<g id="Group_90">
<path id="Vector_171" d="M140.882 70.7241H102.332V91.3821H140.882V70.7241Z" fill="#FCA56B"/>
<path id="Vector_172" opacity="0.2" d="M140.882 70.7241H102.332V91.3821H140.882V70.7241Z" fill="black"/>
<path id="Vector_173" opacity="0.2" d="M102.336 91.3848H116.928V70.7248H102.336V91.3848Z" fill="black"/>
<g id="Group_91">
<path id="Vector_174" d="M103.34 90.2199C104.42 88.7279 105.492 87.2319 106.552 85.7299L109.718 81.2159L112.844 76.6839C113.88 75.1699 114.906 73.6519 115.922 72.1279C114.842 73.6199 113.77 75.1159 112.71 76.6179L109.544 81.1319L106.418 85.6659C105.382 87.1779 104.356 88.6979 103.34 90.2199Z" fill="#FCA56B"/>
<path id="Vector_175" d="M103.34 72.1279C104.356 73.6519 105.382 75.1699 106.418 76.6839L109.544 81.2179L112.71 85.7319C113.77 87.2339 114.842 88.7299 115.922 90.2219C114.906 88.6979 113.88 87.1799 112.844 85.6659L109.718 81.1339L106.552 76.6199C105.492 75.1159 104.42 73.6199 103.34 72.1279Z" fill="#FCA56B"/>
</g>
<path id="Vector_176" d="M111.818 70.7241H107.386V75.5621H111.818V70.7241Z" fill="#565656"/>
<g id="Group_92">
<g id="Group_93">
<path id="Vector_177" d="M134.176 86.04H133.938V89.398H134.176V86.04Z" fill="#263238"/>
<path id="Vector_178" d="M134.748 86.04H134.51V89.398H134.748V86.04Z" fill="#263238"/>
<path id="Vector_179" d="M135.318 86.04H135.08V89.398H135.318V86.04Z" fill="#263238"/>
<path id="Vector_180" d="M135.89 86.04H135.652V89.398H135.89V86.04Z" fill="#263238"/>
<path id="Vector_181" d="M136.46 86.04H136.222V89.398H136.46V86.04Z" fill="#263238"/>
<path id="Vector_182" d="M137.032 86.04H136.794V89.398H137.032V86.04Z" fill="#263238"/>
<path id="Vector_183" d="M137.604 86.04H137.366V89.398H137.604V86.04Z" fill="#263238"/>
<path id="Vector_184" d="M138.174 86.04H137.936V89.398H138.174V86.04Z" fill="#263238"/>
<path id="Vector_185" d="M138.746 86.04H138.508V89.398H138.746V86.04Z" fill="#263238"/>
</g>
<path id="Vector_186" d="M131.602 89.142L132.518 89.396H130.368L131.284 89.138V87.904C130.628 87.818 130.368 87.172 130.368 86.04H132.518C132.518 87.168 132.258 87.818 131.602 87.904V89.142Z" fill="#263238"/>
<path id="Vector_187" d="M129.866 87.752H129.306V89.396H127.868V87.752H127.304L128.586 86.04L129.866 87.752Z" fill="#263238"/>
</g>
<path id="Vector_188" opacity="0.1" d="M140.884 91.3843V89.2883L116.928 85.4062V91.3823L140.884 91.3843Z" fill="black"/>
<g id="Group_94">
<path id="Vector_189" d="M98 65.5581H112.594L116.928 70.7241H102.332L98 65.5581Z" fill="#FCA56B"/>
<path id="Vector_190" opacity="0.2" d="M98 65.5581H112.594L116.928 70.7241H102.332L98 65.5581Z" fill="black"/>
</g>
<path id="Vector_191" d="M145.216 65.5581H130.622L126.29 70.7241H140.884L145.216 65.5581Z" fill="#FCA56B"/>
<path id="Vector_192" opacity="0.1" d="M145.216 65.5581H130.622L126.29 70.7241H140.884L145.216 65.5581Z" fill="black"/>
</g>
</g>
</g>
<defs>
<clipPath id="clip0_995_14592">
<rect width="150" height="100" fill="white"/>
</clipPath>
</defs>
</svg>
