<svg width="303" height="161" viewBox="0 0 303 161" fill="none" xmlns="http://www.w3.org/2000/svg">
<path d="M120.4 10.6239L137.51 13.0704L126.156 5.31299L125.579 7.80035L121.418 8.55546L120.4 10.6239Z" fill="#999999"/>
<path d="M137.51 13.0703L123.272 5.71185L109.317 5.00806L137.51 13.0703Z" fill="#EEEEEE"/>
<path d="M126.156 5.31278L137.51 13.0702L128.721 0.946533L126.156 5.31278Z" fill="#EEEEEE"/>
<path d="M216.075 44.4603L211.772 47.5561L207.446 44.4938C208.405 43.1417 209.987 42.2473 211.772 42.2473C213.545 42.2473 215.117 43.1187 216.075 44.4603Z" fill="#EEEEEE"/>
<path d="M211.772 34.7034C207.446 34.7034 203.622 36.8608 201.302 40.1578L204.034 42.0796C205.751 39.6435 208.583 38.0558 211.772 38.0558C214.939 38.0558 217.748 39.6205 219.464 42.023L222.185 40.0667C219.855 36.8158 216.053 34.7034 211.772 34.7034Z" fill="#EEEEEE"/>
<path d="M211.772 20.3638C202.619 20.3638 194.524 24.9238 189.619 31.8978L192.351 33.8196C196.654 27.7169 203.757 23.7162 211.773 23.7162C219.723 23.7162 226.78 27.6499 231.095 33.6741L233.804 31.7177C228.886 24.8452 220.848 20.3638 211.772 20.3638Z" fill="#EEEEEE"/>
<path d="M211.772 28.2102C205.261 28.2102 199.486 31.4401 195.973 36.3918L198.704 38.3147C201.614 34.2354 206.386 31.5637 211.771 31.5637C217.112 31.5637 221.85 34.1904 224.771 38.2141L227.48 36.2693C223.958 31.3836 218.228 28.2102 211.772 28.2102Z" fill="#EEEEEE"/>
<path d="M98.9204 71.2168L91.8736 155.209C91.8736 155.209 91.1349 160.3 94.9127 160.31C101.125 160.324 125.83 160.31 125.83 160.31C125.83 160.31 121.155 159.25 121.211 156.865C121.278 154.054 129.447 70.4219 129.447 70.4219L98.9204 71.2168Z" fill="#898888"/>
<path d="M127.835 158.786C126.613 158.789 103.016 158.863 96.9665 158.786C94.3306 158.753 93.8677 156.436 93.8458 154.937C93.8354 154.219 93.9263 153.686 93.9263 153.686L94.1091 151.504L94.5761 145.94L94.9888 141.023L95.5185 134.706L95.9646 129.374L100.971 69.6921L131.5 68.8982C131.5 68.8982 128.059 103.897 125.625 129.374C125.353 132.212 125.095 134.934 124.856 137.475C124.779 138.287 124.705 139.08 124.631 139.851C124.406 142.262 124.2 144.475 124.02 146.43C123.925 147.46 123.838 148.416 123.759 149.294C123.449 152.729 123.267 154.923 123.264 155.341C123.263 155.584 123.284 155.81 123.323 156.021C123.826 158.698 127.376 158.786 127.835 158.786Z" fill="#EEEEEE"/>
<path d="M24.7817 25.5115L41.9459 94.6267L44.2955 104.092L52.29 136.285H200.812L171.346 25.5115H24.7817Z" fill="#B2B2B2"/>
<path d="M24.781 25.5115L22.4021 26.3064L49.1278 138.689L52.2903 136.285L24.781 25.5115Z" fill="#898888"/>
<path d="M49.1277 138.689H196.736L200.812 136.284H52.2901L49.1277 138.689Z" fill="#898888"/>
<path d="M100.964 160.341H132.922V158.819H100.964V160.341Z" fill="#666666"/>
<path d="M193.617 115.873L169.518 26.9767H24.5437V25.5115H171.347L195.365 115.676L193.617 115.873Z" fill="#F1A34F"/>
<path d="M124.798 138.688L124.633 139.852L94.5769 145.939L94.9896 141.023L95.186 138.688H124.798Z" fill="#898888"/>
<path opacity="0.4" d="M127.835 158.786C126.613 158.789 103.016 158.863 96.9666 158.786C94.3307 158.753 93.8679 156.436 93.8459 154.937L123.76 149.295C123.45 152.73 123.268 154.924 123.265 155.342C123.264 155.585 123.285 155.812 123.325 156.022C123.826 158.698 127.376 158.786 127.835 158.786Z" fill="#898888"/>
<path opacity="0.4" d="M117.534 113.859L52.2901 136.284L44.2957 104.092L117.534 113.859Z" fill="#404040"/>
<path d="M24.781 25.5115H171.347L195.127 114.538H46.1357L24.781 25.5115Z" fill="#999999"/>
<path d="M130.488 125.791C130.065 123.608 127.956 121.838 125.778 121.838C123.6 121.838 122.178 123.608 122.601 125.791C123.024 127.975 125.134 129.745 127.311 129.745C129.489 129.745 130.912 127.975 130.488 125.791Z" fill="#898888"/>
<path d="M188.215 110.68H50.9851L35.4434 48.6181L34.2534 43.8592L33.2359 39.7998L32.423 36.5489L30.8528 30.2808H166.104L166.199 30.6253L167.827 36.5489L168.721 39.7998L169.838 43.8592L171.147 48.6181L188.215 110.68Z" fill="#FAFAFA"/>
<path d="M188.215 110.892H50.9851L35.4434 48.8296L34.2534 44.0706L33.2359 40.0112L32.423 36.7614L30.8528 30.4922H166.104L166.199 30.8368L167.827 36.7614L168.721 40.0112L169.838 44.0706L171.147 48.8296L188.215 110.892Z" fill="#FAFAFA"/>
<path d="M167.827 36.5489H32.423L30.8528 30.2808H166.053L166.199 30.6253L167.827 36.5489Z" fill="#EEEEEE"/>
<path d="M34.6151 33.4141C34.4521 32.7574 34.8502 32.2244 35.5063 32.2244C36.1624 32.2244 36.8258 32.7574 36.9888 33.4141C37.1518 34.0708 36.7537 34.6039 36.0976 34.6039C35.4415 34.6039 34.7781 34.0718 34.6151 33.4141Z" fill="#FAFAFA"/>
<path d="M40.7532 34.3117C41.1363 33.8769 40.9957 33.1249 40.4391 32.6321C39.8825 32.1393 39.1208 32.0923 38.7376 32.5271C38.3545 32.962 38.4951 33.714 39.0517 34.2068C39.6083 34.6996 40.3701 34.7466 40.7532 34.3117Z" fill="#FAFAFA"/>
<path d="M42.8058 33.4141C42.6428 32.7574 43.0409 32.2244 43.697 32.2244C44.3531 32.2244 45.0165 32.7574 45.1795 33.4141C45.3424 34.0708 44.9444 34.6039 44.2883 34.6039C43.6322 34.6039 42.9698 34.0718 42.8058 33.4141Z" fill="#FAFAFA"/>
<path d="M93.7333 110.892H80.1641C80.0335 109.829 79.9197 108.706 79.8162 107.534C79.6344 105.431 79.4944 103.169 79.3921 100.816C79.367 100.274 79.3461 99.7259 79.3262 99.175C79.3001 98.4733 79.2782 97.7632 79.2573 97.05C79.2239 95.8383 79.1977 94.6129 79.1789 93.3802C79.1779 93.3792 79.1779 93.3771 79.1779 93.376C79.1539 91.804 79.1424 90.2215 79.1392 88.6453C79.1392 88.6443 79.1392 88.6443 79.1392 88.6443C79.1382 88.2505 79.1382 87.8578 79.1382 87.465V87.464C79.1382 87.0943 79.1392 86.7267 79.1403 86.3591C79.1518 82.9658 79.203 79.6374 79.275 76.5426C79.4307 69.6953 79.6846 63.9895 79.8194 61.2466V61.2456C79.8737 60.1197 79.9092 59.4934 79.9092 59.4934C79.9103 59.4934 79.9113 59.4945 79.9123 59.4945C79.9426 59.4997 80.1485 59.5374 80.4723 59.6149C80.7095 59.6725 81.0114 59.7521 81.3541 59.8579H81.3551C81.6644 59.9511 82.0071 60.0673 82.3665 60.2035C82.3675 60.2035 82.3685 60.2035 82.3696 60.2045C82.9808 60.4402 83.64 60.7418 84.2595 61.1199C84.2689 61.1251 84.2783 61.1293 84.2878 61.1345C85.3012 61.765 86.2164 62.6008 86.6332 63.7046C86.9916 64.642 87.8294 69.6806 88.8429 76.3729C88.8711 76.5635 88.8993 76.7563 88.9296 76.95C89.4655 80.5035 90.0443 84.4907 90.6262 88.5626C91.2426 92.8775 91.858 97.2836 92.4243 101.367C92.909 104.868 93.3572 108.132 93.7333 110.892Z" fill="#282828"/>
<path d="M89.9334 110.892H74.1389C73.8359 109.586 73.5528 108.326 73.301 107.144C72.6073 103.887 72.1507 101.217 72.1758 99.7835C72.1873 99.1112 72.4412 98.5854 72.8758 98.1811C73.1735 97.9036 73.5569 97.6837 74.0072 97.5119C75.3393 97.005 77.2543 96.9212 79.2581 97.05C79.9393 97.093 80.6299 97.159 81.3111 97.2417C85.0648 97.6983 88.5501 98.6294 88.5501 98.6294C88.5501 98.6294 88.7831 99.5741 89.0589 101.226C89.2658 102.465 89.4967 104.103 89.668 106.037C89.7673 107.161 89.8477 108.385 89.8926 109.69C89.9041 110.082 89.9177 110.483 89.9334 110.892Z" fill="#1A1A1A"/>
<path d="M82.6389 99.8024L82.4811 100.946L81.7164 106.5L81.5858 107.448L81.1115 110.891H64.6525C64.525 108.616 64.407 106.398 64.384 104.465C64.3819 104.25 64.3809 104.041 64.3809 103.835C64.3809 100.923 64.6358 98.7645 65.4684 98.2199C66.4119 97.602 69.5419 97.7717 72.8747 98.1812C73.2069 98.221 73.5412 98.265 73.8766 98.31C75.8188 98.5718 77.763 98.8954 79.326 99.174C80.1367 99.3186 80.8451 99.4516 81.3967 99.5573C82.174 99.7071 82.6389 99.8024 82.6389 99.8024Z" fill="#C65447"/>
<path d="M64.3809 62.3556C64.3809 62.3556 73.4232 56.4938 79.91 59.4923C80.9433 59.9699 82.1228 61.3031 82.9669 62.2352C85.3114 64.8252 89.8926 105.963 89.8926 105.963C89.8926 105.963 76.8886 110.378 64.3819 104.464V62.3556H64.3809Z" fill="#FAFAFA"/>
<path d="M80.4238 59.3435C80.4238 59.3435 89.5779 63.1044 90.818 65.9939C92.0582 68.8835 96.0877 86.6291 96.0877 88.7101C96.0877 90.7911 89.0712 89.1751 87.9418 85.8195C87.0037 83.0326 83.8402 74.4709 82.1717 69.0563L80.4238 59.3435Z" fill="#282828"/>
<path d="M78.5226 62.2092C76.524 62.6019 73.5883 62.183 71.4392 60.7628C72.4098 58.4399 72.8078 56.605 72.9489 55.4174C72.9572 55.3545 72.9635 55.2927 72.9698 55.2341C73.0335 54.6183 73.0241 54.2014 72.9948 54.0098H78.1611C78.1611 54.0098 79.5736 54.657 79.5736 55.1042C79.5736 55.343 79.5757 55.5724 79.5799 55.7912C79.5903 56.3872 79.6144 56.9066 79.6447 57.3538C79.7429 58.8075 79.909 59.4914 79.909 59.4914C79.909 59.4914 80.5411 61.8122 78.5226 62.2092Z" fill="#FFB27D"/>
<path d="M79.6448 57.3546C75.7302 58.1129 73.4578 55.969 72.9491 55.4182C72.877 55.3396 72.8394 55.2925 72.8394 55.2925C72.8811 55.2715 72.924 55.2527 72.9699 55.2349C74.4274 54.6431 77.734 55.1134 79.5801 55.7921C79.5905 56.388 79.6135 56.9074 79.6448 57.3546Z" fill="#E2915A"/>
<path d="M71.67 53.159C72.3689 56.9325 77.227 56.8089 79.3259 56.5712C79.9162 56.5052 80.2881 56.4298 80.2881 56.4298C80.9547 56.2518 81.3256 55.1992 81.499 53.822C81.8417 51.0958 81.4092 47.093 80.9495 46.0698C80.2578 44.5292 78.955 42.864 74.0635 44.0652C69.171 45.2686 70.7726 48.3236 71.67 53.159Z" fill="#FFB27D"/>
<path d="M81.1314 43.965C80.4627 43.0371 79.045 41.9029 77.7579 41.2054C74.9914 39.7056 71.4518 41.2525 71.4372 41.2588C67.442 43.0193 66.3983 46.0837 68.516 50.8574C70.756 55.9054 72.8894 55.3367 72.8894 55.3367C72.8894 55.3367 72.437 55.054 72.4777 53.4809C72.4798 53.3919 72.484 53.3165 72.4882 53.2526C72.5091 52.93 72.3952 52.6074 72.1549 52.3917C71.6586 51.9476 71.4163 50.605 71.8321 50.2311C72.3336 49.7797 73.0377 50.3274 73.2634 50.7495C73.4598 51.047 73.8119 51.1517 74.1399 50.9433C75.3832 50.1557 74.5756 48.5784 75.7635 47.6149C76.9513 46.6503 79.3626 47.4599 81.146 46.6922C83.4789 45.8209 81.636 44.6646 81.1314 43.965Z" fill="#1A1A1A"/>
<path d="M81.774 110.892H62.0847C62.2258 106.799 62.4065 101.913 62.5966 96.9652C62.6447 95.6822 62.6959 94.3941 62.746 93.1163C62.769 92.5749 62.7889 92.0366 62.8098 91.4982C63.2444 80.5109 63.6769 70.5887 63.7678 70.0535C63.9747 68.8449 64.17 67.8143 64.3811 66.921C64.9996 64.3184 65.7685 62.8909 67.4443 61.6635C67.6073 61.5388 68.9487 60.8623 70.1293 60.2716C71.0946 59.7919 71.9524 59.3719 71.9785 59.3604V59.3594H71.9795C72.1749 59.4547 72.3901 59.727 72.6168 60.1312C72.8435 60.5355 73.0828 61.0738 73.3273 61.7022C74.2268 64.0199 75.1994 67.5661 75.8743 70.2148C75.8754 70.2179 75.8764 70.2211 75.8764 70.2231C75.8775 70.2252 75.8775 70.2263 75.8775 70.2284C75.8775 70.2294 75.8775 70.2294 75.8775 70.2294C76.3121 71.9397 76.6245 73.2708 76.7133 73.6541C76.8648 74.2993 77.0633 75.5466 77.2983 77.237V77.2412C77.6159 79.5463 77.9962 82.6746 78.3985 86.225V86.2261C78.4402 86.5916 78.481 86.9602 78.5228 87.332C78.5698 87.7572 78.6189 88.1877 78.667 88.6223V88.6234C78.6826 88.7627 78.6973 88.903 78.7119 89.0433V89.0444C78.8665 90.4499 79.0232 91.8994 79.1778 93.375C79.1778 93.3761 79.1778 93.3782 79.1789 93.3792C79.3116 94.5951 81.1514 95.4759 81.2788 96.7149C81.2882 96.805 81.2976 96.9872 81.3091 97.2406C81.3332 97.7643 81.3614 98.5959 81.3958 99.5573C81.4105 99.9846 81.4251 100.439 81.4418 100.902C81.5139 102.962 81.6027 105.219 81.703 106.304C81.7082 106.355 81.7124 106.42 81.7155 106.5C81.727 106.717 81.7364 107.036 81.7448 107.436C81.7626 108.288 81.7709 109.506 81.774 110.892Z" fill="#282828"/>
<path d="M68.3425 74.4836C68.3362 74.5088 68.029 85.5946 76.3473 86.9404C84.6656 88.2872 79.1389 88.6433 79.1389 88.6433C79.1389 88.6433 63.4875 87.9762 63.2295 87.5625C62.9714 87.1477 68.3425 74.4836 68.3425 74.4836Z" fill="#1A1A1A"/>
<path d="M75.3704 91.6993C75.3704 91.6993 75.2148 91.8103 74.9149 92.0041C74.9097 92.0062 74.9045 92.0103 74.8992 92.0135C73.6299 92.8251 69.8636 95.0392 64.3797 96.5232C63.804 96.6793 63.2085 96.828 62.5963 96.9641C62.6443 95.6822 62.6955 94.394 62.7446 93.1163C62.0206 93.0597 61.3269 92.9676 60.6833 92.8304C60.7053 92.6618 60.7283 92.4932 60.7492 92.3235C61.4471 92.0365 62.1397 91.76 62.8084 91.4982C63.3527 91.2846 63.8803 91.0814 64.3786 90.8929C66.6311 90.0351 68.3006 89.4539 68.3006 89.4539L74.9682 91.5715L75.3704 91.6993Z" fill="#1A1A1A"/>
<path d="M77.1353 91.5138C77.1353 91.5138 76.2786 91.7285 74.9152 92.004C74.9099 92.004 74.9058 92.005 74.9005 92.0071C72.3858 92.514 68.1567 93.2241 64.3799 93.1854C63.8231 93.1791 63.2756 93.1571 62.7449 93.1162C62.0209 93.0597 61.3272 92.9675 60.6836 92.8303C59.3035 92.5381 58.147 92.0438 57.3906 91.2709C51.7719 85.5347 60.4569 64.9456 62.2821 62.9421C64.4134 60.6035 68.304 59.7824 70.453 59.5007C70.5429 59.4891 70.6286 59.4776 70.7122 59.4671C71.4675 59.3771 71.9523 59.3582 71.9794 59.3572C71.9805 59.3572 71.9805 59.3572 71.9805 59.3572C71.9805 59.3572 71.8123 59.8997 71.5302 60.8213C71.4205 61.1774 71.293 61.5911 71.1541 62.0519C69.8346 66.3836 67.2885 74.8972 66.1664 79.6991C65.7548 81.4565 65.5354 82.7154 65.6357 83.0914C66.0735 84.7315 70.6129 85.5745 73.4891 85.9474C74.6885 86.1024 75.5995 86.1767 75.8022 86.1914C75.8168 86.1914 75.8304 86.1925 75.845 86.1945L76.0111 86.8784L76.4092 88.5185L76.8009 90.1293L77.1353 91.5138Z" fill="#282828"/>
<path d="M92.8055 101.383L73.51 100.568L77.4247 76.4631L96.7201 77.2779L92.8055 101.383Z" fill="#F99746"/>
<path d="M75.8439 86.1958C75.8439 86.1958 79.5998 85.933 79.7879 86.8106C80.2267 88.856 76.5586 90.5359 75.3707 90.4217C74.1828 90.3076 74.9799 86.0597 75.8439 86.1958Z" fill="#FFB27D"/>
<path d="M95.6649 82.1728C95.6649 82.1728 92.0709 81.047 91.6854 81.8566C90.7859 83.7449 93.9671 86.2301 95.1498 86.3935C96.3324 86.5569 96.5372 82.2399 95.6649 82.1728Z" fill="#FFB27D"/>
<path d="M72.3704 58.1487C72.3704 58.1487 70.7908 58.9038 69.9978 60.0433C69.9978 60.0433 75.9048 70.3237 75.8776 70.2273C75.8515 70.1299 73.8811 59.4652 72.3704 58.1487Z" fill="#1A1A1A"/>
<path d="M79.7263 58.293C80.2466 58.4899 81.2443 59.5141 81.469 60.0807L82.171 69.0551C82.171 69.0551 80.6718 62.4686 79.9091 59.4911C79.7159 58.7349 79.7514 58.5056 79.7263 58.293Z" fill="#1A1A1A"/>
<path d="M83.8208 76.7333C83.8208 76.7333 83.9733 76.0641 84.852 76.1426C85.7306 76.2201 90.6649 76.4631 90.6649 76.4631C90.6649 76.4631 91.6167 76.4474 91.5279 77.059L83.8208 76.7333Z" fill="#C65447"/>
<path d="M78.1611 54.0108C78.1611 54.0108 78.8016 54.5962 79.8348 54.4151C80.4481 54.3072 80.7908 53.5091 80.7908 53.5091C80.7908 53.5091 79.6133 53.2955 78.1611 54.0108Z" fill="#FAFAFA"/>
<path d="M169.59 61.5114L155.338 61.5649L150.716 43.8265L164.968 43.7742L169.59 61.5114Z" fill="#EEEEEE"/>
<path d="M161.434 46.1054L155.458 46.1274L155.389 45.8651L161.365 45.843L161.434 46.1054Z" fill="#898888"/>
<path d="M162.388 46.8357L154.885 46.863L154.817 46.5996L162.32 46.5723L162.388 46.8357Z" fill="#898888"/>
<path d="M164.451 50.4445L154.705 50.4812L154.637 50.2178L164.382 50.1821L164.451 50.4445Z" fill="#898888"/>
<path d="M164.677 51.3096L154.93 51.3463L154.862 51.0829L164.608 51.0461L164.677 51.3096Z" fill="#898888"/>
<path d="M164.902 52.1746L155.156 52.2102L155.087 51.9479L164.834 51.9111L164.902 52.1746Z" fill="#898888"/>
<path d="M165.127 53.0398L155.382 53.0755L155.313 52.8131L165.058 52.7764L165.127 53.0398Z" fill="#898888"/>
<path d="M165.353 53.9037L155.606 53.9405L155.538 53.677L165.284 53.6414L165.353 53.9037Z" fill="#898888"/>
<path d="M165.902 56.0088L156.155 56.0455L156.087 55.7821L165.833 55.7454L165.902 56.0088Z" fill="#898888"/>
<path d="M166.126 56.8738L156.38 56.9095L156.312 56.6471L166.058 56.6104L166.126 56.8738Z" fill="#898888"/>
<path d="M166.351 57.7388L156.606 57.7744L156.537 57.511L166.283 57.4753L166.351 57.7388Z" fill="#898888"/>
<path d="M166.577 58.603L156.831 58.6397L156.763 58.3763L166.508 58.3406L166.577 58.603Z" fill="#898888"/>
<path d="M166.802 59.4679L157.057 59.5047L156.989 59.2412L166.734 59.2056L166.802 59.4679Z" fill="#898888"/>
<path d="M175.333 83.5535L161.081 83.6059L156.459 65.8686L170.711 65.8152L175.333 83.5535Z" fill="#EEEEEE"/>
<path d="M167.177 68.147L161.201 68.169L161.132 67.9056L167.109 67.8835L167.177 68.147Z" fill="#898888"/>
<path d="M168.131 68.8757L160.629 68.9041L160.56 68.6406L168.063 68.6123L168.131 68.8757Z" fill="#898888"/>
<path d="M170.194 72.4858L160.449 72.5215L160.38 72.2591L170.126 72.2224L170.194 72.4858Z" fill="#898888"/>
<path d="M170.42 73.3511L160.674 73.3868L160.606 73.1233L170.351 73.0876L170.42 73.3511Z" fill="#898888"/>
<path d="M170.644 74.215L160.899 74.2517L160.831 73.9883L170.576 73.9526L170.644 74.215Z" fill="#898888"/>
<path d="M170.87 75.0802L161.125 75.117L161.056 74.8536L170.802 74.8179L170.87 75.0802Z" fill="#898888"/>
<path d="M171.096 75.9451L161.349 75.9807L161.281 75.7184L171.027 75.6816L171.096 75.9451Z" fill="#898888"/>
<path d="M171.644 78.0503L161.898 78.086L161.83 77.8226L171.575 77.7869L171.644 78.0503Z" fill="#898888"/>
<path d="M171.869 78.9142L162.123 78.951L162.055 78.6875L171.801 78.6519L171.869 78.9142Z" fill="#898888"/>
<path d="M172.095 79.7795L162.349 79.8162L162.281 79.5528L172.027 79.5171L172.095 79.7795Z" fill="#898888"/>
<path d="M172.32 80.6448L162.574 80.6805L162.506 80.4181L172.251 80.3813L172.32 80.6448Z" fill="#898888"/>
<path d="M172.545 81.5098L162.799 81.5454L162.731 81.2831L172.477 81.2463L172.545 81.5098Z" fill="#898888"/>
<path d="M181.116 105.743L166.862 105.795L162.24 88.058L176.494 88.0046L181.116 105.743Z" fill="#EEEEEE"/>
<path d="M172.958 90.3364L166.983 90.3585L166.914 90.095L172.891 90.073L172.958 90.3364Z" fill="#898888"/>
<path d="M173.912 91.0654L166.41 91.0938L166.341 90.8303L173.844 90.802L173.912 91.0654Z" fill="#898888"/>
<path d="M175.976 94.6753L166.23 94.711L166.161 94.4486L175.908 94.4119L175.976 94.6753Z" fill="#898888"/>
<path d="M176.202 95.5405L166.455 95.5762L166.387 95.3128L176.133 95.2771L176.202 95.5405Z" fill="#898888"/>
<path d="M176.427 96.4045L166.68 96.4412L166.613 96.1778L176.358 96.1421L176.427 96.4045Z" fill="#898888"/>
<path d="M176.652 97.2695L166.906 97.3062L166.837 97.0428L176.584 97.0071L176.652 97.2695Z" fill="#898888"/>
<path d="M176.877 98.1345L167.132 98.1702L167.063 97.9078L176.808 97.8711L176.877 98.1345Z" fill="#898888"/>
<path d="M177.426 100.24L167.681 100.275L167.612 100.012L177.357 99.9763L177.426 100.24Z" fill="#898888"/>
<path d="M177.652 101.104L167.905 101.141L167.837 100.877L177.583 100.842L177.652 101.104Z" fill="#898888"/>
<path d="M177.876 101.969L168.13 102.006L168.062 101.742L177.808 101.707L177.876 101.969Z" fill="#898888"/>
<path d="M178.102 102.834L168.356 102.87L168.287 102.607L178.033 102.571L178.102 102.834Z" fill="#898888"/>
<path d="M178.328 103.699L168.581 103.735L168.513 103.473L178.259 103.436L178.328 103.699Z" fill="#898888"/>
<path d="M162.375 105.893L112.526 106.077L98.1797 51.0166L104.673 44.007L146.21 43.853L162.375 105.893Z" fill="#EEEEEE"/>
<path d="M132.479 53.1586L114.91 53.2235L114.708 52.4517L132.277 52.3867L132.479 53.1586Z" fill="#898888"/>
<path d="M135.284 55.3021L113.226 55.3828L113.025 54.612L135.082 54.5303L135.284 55.3021Z" fill="#898888"/>
<path d="M141.348 65.9137L112.698 66.0195L112.497 65.2487L141.147 65.1418L141.348 65.9137Z" fill="#898888"/>
<path d="M142.011 68.4564L113.361 68.5622L113.159 67.7903L141.809 67.6846L142.011 68.4564Z" fill="#898888"/>
<path d="M142.673 70.9984L114.023 71.1052L113.823 70.3333L142.472 70.2275L142.673 70.9984Z" fill="#898888"/>
<path d="M143.336 73.5412L114.686 73.6469L114.485 72.8761L143.134 72.7693L143.336 73.5412Z" fill="#898888"/>
<path d="M143.998 76.0844L115.348 76.1901L115.147 75.4183L143.798 75.3125L143.998 76.0844Z" fill="#898888"/>
<path d="M145.61 82.2704L116.96 82.3762L116.76 81.6054L145.41 81.4985L145.61 82.2704Z" fill="#898888"/>
<path d="M146.272 84.8134L117.622 84.9192L117.422 84.1473L146.072 84.0415L146.272 84.8134Z" fill="#898888"/>
<path d="M146.935 87.3553L118.285 87.4621L118.084 86.6903L146.734 86.5845L146.935 87.3553Z" fill="#898888"/>
<path d="M147.597 89.8981L118.948 90.0039L118.747 89.232L147.397 89.1262L147.597 89.8981Z" fill="#898888"/>
<path d="M148.26 92.4411L119.611 92.5468L119.409 91.775L148.059 91.6692L148.26 92.4411Z" fill="#898888"/>
<path d="M98.1797 51.0165L106.492 50.9861L104.673 44.0068L98.1797 51.0165Z" fill="#898888"/>
<path d="M218.245 149.074H177.663V134.706H218.375C221.54 134.706 224.106 137.278 224.106 140.451V143.2C224.106 146.443 221.482 149.074 218.245 149.074Z" fill="#FCECDB"/>
<path d="M258.744 140.617V142.779C258.744 143.934 258.434 145.016 257.892 145.945C256.805 147.815 254.781 149.073 252.464 149.073H176.419C175.915 149.073 175.508 148.664 175.508 148.161V147.837C175.508 147.333 175.915 146.925 176.419 146.925H222.775C223.023 146.622 223.241 146.294 223.426 145.945C223.861 145.125 224.105 144.19 224.105 143.197V140.449C224.105 139.943 224.04 139.453 223.917 138.987C223.709 138.197 223.338 137.472 222.842 136.854H176.419C175.915 136.854 175.508 136.445 175.508 135.941V135.618C175.508 135.113 175.915 134.705 176.419 134.705H252.846C255.539 134.705 257.811 136.515 258.516 138.987C258.665 139.506 258.744 140.052 258.744 140.617Z" fill="#282828"/>
<path d="M258.517 138.989H223.918C223.711 138.198 223.34 137.473 222.843 136.855H176.42C175.916 136.855 175.509 136.447 175.509 135.942V135.619C175.509 135.115 175.916 134.706 176.42 134.706H252.848C255.541 134.706 257.812 136.516 258.517 138.989Z" fill="#282828"/>
<path d="M177.663 141.889L183.294 142.132L177.663 142.278V141.889Z" fill="#F4D2B8"/>
<path d="M177.663 144.144L191.059 144.386L177.663 144.532V144.144Z" fill="#F4D2B8"/>
<path d="M187.342 160.22H230.542V149.044H186.991C184.009 149.044 181.591 151.467 181.591 154.456C181.592 157.639 184.166 160.22 187.342 160.22Z" fill="#1A1A1A"/>
<path d="M228.062 160.22H277.228V149.044H227.937C224.905 149.044 222.448 151.507 222.448 154.546V154.591C222.448 157.7 224.962 160.22 228.062 160.22Z" fill="#FCECDB"/>
<path d="M219.165 160.219H278.936C279.396 160.219 279.769 159.845 279.769 159.384C279.769 158.922 279.396 158.548 278.936 158.548H219.165C218.705 158.548 218.332 158.922 218.332 159.384C218.332 159.845 218.705 160.219 219.165 160.219Z" fill="#1A1A1A"/>
<path d="M219.165 150.715H278.936C279.396 150.715 279.769 150.341 279.769 149.879C279.769 149.418 279.396 149.044 278.936 149.044H219.165C218.705 149.044 218.332 149.418 218.332 149.879C218.332 150.341 218.705 150.715 219.165 150.715Z" fill="#1A1A1A"/>
<path d="M277.228 154.632L270.587 154.82L277.228 154.934V154.632Z" fill="#F4D2B8"/>
<path d="M277.229 152.06L261.428 152.248L277.229 152.361V152.06Z" fill="#F4D2B8"/>
<path d="M261.591 152.209C261.591 152.209 262.268 152.689 262.492 153.479C262.532 153.617 262.557 153.765 262.562 153.921C262.6 154.969 262.562 157.342 262.562 157.342L264.561 156.156L266.554 157.342V154.126C266.554 153.518 266.383 152.926 266.065 152.538C265.912 152.351 265.725 152.209 265.513 152.209H261.591Z" fill="#FF7900"/>
<path d="M261.591 152.209C261.591 152.209 262.268 152.689 262.492 153.479L266.499 153.526C266.499 153.526 266.342 152.396 265.515 152.209H261.591Z" fill="#ED7D2B"/>
<path d="M223.034 134.736H267.173V118.317H222.889C219.355 118.317 216.489 121.189 216.489 124.732V128.175C216.489 131.799 219.419 134.736 223.034 134.736Z" fill="#FCECDB"/>
<path d="M217.528 124.687V128.221C217.538 129.73 218.372 131.039 219.596 131.74C220.199 132.083 220.896 132.28 221.637 132.28H269.57C270.132 132.28 270.587 132.737 270.587 133.3V133.717C270.587 134.281 270.132 134.737 269.57 134.737H186.764C184.388 134.737 182.288 133.554 181.02 131.741C180.221 130.599 179.75 129.209 179.75 127.707V124.919C179.75 123.89 179.986 122.916 180.405 122.048C181.469 119.84 183.725 118.318 186.336 118.318H269.57C270.132 118.318 270.587 118.773 270.587 119.337V119.753C270.587 120.317 270.132 120.774 269.57 120.774H221.489C220.34 120.774 219.3 121.264 218.573 122.048C217.931 122.741 217.534 123.667 217.528 124.687Z" fill="#FF7900"/>
<path d="M267.173 126.526L261.027 126.802L267.173 126.969V126.526Z" fill="#F4D2B8"/>
<path d="M267.173 122.748L252.554 123.024L267.173 123.191V122.748Z" fill="#F4D2B8"/>
<path d="M252.704 122.969C252.704 122.969 253.668 123.489 253.988 124.345C254.045 124.495 254.081 124.655 254.088 124.824C254.142 125.961 254.088 128.534 254.088 128.534L256.936 127.247L259.777 128.534V125.047C259.777 124.387 259.534 123.746 259.08 123.326C258.861 123.123 258.594 122.969 258.294 122.969H252.704Z" fill="#F99746"/>
<path d="M252.704 122.969C252.704 122.969 253.668 123.489 253.988 124.345L259.697 124.396C259.697 124.396 259.473 123.171 258.295 122.969H252.704Z" fill="#ED7D2B"/>
<path d="M223.802 112.229C226.328 116.637 229.506 118.338 229.506 118.338H242.727C242.726 118.338 221.875 108.866 223.802 112.229Z" fill="#1A1A1A"/>
<path d="M233.955 146.334C234.3 146.73 234.344 147.171 234.174 147.644C234.174 147.646 234.172 147.648 234.17 147.65C233.855 148.524 232.813 149.499 231.603 150.473C231.449 150.597 231.311 150.711 231.192 150.817C231.16 150.844 231.129 150.873 231.1 150.9C231.076 150.921 231.052 150.944 231.029 150.964C229.901 152.007 230.325 152.246 228.298 154.361C225.987 156.772 224.395 156.815 223.942 156.596C223.559 156.409 224.337 155.13 225.2 153.693C225.242 153.624 225.283 153.554 225.326 153.484C225.44 153.293 225.554 153.098 225.668 152.907C226.679 151.176 226.419 150.366 226.179 147.792C225.985 145.7 222.933 136.106 222.933 136.106L227.363 135.341C227.363 135.341 228.697 142.981 230.167 144.157C230.953 144.785 231.832 144.792 232.588 145.257C232.641 145.289 232.693 145.322 232.744 145.357C233.173 145.642 233.609 145.937 233.955 146.334Z" fill="#FFB27D"/>
<path d="M233.955 146.334C234.3 146.73 234.344 147.172 234.173 147.644C234.173 147.646 234.172 147.648 234.17 147.65C233.784 148.523 232.768 149.493 231.599 150.464C231.447 150.591 231.312 150.708 231.192 150.817C231.16 150.844 231.129 150.873 231.1 150.9C231.076 150.921 231.052 150.944 231.029 150.964C229.9 152.007 230.325 152.246 228.298 154.361C225.987 156.772 224.395 156.815 223.942 156.596C223.559 156.409 224.337 155.13 225.2 153.693C225.65 153.528 227.74 152.677 229.321 150.65C230.712 148.869 231.641 146.582 232.589 145.257C232.642 145.29 232.694 145.322 232.745 145.357C233.173 145.642 233.609 145.937 233.955 146.334Z" fill="#1A1A1A"/>
<path d="M198.238 143.56C197.965 144.931 196.016 144.702 193.839 144.168C191.662 143.635 192.179 144.269 189.08 143.926C185.981 143.582 185.042 142.424 184.948 141.962C184.864 141.552 186.395 141.408 188.037 141.218C188.244 141.195 188.451 141.169 188.659 141.144C190.514 140.91 191.872 139.711 193.556 138.726C195.151 137.792 197.532 133.991 197.532 133.991L201.782 134.328C201.782 134.328 199.552 137.723 198.69 139.2C198.182 140.068 198.209 141.216 198.273 142.103C198.304 142.585 198.336 143.077 198.238 143.56Z" fill="#FFB27D"/>
<path d="M193.839 144.169C191.662 143.636 192.179 144.27 189.08 143.926C185.981 143.583 185.042 142.424 184.948 141.962C184.864 141.553 186.395 141.408 188.037 141.219L188.053 141.25C188.053 141.25 189.912 142.571 192.491 142.633C194.593 142.684 196.821 142.08 198.273 142.104C198.306 142.585 198.338 143.079 198.241 143.562C197.965 144.931 196.016 144.702 193.839 144.169Z" fill="#1A1A1A"/>
<path d="M214.525 116.319L218.498 127.036L223.685 141.029C223.685 141.029 225.093 141.165 226.441 140.777C227.682 140.417 229.106 139.476 229.106 139.476C229.106 139.476 227.666 124.451 224.98 115.826C224.291 113.612 223.519 111.821 222.668 110.814C218.502 105.879 214.525 116.319 214.525 116.319Z" fill="#1A1A1A"/>
<path d="M218.565 99.2989C221.168 98.4569 228.591 99.5377 236.049 101.001L237.611 98.4192L253.718 97.1582C253.718 97.1582 259.033 108.974 256.123 116.503C255.695 117.61 254.845 118.319 253.397 118.343C253.397 118.344 253.162 118.342 253.162 118.343C253.162 118.343 243.575 118.338 240.462 118.338C232.452 118.338 223.509 112.818 222.352 112.586C220.459 112.207 219.702 116.002 217.808 119.989C215.915 123.975 200.009 137.641 200.009 137.641C200.009 137.641 197.565 137.665 196.555 137.286C195.47 136.878 195.072 136.348 195.072 136.348C195.072 136.348 212.695 101.197 218.565 99.2989Z" fill="#1A1A1A"/>
<path d="M237.705 76.1825C243.44 79.3485 255.077 85.912 255.137 85.8691C255.137 85.8691 259.414 87.4851 261.84 85.8691C265.885 83.1764 268.053 75.9311 260.658 69.6954C256.97 66.586 254.348 65.8288 253.95 60.8624C253.734 58.1687 250.061 49.277 243.957 50.1002C243.448 50.1693 240.308 50.316 238.245 51.402C232.985 54.1701 229.105 74.9571 237.705 76.1825Z" fill="#1A1A1A"/>
<path d="M242.512 73.488C242.487 73.5047 245.333 74.4787 247.238 73.6336C249.029 72.8397 250.386 69.8863 250.36 69.8842C249.545 69.8465 248.651 69.1322 247.961 64.4465L247.614 64.5712L241.78 66.6752C241.78 66.6752 242.203 68.552 242.476 70.3377C242.707 71.8385 242.83 73.2754 242.512 73.488Z" fill="#FFB27D"/>
<path d="M241.78 66.6759C241.78 66.6759 242.203 68.5527 242.476 70.3383C245.827 69.7341 247.142 66.3868 247.613 64.5708L241.78 66.6759Z" fill="#ED975D"/>
<path d="M240.912 68.5381C240.912 68.5381 248.893 67.4646 248.15 62.492C247.406 57.5194 247.936 54.0328 242.808 54.5073C237.681 54.9828 236.976 57.0282 236.823 58.7489C236.667 60.4696 238.816 68.6889 240.912 68.5381Z" fill="#FFB27D"/>
<path d="M237.112 56.0239C237.112 56.0239 242.221 60.4373 245.697 60.7934C249.173 61.1494 250.488 60.0309 250.488 60.0309C250.488 60.0309 248.439 58.3259 247.207 55.5746C246.843 54.764 246.076 54.2068 245.192 54.1304C242.711 53.9157 238.007 53.8172 237.112 56.0239Z" fill="#1A1A1A"/>
<path d="M240.306 55.628C240.306 55.628 238.597 57.2848 238.059 58.5133C237.54 59.6989 237.384 62.535 237.798 63.6619C237.798 63.6619 235.135 58.4704 236.642 55.9484C238.241 53.2746 240.306 55.628 240.306 55.628Z" fill="#1A1A1A"/>
<path d="M235.791 85.2744C236.032 101.47 235.856 98.0861 237.624 99.6225C238.05 99.9922 239.248 100.213 240.823 100.317C245.777 100.647 254.485 99.8288 254.817 98.9104C255.959 95.7349 255.153 94.7483 256.106 89.8867C256.205 89.3694 256.328 88.8101 256.472 88.2006C257.267 84.8617 258.041 83.7254 255.221 78.361C252.663 73.5015 250.006 69.5574 249.767 69.6998C243.02 73.7152 242.476 70.3397 242.476 70.3397C242.476 70.3397 235.673 77.3745 235.791 85.2744Z" fill="#FAFAFA"/>
<path d="M218.498 127.035L223.685 141.028C223.685 141.028 225.093 141.164 226.441 140.776C227.682 140.416 229.106 139.475 229.106 139.475C229.106 139.475 227.666 124.45 224.98 115.825L218.498 127.035Z" fill="#1A1A1A"/>
<path d="M242.476 70.3381C242.476 70.3381 235.534 71.5185 234.718 74.5148C233.902 77.5112 229.104 95.128 229.104 95.128C229.104 95.128 232.634 95.7637 234.265 94.1289C235.895 92.494 239.938 78.9648 239.938 78.9648L242.476 70.3381Z" fill="#FAFAFA"/>
<path d="M240.823 100.317C245.777 100.647 254.485 99.8287 254.817 98.9102C255.96 95.7347 255.153 94.7482 256.106 89.8865L253.716 83.1418C253.716 83.1418 254.111 90.6532 251.902 92.6284C249.694 94.6036 242.855 96.4417 241.78 98.0922C241.263 98.885 240.922 99.6789 240.823 100.317Z" fill="#FAFAFA"/>
<path d="M246.5 97.1577C246.5 97.1577 241.613 96.0664 240.824 96.5021C240.035 96.9368 238.107 98.5203 237.866 99.0712C237.625 99.6221 239.621 98.6533 240.271 98.4784C240.692 98.3653 241.8 98.7507 242.347 98.934C244.654 99.7048 246.067 99.3079 246.067 99.3079L246.5 97.1577Z" fill="#FFB27D"/>
<path d="M249.773 69.6956C249.773 69.6956 256.336 70.1009 258.607 73.2774C261.805 77.7483 268.149 96.8042 264.513 99.346C260.419 102.208 245.878 100.095 245.878 100.095C245.878 100.095 245.394 97.8274 246.067 96.7309C246.74 95.6343 257.68 93.8623 258.186 93.3564C258.691 92.8506 251.875 83.4855 251.875 81.9669C251.875 80.4483 249.773 69.6956 249.773 69.6956Z" fill="#FAFAFA"/>
<path d="M240.586 97.8662C240.586 97.8662 239.562 99.19 239.227 99.3482C238.891 99.5063 238.674 99.4665 238.674 99.4665L239.365 98.2213L240.586 97.8662Z" fill="#FFB27D"/>
<path d="M240.824 96.5024L237.846 97.9519C237.846 97.9519 237.973 98.1593 238.339 98.1425C238.706 98.1258 239.631 97.7864 239.631 97.7864L240.824 96.5024Z" fill="#FFB27D"/>
<path d="M239.227 101.377H215.674L208.59 83.7148H232.106L239.227 101.377Z" fill="#F99746"/>
<path d="M215.398 100.688H246.499V101.377H215.674L215.398 100.688Z" fill="#ED7D2B"/>
<path d="M221.62 92.5459C221.442 91.9248 221.8 91.4221 222.42 91.4221C223.04 91.4221 223.685 91.9259 223.863 92.5459C224.04 93.167 223.682 93.6697 223.063 93.6697C222.444 93.6697 221.797 93.167 221.62 92.5459Z" fill="#FAFAFA"/>
<path d="M163.921 39.7623C164.052 39.2039 163.707 38.6443 163.15 38.5125C162.593 38.3806 162.035 38.7264 161.903 39.2848C161.772 39.8432 162.117 40.4028 162.674 40.5346C163.231 40.6665 163.789 40.3207 163.921 39.7623Z" fill="#F99746"/>
<path d="M302.936 160.947H0.62302C0.433921 160.947 0.279297 160.792 0.279297 160.602V160.485C0.279297 160.295 0.433921 160.14 0.62302 160.14H302.936C303.125 160.14 303.279 160.295 303.279 160.485V160.602C303.279 160.792 303.125 160.947 302.936 160.947Z" fill="#2E3552"/>
</svg>
