<svg width="303" height="219" viewBox="0 0 303 219" fill="none" xmlns="http://www.w3.org/2000/svg">
<path d="M195.945 95.2086L205.762 211.568C205.762 211.568 206.79 218.622 201.528 218.634C192.874 218.656 158.456 218.634 158.456 218.634C158.456 218.634 164.969 217.165 164.89 213.863C164.797 209.969 153.416 94.1089 153.416 94.1089L195.945 95.2086Z" fill="#898888"/>
<path d="M155.663 216.522C157.365 216.527 190.239 216.631 198.667 216.522C202.339 216.477 202.984 213.267 203.015 211.191C203.029 210.195 202.903 209.459 202.903 209.459L202.647 206.435L201.996 198.728L201.421 191.917L200.681 183.166L200.059 175.779L193.084 93.0966L150.554 91.9968C150.554 91.9968 155.347 140.484 158.738 175.779C159.117 179.711 159.478 183.482 159.811 187.001C159.92 188.125 160.022 189.223 160.123 190.294C160.436 193.634 160.724 196.7 160.974 199.408C161.106 200.835 161.227 202.161 161.338 203.376C161.77 208.136 162.024 211.176 162.027 211.753C162.028 212.09 161.999 212.404 161.944 212.695C161.247 216.401 156.303 216.522 155.663 216.522Z" fill="#EEEEEE"/>
<path d="M95.0446 31.8892H299.233L275.32 127.639L272.046 140.753L260.91 185.35H53.9934L95.0446 31.8892Z" fill="#B2B2B2"/>
<path d="M299.233 31.8892L302.547 32.9905L265.314 188.681L260.908 185.351L299.233 31.8892Z" fill="#898888"/>
<path d="M265.314 188.681H59.6737L53.9951 185.351H260.908L265.314 188.681Z" fill="#898888"/>
<path d="M193.1 216.57H148.575V218.678H193.1V216.57Z" fill="#848484"/>
<path d="M159.893 188.681L160.124 190.293L201.996 198.726L201.422 191.916L201.148 188.681H159.893Z" fill="#898888"/>
<path opacity="0.4" d="M155.663 216.523C157.365 216.528 190.239 216.631 198.667 216.523C202.339 216.478 202.984 213.267 203.015 211.191L161.34 203.375C161.772 208.135 162.025 211.175 162.028 211.752C162.03 212.088 162.001 212.403 161.946 212.694C161.247 216.401 156.303 216.523 155.663 216.523Z" fill="#898888"/>
<path opacity="0.4" d="M172.703 155.202L260.91 185.35L268.442 155.184L172.703 155.202Z" fill="#A0A0A0"/>
<path d="M95.0446 31.8892H299.233L268.46 155.184L61.9158 155.223L95.0446 31.8892Z" fill="#908F8F"/>
<path d="M151.966 170.815C152.556 167.791 155.494 165.339 158.529 165.339C161.564 165.339 163.544 167.791 162.955 170.815C162.365 173.841 159.427 176.291 156.392 176.291C153.359 176.291 151.377 173.839 151.966 170.815Z" fill="#848484"/>
<path d="M71.5457 149.88H262.728L284.379 63.9014L286.038 57.3079L287.455 51.6829L290.776 38.4958H102.348L98.7019 51.6829L97.147 57.3079L95.324 63.9014L71.5457 149.88Z" fill="#FAFAFA"/>
<path d="M102.348 38.4958H290.776L287.455 51.6829H98.7021L102.348 38.4958Z" fill="#DEDEDE"/>
<path d="M281.739 42.8074C282.652 42.8074 283.208 43.5459 282.98 44.4562C282.753 45.3664 281.828 46.1049 280.914 46.1049C280 46.1049 279.445 45.3664 279.672 44.4562C279.9 43.5459 280.826 42.8074 281.739 42.8074Z" fill="#FAFAFA"/>
<path d="M276.244 42.8074C277.157 42.8074 277.713 43.5459 277.486 44.4562C277.258 45.3664 276.334 46.1049 275.419 46.1049C274.504 46.1049 273.95 45.3664 274.177 44.4562C274.407 43.5459 275.331 42.8074 276.244 42.8074Z" fill="#FAFAFA"/>
<path d="M268.262 44.4562C268.489 43.5459 269.414 42.8074 270.328 42.8074C271.242 42.8074 271.797 43.5459 271.57 44.4562C271.342 45.3664 270.418 46.1049 269.503 46.1049C268.588 46.1049 268.034 45.3664 268.262 44.4562Z" fill="#FAFAFA"/>
<path d="M2.52762 206.825C2.52762 206.825 0.0937351 209.073 0.568165 210.671C1.04259 212.268 3.23927 213.334 3.5366 215.287C3.83393 217.24 5.02 218.305 6.08909 218.305C7.15818 218.305 11.1827 218.305 11.1827 218.305C11.1827 218.305 11.9691 216.931 10.0697 216.516C8.17041 216.102 7.45389 213.808 7.5725 211.677C7.6911 209.547 7.39377 206.706 7.39377 206.706L3.35787 205.76L2.52762 206.825Z" fill="#1A1A1A"/>
<path d="M46.6494 218.3H33.1233C33.0063 218.275 32.9169 218.25 32.8601 218.22C31.9583 217.772 32.2394 214.333 32.3483 213.268C32.3694 213.07 32.384 212.953 32.384 212.953C32.384 212.953 37.1332 209.167 37.7863 212.067C37.8058 212.158 37.8302 212.247 37.8562 212.335C38.6767 215.048 42.3633 216.28 44.4933 216.623C46.1165 216.886 46.5389 217.827 46.6494 218.3Z" fill="#1A1A1A"/>
<path d="M43.928 140.672C43.928 140.672 43.2066 149.642 42.3585 160.424C41.2065 175.07 39.8206 193.061 39.6841 196.469C39.4469 202.387 38.4964 211.854 38.4964 211.854C38.4964 211.854 36.2429 214.103 31.7293 213.154C31.7293 213.154 27.708 199.64 26.5593 185.342C26.5415 185.107 26.5236 184.872 26.5057 184.636C25.4366 170.08 23.7761 139.428 23.7761 139.428L43.928 140.672Z" fill="#1A1A1A"/>
<path d="M43.928 140.672C43.928 140.672 43.2066 149.642 42.3585 160.424L26.5593 185.342C26.5415 185.107 26.5236 184.872 26.5057 184.636C25.4366 170.08 23.7761 139.428 23.7761 139.428L43.928 140.672Z" fill="#1A1A1A"/>
<path d="M40.6347 141.738C40.6347 141.738 27.635 174.223 19.0887 189.488C10.5409 204.753 7.86979 209.014 7.86979 209.014C7.86979 209.014 2.97277 207.061 2.52759 205.73C2.52759 205.73 5.7966 176.259 11.5206 169.074C14.7555 165.015 18.5542 152.832 18.7329 148.571C18.9116 144.311 19.8898 135.88 19.8898 135.88L40.6347 141.738Z" fill="#1A1A1A"/>
<path d="M53.7808 132.77L54.5233 134.247C54.5233 134.247 58.3009 134.774 57.261 138.699C57.261 138.699 56.7005 140.314 55.659 139.804C54.6175 139.292 55.131 139.336 53.6362 138.648C52.143 137.959 51.2786 136.638 51.6133 135.426L51.3745 134.142L53.7808 132.77Z" fill="#FFB27D"/>
<path d="M33.9685 91.5942C34.5469 88.1929 34.5647 86.1765 34.5647 86.1765L27.9698 80.8787C28.2152 88.1638 23.531 91.667 23.531 91.667C23.531 91.667 32.3193 95.9801 37.4 94.3832C37.4 94.3832 36.1489 92.7894 33.9685 91.5942Z" fill="#FFB27D"/>
<path d="M36.1181 86.0565C36.1181 86.0565 27.7278 87.4462 26.9398 82.2245C26.1518 77.0028 24.5384 73.6647 29.8628 72.5569C35.1871 71.449 36.5308 73.2857 37.2181 74.9636C37.907 76.6432 38.2807 85.5609 36.1181 86.0565Z" fill="#FFB27D"/>
<path d="M26.9949 82.5841C26.9949 82.5841 27.1639 75.5889 34.81 74.4665C40.0466 73.6971 36.8751 69.3355 36.2772 68.6455C36.2772 68.6455 32.2738 69.4067 28.1778 70.304C19.5763 72.1844 26.0851 81.5443 26.9949 82.5841Z" fill="#1A1A1A"/>
<path d="M52.9001 134.822C54.0212 133.675 54.8547 132.181 54.8547 132.181C54.8547 132.181 45.3223 120.373 44.5473 119.149C43.7722 117.925 37.9832 98.2848 37.9832 98.2848L23.3425 95.3274C23.3425 95.3274 35.564 120.461 37.5884 123.525C40.9338 128.588 50.9423 136.124 50.9423 136.124C50.9423 136.124 52.0195 135.723 52.9001 134.822Z" fill="white"/>
<path d="M44.4887 141.419C44.336 141.545 44.1589 141.621 43.9542 141.621C42.0467 141.596 36.4835 142.652 31.7766 142.171C27.809 141.792 24.2962 140.619 20.5252 138.934C20.0247 138.711 18.8712 138.097 18.8972 137.54C18.9134 136.929 18.9752 136.043 19.0515 134.927C19.318 131.047 19.7843 124.372 19.331 116.671C19.2497 115.238 19.2059 113.816 19.201 112.415C19.162 101.978 21.2027 92.7474 25.3734 89.6409C25.7293 89.3866 27.9536 90.5042 29.9634 91.4921C31.8205 92.4056 33.1187 92.3846 34.8734 92.0299L37.1871 93.6981C39.3236 95.6757 41.6649 98.3642 42.682 102.446C43.548 105.92 44.0549 112.183 44.336 118.674C44.4627 121.616 44.5651 124.583 44.5911 127.398V127.498C44.6155 127.777 44.6155 128.081 44.6155 128.362C44.7194 135.587 44.6155 141.317 44.4887 141.419Z" fill="white"/>
<path d="M19.0532 134.926C19.3197 131.045 19.786 124.371 19.3327 116.669C19.2514 115.236 19.2076 113.814 19.2027 112.413C20.9396 108.21 22.3612 105.163 22.3612 105.163H26.7416C26.7416 105.163 29.9521 127.028 19.0532 134.926Z" fill="white"/>
<path d="M10.5311 136.285L9.69923 137.713C9.69923 137.713 11.3289 141.152 7.46356 142.436C7.46356 142.436 5.80143 142.854 5.65845 141.705C5.51548 140.557 5.76081 141.009 5.52035 139.386C5.27826 137.763 5.91516 136.319 7.11424 135.933L8.06147 135.029L10.5311 136.285Z" fill="#FFB27D"/>
<path d="M8.32807 136.675C9.90571 136.981 11.615 136.858 11.615 136.858C11.615 136.858 16.2975 122.438 16.9003 121.122C17.5031 119.805 30.8099 104.214 30.8099 104.214L25.2662 90.3857C25.2662 90.3857 10.8741 114.35 9.41341 117.717C6.99902 123.282 6.16064 135.757 6.16064 135.757C6.16064 135.757 7.08838 136.435 8.32807 136.675Z" fill="white"/>
<path d="M199.567 123.997H110.314L140.826 0.946533H230.079L199.567 123.997Z" fill="#EEEEEE"/>
<path d="M227.882 9.72021L201.054 123.261L126.853 123.997L202.313 125.856L227.882 9.72021Z" fill="#908F8F"/>
<path d="M162.382 43.5899H137.422L145.236 12.3325H170.197L162.382 43.5899Z" fill="#FDECDE"/>
<path d="M219.367 16.6505H174.645L175.745 12.3325H220.467L219.367 16.6505Z" fill="#898888"/>
<path d="M217.351 25.5164H172.627L173.729 21.1985H218.451L217.351 25.5164Z" fill="#898888"/>
<path d="M215.242 34.3824H170.519L171.62 30.0645H216.342L215.242 34.3824Z" fill="#898888"/>
<path d="M212.765 43.2481H168.044L169.144 38.9302H213.865L212.765 43.2481Z" fill="#898888"/>
<path d="M212.765 52.4802H130.897L131.999 48.1606H213.865L212.765 52.4802Z" fill="#898888"/>
<path d="M210.58 61.7103H128.711L129.811 57.3923H211.68L210.58 61.7103Z" fill="#898888"/>
<path d="M207.555 72.107H125.686L126.786 67.7891H208.655L207.555 72.107Z" fill="#898888"/>
<path d="M204.804 81.0828H122.936L124.036 76.7649H205.904L204.804 81.0828Z" fill="#898888"/>
<mask id="mask0_1_7522" style="mask-type:luminance" maskUnits="userSpaceOnUse" x="137" y="12" width="34" height="32">
<path d="M162.382 43.5899H137.422L145.236 12.3325H170.197L162.382 43.5899Z" fill="white"/>
</mask>
<g mask="url(#mask0_1_7522)">
<path d="M164.996 48.5311C164.97 48.6137 164.936 48.6915 164.892 48.7627C164.4 49.5531 156.286 49.5936 155.359 48.9295C154.945 48.6331 154.818 44.5403 154.805 40.1074C154.789 34.6265 154.947 28.6226 154.947 28.6226C154.947 28.6226 158.122 30.0916 158.276 31.8991C158.43 33.7066 157.096 44.5695 158.022 45.2335C158.95 45.8976 163.226 45.9834 164.653 46.4013C164.653 46.3997 165.259 47.7002 164.996 48.5311Z" fill="white"/>
<path d="M156.788 16.1597C156.232 15.5832 155.325 15.5297 154.742 15.4892C154.911 15.3548 155.212 15.337 155.212 15.337C154.859 15.2365 154.011 15.4892 154.011 15.4892C154.011 15.4892 151.176 13.5473 149.254 17.3405C149.254 17.3405 149.535 17.0716 149.912 16.7736C148.802 18.9552 149.174 22.52 151.653 23.4659C153.265 24.0798 162.478 22.0649 156.788 16.1597Z" fill="#1A1A1A"/>
<path d="M155.07 29.5266C155.087 29.5363 153.355 30.1663 152.178 29.6756C151.072 29.2156 150.515 27.6348 150.531 27.6348C151.03 27.6008 151.256 26.9546 151.618 24.0911L151.832 24.1623L155.431 25.369C155.431 25.369 155.197 26.5173 155.053 27.6089C154.929 28.5256 154.872 29.4018 155.07 29.5266Z" fill="#E49963"/>
<path d="M155.429 25.3703C155.429 25.3703 155.195 26.5186 155.051 27.6102C152.99 27.2847 152.142 25.2634 151.83 24.1653L155.429 25.3703Z" fill="#D68D5D"/>
<path d="M151.502 23.7138C151.502 23.7138 150.641 21.8674 150.571 20.3757C150.521 19.31 151.556 15.5184 155.376 16.5777C155.376 16.5777 156.492 16.8352 157.462 17.6871C158.234 18.3658 159.293 19.7506 157.491 22.9445L156.989 24.0361L151.502 23.7138Z" fill="#1A1A1A"/>
<path d="M155.985 26.4927C155.985 26.4927 151.085 25.9404 151.476 22.9036C151.868 19.8668 151.499 17.7499 154.645 17.9734C157.79 18.197 158.248 19.4344 158.364 20.479C158.481 21.5253 157.27 26.5575 155.985 26.4927Z" fill="#E49963"/>
<path d="M156.308 33.3715C156.268 33.0152 157.033 32.8483 157.173 33.1804C157.434 33.8007 157.405 34.5376 157.463 35.1353C157.631 36.8407 156.953 39.058 156.953 39.058L156.308 33.3715Z" fill="white"/>
<path d="M158.438 18.7721C157.803 17.7631 157.205 17.8878 156.849 18.1194C155.998 16.409 152.36 18.2538 152.36 18.2538C151.749 20.3901 150.011 21.4348 150.011 21.4348C150.011 21.4348 150.831 22.0988 152.955 21.8381C154.627 21.6324 156.099 19.4896 156.65 18.5858C156.906 18.8806 157.442 19.556 157.551 20.1634C157.694 20.9683 157.597 22.575 158.07 22.5798C158.071 22.5798 159.394 20.2897 158.438 18.7721Z" fill="#1A1A1A"/>
<path d="M155.138 24.5122C155.138 24.5122 155.179 24.9093 156.151 24.9758C156.151 24.9758 156.965 25.0309 156.996 24.603C156.994 24.6013 156.25 24.1977 155.138 24.5122Z" fill="white"/>
<path d="M164.996 48.5314C164.97 48.614 164.936 48.6918 164.892 48.7631C164.399 49.5534 156.285 49.5939 155.359 48.9299C154.945 48.6335 154.812 43.5478 155.952 39.1619C156.224 41.7889 155.727 47.043 157.106 47.4706C158.671 47.9581 162.942 47.9678 164.996 48.5314Z" fill="white"/>
<path d="M157.226 39.3009C154.006 48.5701 155.473 50.2464 154.323 51.0497C154.316 51.053 153.358 51.3283 153.351 51.3315C152.157 52.1203 152.277 50.993 148.713 52.015C147.015 52.5025 144.836 53.1553 142.964 53.4678C142.259 53.5845 141.599 53.6541 141.026 53.646C139.926 53.633 139.141 53.3399 138.972 52.5754C138.482 50.3549 142.894 45.198 142.474 41.2347C142.47 41.2007 142.467 41.1667 142.464 41.1327C142.441 40.7877 142.478 40.4006 142.568 39.9811C143.018 37.8594 144.782 34.9165 146.535 32.4385C148.472 29.7029 150.394 27.531 150.528 27.6347C154.312 30.5889 154.944 28.621 154.944 28.621C154.944 28.621 158.325 36.1394 157.226 39.3009Z" fill="white"/>
<path d="M153.692 51.2392C153.688 51.2441 153.701 51.2344 153.692 51.2392C152.498 52.028 152.274 50.993 148.711 52.0134C147.013 52.5009 144.834 53.1536 142.963 53.4662C142.022 53.5067 141.32 53.5602 141.024 53.6444C139.924 53.6314 139.139 53.3383 138.971 52.5738C138.48 50.3533 142.893 45.1964 142.472 41.2331C142.469 41.1991 142.465 41.1651 142.462 41.1311C142.433 40.7408 142.472 40.3601 142.566 39.9795C142.972 38.3745 144.404 36.7629 146.1 34.3643C146.886 35.4413 153.871 35.2129 151.021 44.4821C150.15 47.3246 153.561 48.9296 153.692 51.2392Z" fill="white"/>
<path d="M150.531 27.6346C150.531 27.6346 144.959 26.99 143.614 29.5361C142.269 32.0821 141.354 41.523 142.443 44.5387C143.531 47.5545 151.315 52.4474 152.216 52.7179C153.116 52.99 153.874 51.6505 153.857 51.4918C153.839 51.3347 146.084 43.2203 146.217 42.4996C146.349 41.7805 150.531 27.6346 150.531 27.6346Z" fill="white"/>
</g>
<path d="M285.653 203.716L283.664 212.072L280.683 212.054L280.574 203.716H285.653Z" fill="#E49963"/>
<path d="M260.58 204.073L254.917 212.072L252.711 209.247L256.118 202.973L260.58 204.073Z" fill="#E49963"/>
<path d="M275.302 93.9228C276.33 93.3397 277.563 93.2766 278.426 93.3268C278.203 93.0984 277.766 93.0142 277.766 93.0142C278.301 92.9348 279.495 93.4645 279.495 93.4645C286.935 90.6058 288.105 101.527 287.949 104.065C287.793 106.601 290.449 107.431 294.319 109.429C301.705 113.243 302.354 118.35 302.354 118.35C302.297 118.384 302.237 118.423 302.172 118.467C301.805 117.848 301.051 116.685 300.415 116.51C300.44 116.567 301.168 118.11 301.439 118.995C299.26 120.647 295.184 124.309 292.344 126.903C292.357 126.396 292.335 125.676 292.15 125.295L291.799 127.402C290.279 128.795 289.231 129.775 289.231 129.775C289.419 127.725 279.929 116.905 274.978 113.665C273.773 111.896 273.345 108.772 273.313 108.525C273.521 111.003 273.946 112.393 274.327 113.175C270.133 109.329 272.574 95.4679 275.302 93.9228Z" fill="#1A1A1A"/>
<path d="M275.271 113.827C275.247 113.838 277.661 115.088 279.478 114.593C281.187 114.128 282.303 111.919 282.28 111.914C281.557 111.771 281.348 110.78 281.364 106.519L281.037 106.584L275.536 107.669C275.536 107.669 275.661 109.395 275.664 111.02C275.668 112.387 275.585 113.681 275.271 113.827Z" fill="#E49963"/>
<path d="M275.534 107.671C275.534 107.671 275.659 109.397 275.662 111.022C278.741 110.936 280.368 108.135 281.034 106.584L275.534 107.671Z" fill="#D68D5D"/>
<path d="M281.604 105.988C281.604 105.988 283.217 103.447 283.604 101.275C283.88 99.723 283.087 93.9733 277.292 94.8025C277.292 94.8025 275.609 94.9677 274.026 96.0334C272.767 96.8805 270.952 98.7091 272.981 103.727L273.509 105.421L281.604 105.988Z" fill="#1A1A1A"/>
<path d="M253.61 207.054L256.526 207.143L259.683 207.241C259.683 207.241 266.973 199.149 271.063 186.177C271.159 185.876 271.259 185.572 271.365 185.262C273.602 178.756 278.243 170.592 280.688 163.2C281.078 162.022 281.427 160.914 281.741 159.865C281.841 159.529 281.939 159.199 282.032 158.873C283.833 152.633 284.355 148.535 284.836 144.157L267.18 144.298C267.18 144.298 264.328 174.194 253.61 207.054Z" fill="#282828"/>
<path d="M269.651 134.185C269.695 142.561 268.418 146.155 268.418 146.155C268.418 146.155 275.978 149.983 284.961 147.165C285.067 147.133 291.718 145.801 291.718 145.801C291.567 145.463 289.733 139.668 289.587 139.359C287.689 135.298 287.429 133.329 287.205 132.08C286.787 129.749 286.779 127.338 286.987 125.064C287.535 119.044 289.166 114.045 289.166 114.045C286.717 113.49 284.425 112.515 281.877 111.562C281.291 112.29 279.5 113.051 277.945 113.017C276.156 112.978 275.575 112.214 275.669 111.379C273.761 112.437 272.241 113.436 272.241 113.436C270.619 116.243 267.332 118.969 267.095 123.274C267.033 124.33 269.649 133.951 269.651 134.185Z" fill="#FAFAFA"/>
<path d="M259.4 121.744C261.991 118.726 268.707 112.18 275.636 111.376L269.657 122.989C269.657 122.989 269.321 124.98 267.55 126.139C263.212 128.98 257.697 130.237 257.697 130.237C257.697 130.237 253.962 128.612 248.857 124.884C247.255 123.713 244.439 119.249 244.439 119.249L245.198 116.716C245.198 116.716 249.978 119.38 251.686 120.15C252.659 120.587 254.899 121.633 256.479 122.372C257.484 122.842 258.679 122.584 259.4 121.744Z" fill="#FF7900"/>
<path d="M274.507 109.209C274.507 109.209 281.791 109.329 281.796 104.807C281.801 100.285 282.745 97.2545 278.095 96.9857C273.445 96.7168 272.54 98.4433 272.169 99.9512C271.799 101.461 272.613 109.062 274.507 109.209Z" fill="#E49963"/>
<path d="M274.777 96.8755C274.777 96.8755 276.77 102.181 279.831 102.965C282.893 103.749 284.22 102.933 284.22 102.933C284.22 102.933 281.872 101.074 281.385 97.8295C281.383 97.8295 276.28 94.3505 274.777 96.8755Z" fill="#1A1A1A"/>
<path d="M275.271 97.3064C275.271 97.3064 273.781 98.4904 273.419 99.6419C273.056 100.794 272.892 103.165 272.199 103.084C272.199 103.084 270.696 99.4767 272.384 97.4376C274.176 95.2754 275.271 97.3064 275.271 97.3064Z" fill="#1A1A1A"/>
<path d="M245.2 116.716C245.2 116.716 244.173 113.027 240.105 113.548C239.638 113.694 238.274 114.236 239.146 115.692C239.789 116.766 240.067 116.212 241.078 117.654C242.088 119.095 243.187 119.422 244.439 119.249L245.2 116.716Z" fill="#E49963"/>
<path d="M283.763 211.604C283.763 211.604 283.523 213.259 284.143 215.03C284.143 215.03 284.631 217.245 282.442 217.287C280.254 217.328 279.716 217.122 279.965 215.763C280.213 214.404 280.684 212.054 280.684 212.054L283.763 211.604Z" fill="#E49963"/>
<path d="M279.757 218.233C279.757 218.233 279.804 218.262 279.895 218.306H284.181C284.264 218.262 284.303 218.233 284.303 218.233C284.55 217.121 284.145 215.03 284.145 215.03C281.666 217.294 280.114 214.973 280.114 214.973C279.71 215.941 279.757 218.233 279.757 218.233Z" fill="#D86713"/>
<path d="M247.436 215.985C247.436 215.985 251.472 211.52 252.711 209.246L255.712 210.778L249.004 217.059L247.434 216.853L247.436 215.985Z" fill="#E49963"/>
<path d="M244.93 218.306H250.452C250.985 217.909 251.481 216.992 252.098 215.761C252.427 215.106 253.167 214.743 253.926 214.543V218.262H255.072L256.157 214.309C256.87 213 256.214 211.813 255.71 210.778C255.125 210.776 253.553 211.176 250.571 214.524C249.59 215.624 248.508 216.017 247.434 215.983C247.419 215.993 247.403 216.001 247.39 216.006C245.591 216.814 245.078 217.817 244.93 218.306Z" fill="#D86713"/>
<path d="M275.667 111.378C275.667 111.378 271.452 121.755 271.329 123.855C271.205 125.956 270.833 158.198 270.833 158.198C270.833 158.198 271.082 159.68 268.23 159.063C265.381 158.446 264.636 157.827 264.636 157.827C264.636 157.827 267.363 137.938 266.619 131.021C265.875 124.103 272.32 112.819 272.32 112.819L275.667 111.378Z" fill="#FF7900"/>
<path d="M256.524 207.143L259.681 207.241C259.681 207.241 266.972 199.149 271.061 186.177C271.157 185.876 271.258 185.572 271.363 185.262C273.601 178.756 278.241 170.592 280.686 163.2C281.076 162.022 281.425 160.914 281.739 159.865C281.84 159.529 281.937 159.199 282.03 158.873L279.43 156.907C279.43 156.907 271.625 169.508 269.207 181.365C267.108 191.666 258.702 204.061 256.524 207.143Z" fill="#1A1A1A"/>
<path d="M279.159 182.472C279.115 188.238 279.408 201.496 280.16 206.985H282.956C284.501 206.985 285.273 206.962 285.273 206.962C287.162 197.419 288.508 189.524 289.486 182.718C290.289 177.133 291.003 172.347 291.553 168.225C292.105 164.078 292.49 160.605 292.627 157.672C292.648 157.21 292.664 156.76 292.672 156.324C292.68 155.885 292.683 155.459 292.68 155.046L277.425 153.564C277.615 163.668 279.183 179.119 279.159 182.472Z" fill="#282828"/>
<path d="M282.956 206.983C284.501 206.983 285.273 206.96 285.273 206.96C287.163 197.417 288.508 189.522 289.486 182.716C290.289 177.131 291.004 172.345 291.553 168.223C292.105 164.076 292.49 160.603 292.627 157.67L287.029 160.953C287.029 160.953 290.602 162.21 289.239 171.722C287.874 181.236 284.854 205.637 282.956 206.983Z" fill="#1A1A1A"/>
<path d="M282.235 157.579C282.235 157.579 283.309 161.45 287.026 160.956C290.743 160.462 296.03 158.238 296.03 158.238C296.03 158.238 294.441 153.234 292.466 146.66C290.074 138.701 287.114 128.44 285.718 121.968C285.327 120.154 285.058 118.64 284.959 117.556L281.876 111.591C281.876 111.591 277.277 121.881 277.029 124.474C276.782 127.065 282.235 157.579 282.235 157.579Z" fill="#FF7900"/>
<path d="M282.401 129.908C282.566 134.108 283.557 142.261 292.398 146.626C292.42 146.637 292.445 146.65 292.468 146.66C290.076 138.701 287.116 128.441 285.72 121.969C284.097 124.385 282.31 127.595 282.401 129.908Z" fill="#F07201"/>
<path d="M232.686 95.669L229.897 98.4485L240.984 109.5L243.772 106.721L232.686 95.669Z" fill="#282828"/>
<path d="M302.071 166.641L301.098 167.611C299.184 169.519 296.082 169.519 294.168 167.611L239.916 113.53C238.002 111.622 238.002 108.53 239.916 106.622L240.889 105.652C242.803 103.744 245.905 103.744 247.819 105.652L302.071 159.733C303.985 161.641 303.985 164.735 302.071 166.641Z" fill="#FF9844"/>
<path d="M165.64 31.6092C147.532 49.66 147.532 78.9252 165.64 96.976C183.748 115.027 213.106 115.027 231.214 96.976C249.322 78.9252 249.322 49.66 231.214 31.6092C213.106 13.5583 183.748 13.5583 165.64 31.6092ZM227.602 93.3755C211.489 109.437 185.365 109.437 169.252 93.3755C153.139 77.3136 153.139 51.2715 169.252 35.2096C185.365 19.1477 211.489 19.1477 227.602 35.2096C243.715 51.2715 243.715 77.3136 227.602 93.3755Z" fill="#FF9844"/>
<path d="M285.947 124.085L281.876 111.588C281.887 111.593 287.016 113.111 289.598 114.41C289.598 114.41 291.211 116.483 292.209 121.266C292.209 121.266 293.263 132.749 290.909 136.949C290.909 136.949 283.474 138.431 271.576 134.354V131.636C271.576 131.636 284.589 132.316 287.254 132.624L285.947 124.085Z" fill="#E49963"/>
<path d="M281.877 111.588C281.877 111.588 289.424 112.118 291.241 116.154C293.059 120.19 293.637 133.614 291.323 137.567C291.323 137.567 288.139 138.471 282.506 137.422C282.438 137.409 282.368 137.396 282.298 137.383C282.298 137.383 280.501 132.997 282.113 132.132C282.113 132.132 286.863 132.38 286.368 130.813C285.871 129.249 281.877 111.588 281.877 111.588Z" fill="#FF7900"/>
<path d="M272.912 132.36C272.912 132.36 271.875 131.108 271.654 129.829C271.433 128.549 270.747 127.602 268.957 127.367C267.168 127.132 266.398 127.108 266.403 127.61C266.408 128.112 267.865 131.623 270.432 133.719C273.001 135.817 272.912 132.36 272.912 132.36Z" fill="#E49963"/>
<path opacity="0.4" d="M216.698 27.1211L161.44 82.2049C162.342 84.0237 163.374 85.7681 164.526 87.4233L221.933 30.1968C220.271 29.0485 218.523 28.02 216.698 27.1211Z" fill="white"/>
<path opacity="0.4" d="M212.908 25.4869C208.409 23.809 203.539 22.8906 198.454 22.8906C175.667 22.8906 157.195 41.3042 157.195 64.0196C157.195 69.0891 158.118 73.9431 159.799 78.4279L212.908 25.4869Z" fill="white"/>
<path opacity="0.4" d="M180.179 100.9C185.688 103.618 191.892 105.149 198.456 105.149C221.243 105.149 239.715 86.7349 239.715 64.0196C239.715 57.4762 238.179 51.2925 235.453 45.8003L180.179 100.9Z" fill="white"/>
<path d="M0.775716 218.947H302.085C302.234 218.947 302.354 218.827 302.354 218.679C302.354 218.532 302.234 218.411 302.085 218.411H0.775716C0.628417 218.411 0.506836 218.531 0.506836 218.679C0.506836 218.827 0.627248 218.947 0.775716 218.947Z" fill="#1A1A1A"/>
</svg>
