<svg width="303" height="187" viewBox="0 0 303 187" fill="none" xmlns="http://www.w3.org/2000/svg">
<path d="M302.73 186.947H0.269811C0.121365 186.947 0 186.811 0 186.645C0 186.478 0.121365 186.343 0.269811 186.343H302.73C302.879 186.343 303 186.478 303 186.645C303.001 186.811 302.879 186.947 302.73 186.947Z" fill="#283250"/>
<path d="M288.429 44.0989C288.429 44.0989 301.709 57.114 302.317 62.0206C302.925 66.9272 296.293 74.6058 296.293 74.6058L288.429 44.0989Z" fill="#FAFAFA"/>
<path d="M283.637 179.273C283.637 179.273 283.207 186.192 281.862 186.291C281.682 186.305 275.045 186.305 275.045 186.305L266.57 186.256C266.57 186.256 266.625 184.223 269.102 183.793C271.58 183.363 275.726 181.629 277.227 178.368C278.805 174.938 283.637 179.273 283.637 179.273Z" fill="#1A1A1A"/>
<path d="M302.513 179.273C302.513 179.273 302.082 186.192 300.738 186.291C300.558 186.305 293.92 186.305 293.92 186.305L285.445 186.256C285.445 186.256 285.501 184.223 287.978 183.793C290.455 183.363 294.602 181.629 296.103 178.368C297.681 174.938 302.513 179.273 302.513 179.273Z" fill="#1A1A1A"/>
<path d="M274.25 104.915C274.25 104.915 276.467 119.032 284.735 144.091C293.003 169.15 294.13 180.002 294.13 180.002L303 179.755C303 179.755 303.076 152.367 299.264 139.765C295.454 127.164 298.442 94.3354 298.442 94.3354L274.25 104.915Z" fill="#1A1A1A"/>
<path d="M269.934 95.1101C269.934 95.1101 269.619 116.383 273.316 142.503C277.013 168.623 275.759 179.71 275.759 179.71L284.612 180.003C284.612 180.003 289.902 153.874 288.386 140.801C286.869 127.728 295.631 95.9398 295.631 95.9398L269.934 95.1101Z" fill="#1A1A1A"/>
<path d="M287.072 45.3285L282.896 48.4082L276.861 47.1431C276.945 46.595 277.343 44.3244 277.706 42.2667C277.728 42.1458 277.75 42.0236 277.77 41.9054C278.081 40.1554 278.35 38.6513 278.35 38.6513L283.986 35.8546L286.087 34.812C286.081 34.8491 285.924 36.7543 285.902 37.0332C285.508 41.9727 287.072 45.3285 287.072 45.3285Z" fill="#FFB27D"/>
<path d="M277.283 43.7745C277.416 43.7196 285.492 41.3459 286.369 41.6344C287.247 41.9229 287.767 43.6138 287.767 43.6138L274.556 46.5877C274.556 46.5863 275.596 44.4819 277.283 43.7745Z" fill="#FAFAFA"/>
<path d="M299.031 97.7363C297.663 103.955 274.879 104.692 269.007 99.0481C268.339 98.4052 268.306 95.4107 268.559 91.375C269.051 83.489 270.633 71.6263 270.695 65.5659C270.726 62.6387 271.13 59.6455 271.668 56.9271C272.813 51.1332 274.558 46.5878 274.558 46.5878C274.558 46.5878 285.685 43.0054 287.768 43.6153C297.798 46.548 300.401 91.5165 299.031 97.7363Z" fill="white"/>
<path d="M268.557 91.3737C269.05 83.4877 270.632 71.625 270.694 65.5646C270.724 62.6374 271.128 59.6442 271.666 56.9258L278.361 55.75C278.361 55.75 284.906 82.3695 268.557 91.3737Z" fill="#FAFAFA"/>
<path d="M272.182 80.3819C272.182 80.3819 272.639 81.4685 271.68 82.1979C270.721 82.9273 270.101 84.1086 270.32 84.9712C270.539 85.8339 272.642 87.2432 273.37 87.0166C274.098 86.7899 275.581 85.6525 275.422 85.1965C275.262 84.7418 276.42 81.2006 274.643 79.8366C272.866 78.474 272.182 80.3819 272.182 80.3819Z" fill="#FFB27D"/>
<path d="M279.655 45.2061C279.655 45.2061 273.14 46.2074 267.938 53.8407C262.736 61.4739 259.314 67.1498 260.272 69.9011C261.231 72.6525 269.966 82.1951 271.472 82.1951C272.978 82.1951 275.407 81.1045 275.545 78.6511C275.545 78.6511 269.396 69.4726 270.607 68.0989C271.124 67.511 278.591 61.4753 279.657 64.202C281.419 68.7129 279.655 45.2061 279.655 45.2061Z" fill="white"/>
<path d="M285.479 37.1195C284.241 39.478 279.628 41.5178 277.706 42.2664C277.728 42.1456 277.75 42.0233 277.77 41.9052C278.081 40.1552 278.35 38.6511 278.35 38.6511L283.986 35.8543C285.232 35.8351 285.99 36.1483 285.479 37.1195Z" fill="#FCA56B"/>
<path d="M275.612 38.3226C275.612 38.3226 285.779 41.4806 287.657 35.1454C289.534 28.8102 292.111 24.9503 285.699 22.666C279.286 20.3816 277.303 22.427 276.159 24.3899C275.016 26.3528 273.014 37.3377 275.612 38.3226Z" fill="#FFB27D"/>
<path d="M277.754 24.0206C277.754 24.0206 278.34 31.6263 279.878 31.2829C281.415 30.9395 282.809 30.6826 282.565 32.9794C282.321 35.2761 280.172 37.9436 284.898 38.309C289.624 38.6744 296.526 26.1071 295.246 23.7486C291.555 16.9464 272.405 15.7293 277.754 24.0206Z" fill="#1A1A1A"/>
<path d="M120.909 63.7763L111.157 179.237C111.157 179.237 110.135 186.235 115.363 186.248C123.96 186.268 158.149 186.248 158.149 186.248C158.149 186.248 151.679 184.79 151.758 181.513C151.85 177.649 163.155 62.6829 163.155 62.6829L120.909 63.7763Z" fill="#848484"/>
<path d="M160.923 184.154C159.232 184.159 126.578 184.261 118.206 184.154C114.558 184.109 113.919 180.925 113.889 178.863C113.874 177.875 113.999 177.144 113.999 177.144L114.253 174.143L114.9 166.495L115.471 159.736L116.205 151.052L116.823 143.723L123.752 61.6799L165.998 60.5879C165.998 60.5879 161.236 108.701 157.869 143.723C157.492 147.625 157.135 151.367 156.804 154.859C156.696 155.974 156.594 157.063 156.493 158.125C156.182 161.438 155.896 164.481 155.648 167.168C155.517 168.584 155.395 169.9 155.286 171.105C154.856 175.827 154.605 178.844 154.601 179.416C154.599 179.75 154.627 180.062 154.684 180.35C155.375 184.033 160.288 184.154 160.923 184.154Z" fill="#EEEEEE"/>
<path d="M18.3118 0.946533L42.0653 95.9576L45.318 108.969L56.3809 153.221H261.911L221.136 0.946533H18.3118Z" fill="#B2B2B2"/>
<path d="M18.3118 0.946533L15.0205 2.03994L52.004 156.528L56.3809 153.223L18.3118 0.946533Z" fill="#898888"/>
<path d="M52.0039 156.528H256.271L261.911 153.223H56.3808L52.0039 156.528Z" fill="#898888"/>
<path d="M167.963 184.199H123.737V186.293H167.963V184.199Z" fill="#848484"/>
<path d="M251.955 125.162L218.604 2.96027H17.9834V0.946533H221.136L254.374 124.892L251.955 125.162Z" fill="#F1A34F"/>
<path d="M156.72 156.526L156.492 158.127L114.898 166.493L115.47 159.737L115.741 156.526H156.72Z" fill="#898888"/>
<path opacity="0.4" d="M160.923 184.154C159.231 184.16 126.578 184.261 118.206 184.154C114.558 184.109 113.919 180.925 113.889 178.863L155.285 171.107C154.855 175.83 154.604 178.846 154.599 179.419C154.598 179.753 154.626 180.065 154.682 180.353C155.375 184.033 160.288 184.154 160.923 184.154Z" fill="#C6C5C5"/>
<path opacity="0.4" d="M146.668 122.396L56.381 153.223L45.3181 108.969L146.668 122.396Z" fill="#848484"/>
<path d="M18.3118 0.946533H221.136L254.044 123.329H47.863L18.3118 0.946533Z" fill="#908F8F"/>
<path d="M163.579 142.813C165.417 140.797 164.913 137.36 162.454 135.138C159.995 132.916 156.512 132.749 154.674 134.766C152.836 136.783 153.339 140.219 155.798 142.441C158.258 144.664 161.741 144.83 163.579 142.813Z" fill="#848484"/>
<path d="M244.478 118.025H54.574L33.0675 32.7101L31.4191 26.1675L30.0121 20.5879L26.7139 7.50269H213.881L217.502 20.5879L219.047 26.1675L220.858 32.7101L244.478 118.025Z" fill="#FAFAFA"/>
<path d="M217.502 20.5879H30.0121L26.7139 7.50269H213.881L217.502 20.5879Z" fill="#DEDEDE"/>
<path d="M35.6899 11.7803C34.7821 11.7803 34.2302 12.5124 34.4565 13.4163C34.6828 14.3201 35.6016 15.0523 36.5095 15.0523C37.4173 15.0523 37.9692 14.3201 37.7429 13.4163C37.5166 12.5124 36.5978 11.7803 35.6899 11.7803Z" fill="#E9F3FE"/>
<path d="M41.1482 11.7803C40.2403 11.7803 39.6885 12.5124 39.9147 13.4163C40.141 14.3201 41.0599 15.0523 41.9677 15.0523C42.8755 15.0523 43.4274 14.3201 43.2011 13.4163C42.9735 12.5124 42.0546 11.7803 41.1482 11.7803Z" fill="#E9F3FE"/>
<path d="M49.0776 13.4163C48.8513 12.5124 47.9325 11.7803 47.0246 11.7803C46.1168 11.7803 45.5649 12.5124 45.7912 13.4163C46.0175 14.3201 46.9363 15.0523 47.8442 15.0523C48.752 15.0523 49.3039 14.3187 49.0776 13.4163Z" fill="#E9F3FE"/>
<path d="M184.974 58.809C183.603 53.3337 178.009 48.8777 172.506 48.8777C169.852 48.8777 167.589 49.8969 166.137 51.7486C164.624 53.6771 164.17 56.2527 164.858 59.0027C166.229 64.478 171.823 68.934 177.327 68.934C179.981 68.934 182.243 67.9148 183.695 66.0632C185.209 64.1346 185.662 61.5577 184.974 58.809ZM183.059 65.5686C181.763 67.2211 179.727 68.1318 177.327 68.1318C172.169 68.1318 166.927 63.9491 165.64 58.809C165.014 56.3049 165.415 53.9738 166.773 52.2431C168.069 50.5906 170.105 49.6799 172.507 49.6799C177.665 49.6799 182.906 53.8626 184.193 59.0027C184.82 61.5068 184.417 63.8392 183.059 65.5686Z" fill="#FF7900"/>
<path d="M176.183 61.1483L175.18 54.1675L175.101 53.8516H172.277L172.357 54.1675L174.85 61.1483H176.183Z" fill="#FF7900"/>
<path d="M174.539 62.3804L175.172 64.9065H177.741L177.109 62.3804H174.539Z" fill="#FF7900"/>
<path d="M191.104 82.5234C189.733 77.0481 184.14 72.592 178.636 72.592C175.982 72.592 173.719 73.6113 172.267 75.4629C170.754 77.3915 170.3 79.967 170.988 82.717C172.359 88.1923 177.953 92.6484 183.457 92.6484C186.111 92.6484 188.373 91.6292 189.826 89.7775C191.339 87.8489 191.793 85.272 191.104 82.5234ZM189.191 89.283C187.894 90.9355 185.858 91.8462 183.457 91.8462C178.299 91.8462 173.057 87.6635 171.77 82.5234C171.144 80.0193 171.546 77.6882 172.903 75.9574C174.2 74.305 176.236 73.3942 178.636 73.3942C183.793 73.3942 189.035 77.5769 190.322 82.717C190.95 85.2225 190.548 87.5536 189.191 89.283Z" fill="#FF7900"/>
<path d="M182.312 84.8625L181.309 77.8831L181.231 77.5671H178.408L178.487 77.8831L180.98 84.8625H182.312Z" fill="#FF7900"/>
<path d="M180.669 86.095L181.302 88.6224H183.873L183.239 86.095H180.669Z" fill="#FF7900"/>
<path d="M212.12 55.7598C212.744 55.7598 213.127 55.2515 212.973 54.6293C212.817 54.0084 212.179 53.4988 211.555 53.4988H191.345C190.721 53.4988 190.338 54.007 190.492 54.6293C190.648 55.2502 191.285 55.7598 191.91 55.7598H212.12Z" fill="#898888"/>
<path d="M209.619 39.7074C209.463 39.0865 208.826 38.5769 208.201 38.5769H187.991C187.368 38.5769 186.984 39.0851 187.139 39.7074C187.295 40.3283 187.932 40.8379 188.557 40.8379H208.767C209.39 40.8365 209.774 40.3283 209.619 39.7074Z" fill="#898888"/>
<path d="M213.199 60.0645C213.824 60.0645 214.206 59.5562 214.051 58.934C213.895 58.3131 213.258 57.8035 212.633 57.8035H192.423C191.8 57.8035 191.416 58.3117 191.571 58.934C191.727 59.5548 192.364 60.0645 192.989 60.0645H213.199Z" fill="#898888"/>
<path d="M215.127 63.2404C214.971 62.6195 214.334 62.1099 213.709 62.1099H193.499C192.876 62.1099 192.492 62.6181 192.647 63.2404C192.802 63.8612 193.44 64.3709 194.065 64.3709H214.274C214.899 64.3695 215.283 63.8612 215.127 63.2404Z" fill="#898888"/>
<path d="M218.25 79.4753C218.873 79.4753 219.257 78.9671 219.102 78.3448C218.947 77.724 218.309 77.2144 217.684 77.2144H197.475C196.851 77.2144 196.468 77.7226 196.622 78.3448C196.777 78.9671 197.415 79.4753 198.04 79.4753H218.25Z" fill="#898888"/>
<path d="M219.329 83.78C219.952 83.78 220.336 83.2718 220.181 82.6495C220.027 82.0273 219.388 81.519 218.763 81.519H198.553C197.93 81.519 197.546 82.0273 197.701 82.6495C197.857 83.2704 198.494 83.78 199.119 83.78H219.329Z" fill="#898888"/>
<path d="M221.259 86.9545C221.103 86.3336 220.466 85.824 219.841 85.824H199.631C199.007 85.824 198.624 86.3322 198.778 86.9545C198.934 87.5767 199.572 88.085 200.196 88.085H220.406C221.031 88.0836 221.413 87.5754 221.259 86.9545Z" fill="#898888"/>
<path d="M208.768 34.956L207.357 29.3227C207.098 28.2898 206.038 27.4436 205.001 27.4436H43.0148C41.9774 27.4436 41.3401 28.2884 41.5981 29.3227L43.0092 34.956C43.2686 35.9889 44.328 36.8337 45.3667 36.8337H207.352C208.389 36.8351 209.026 35.9889 208.768 34.956Z" fill="#EEEEEE"/>
<path d="M157.844 27.4436L160.196 36.8337H45.3662C44.3289 36.8337 43.2681 35.9889 43.0088 34.9546L41.5976 29.3214C41.3383 28.2884 41.9756 27.4436 43.0143 27.4436H157.844Z" fill="#FF7900"/>
<path d="M178.472 30.4119L178.652 31.1344H180.445L179.509 34.21H180.457L181.375 31.041L181.217 30.4119H178.472Z" fill="#1A1A1A"/>
<path d="M183.363 30.3474C182.349 30.3474 181.879 31.21 182.155 32.3117C182.433 33.4243 183.316 34.276 184.336 34.276C185.354 34.276 185.819 33.4133 185.545 32.3117C185.265 31.1991 184.371 30.3474 183.363 30.3474ZM184.158 33.5205C183.652 33.5205 183.19 33.0054 183.016 32.3103C182.839 31.6057 183.039 31.1002 183.541 31.1002C184.042 31.1002 184.511 31.6208 184.684 32.3103C184.858 33.0109 184.664 33.5205 184.158 33.5205Z" fill="#1A1A1A"/>
<path d="M190.54 33.2817C190.405 32.7391 189.926 32.3105 189.376 32.3105C188.82 32.3105 188.552 32.7446 188.687 33.2817C188.823 33.8243 189.301 34.2529 189.852 34.2529C190.408 34.2529 190.674 33.8133 190.54 33.2817ZM189.74 33.7597C189.522 33.7597 189.325 33.5372 189.261 33.2817C189.197 33.0207 189.261 32.8037 189.49 32.8037C189.708 32.8037 189.906 33.0262 189.969 33.2817C190.033 33.5372 189.968 33.7597 189.74 33.7597Z" fill="#1A1A1A"/>
<path d="M188.793 30.4119L186.959 34.21H187.607L189.441 30.4119H188.793Z" fill="#1A1A1A"/>
<path d="M187.713 31.3405C187.577 30.798 187.099 30.3694 186.548 30.3694C185.992 30.3694 185.726 30.8035 185.86 31.3405C185.995 31.8831 186.474 32.3117 187.024 32.3117C187.58 32.3103 187.845 31.8721 187.713 31.3405ZM186.432 31.3405C186.368 31.0796 186.432 30.8625 186.661 30.8625C186.879 30.8625 187.077 31.085 187.14 31.3405C187.204 31.596 187.14 31.8186 186.911 31.8186C186.693 31.8172 186.496 31.5947 186.432 31.3405Z" fill="#1A1A1A"/>
<path d="M150.254 77.536C151.431 77.536 152.147 76.5855 151.854 75.4138C151.56 74.242 150.369 73.2915 149.192 73.2915H54.7392C53.5626 73.2915 52.8467 74.242 53.1391 75.4138C53.4329 76.5855 54.6247 77.536 55.8014 77.536H150.254Z" fill="#EEEEEE"/>
<path d="M152.019 84.5809C153.195 84.5809 153.911 83.6304 153.619 82.4587C153.326 81.287 152.133 80.3364 150.956 80.3364H56.5022C55.3255 80.3364 54.6096 81.287 54.9021 82.4587C55.1945 83.6304 56.3877 84.5809 57.5643 84.5809H152.019Z" fill="#EEEEEE"/>
<path d="M155.46 89.8159C155.166 88.6441 153.975 87.6936 152.798 87.6936H58.3452C57.1686 87.6936 56.4526 88.6441 56.7451 89.8159C57.0389 90.9876 58.2307 91.9381 59.4073 91.9381H153.862C155.038 91.9381 155.754 90.9876 155.46 89.8159Z" fill="#EEEEEE"/>
<path d="M98.5673 66.0866C98.9357 67.5591 100.434 68.7542 101.914 68.7542H112.448C113.927 68.7542 114.828 67.5605 114.458 66.0866L109.365 45.7486C108.997 44.2761 107.499 43.0811 106.019 43.0811H95.4844C94.0056 43.0811 93.1049 44.2747 93.4746 45.7486L98.5673 66.0866Z" fill="#EEEEEE"/>
<path d="M116.802 66.0866C117.17 67.5591 118.668 68.7542 120.148 68.7542H130.683C132.162 68.7542 133.063 67.5605 132.693 66.0866L127.6 45.7486C127.232 44.2761 125.734 43.0811 124.254 43.0811H113.719C112.24 43.0811 111.339 44.2747 111.709 45.7486L116.802 66.0866Z" fill="#EEEEEE"/>
<path d="M134.696 66.0866C135.064 67.5591 136.562 68.7542 138.042 68.7542H148.577C150.056 68.7542 150.956 67.5605 150.587 66.0866L145.494 45.7486C145.126 44.2761 143.627 43.0811 142.147 43.0811H131.613C130.134 43.0811 129.233 44.2747 129.603 45.7486L134.696 66.0866Z" fill="#EEEEEE"/>
<path d="M94.9962 64.283L90.8069 47.5508C90.189 45.0824 87.6784 43.0811 85.1982 43.0811H49.532C47.0532 43.0811 45.5441 45.0824 46.1621 47.5508L50.3514 64.283C50.9694 66.7514 53.4799 68.7528 55.9601 68.7528H91.6263C94.1065 68.7528 95.6142 66.7514 94.9962 64.283Z" fill="#EEEEEE"/>
<path d="M84.7485 49.4986C85.31 49.4986 85.6562 49.0412 85.5155 48.4808C85.3748 47.9217 84.801 47.4629 84.2395 47.4629H50.9128C50.3514 47.4629 50.0052 47.9203 50.1459 48.4808C50.2866 49.0398 50.8604 49.4986 51.4218 49.4986H84.7485Z" fill="#898888"/>
<path d="M85.7295 53.4122C86.2909 53.4122 86.6371 52.9548 86.4964 52.3943C86.3557 51.8353 85.7819 51.3765 85.2205 51.3765H51.8938C51.3324 51.3765 50.9861 51.8339 51.1268 52.3943C51.2675 52.9534 51.8414 53.4122 52.4028 53.4122H85.7295Z" fill="#898888"/>
<path d="M87.4757 56.3074C87.335 55.7483 86.7612 55.2896 86.1997 55.2896H52.873C52.3116 55.2896 51.9654 55.747 52.1061 56.3074C52.2468 56.8665 52.8206 57.3253 53.382 57.3253H86.7087C87.2715 57.3253 87.6164 56.8679 87.4757 56.3074Z" fill="#898888"/>
<path d="M61.8336 59.6729H53.9709C53.4095 59.6729 53.0633 60.1303 53.204 60.6907C53.3447 61.2498 53.9185 61.7086 54.4799 61.7086H62.3426C62.904 61.7086 63.2503 61.2511 63.1096 60.6907C62.9689 60.1316 62.395 59.6729 61.8336 59.6729Z" fill="#898888"/>
<path d="M233.957 108.958L231.76 100.181C231.436 98.8861 230.118 97.8367 228.819 97.8367H210.111C208.81 97.8367 208.02 98.8861 208.344 100.181L210.542 108.958C210.866 110.253 212.183 111.302 213.484 111.302H232.192C233.491 111.302 234.281 110.253 233.957 108.958Z" fill="#EEEEEE"/>
<path d="M228.583 101.204C228.878 101.204 229.059 100.963 228.986 100.669C228.913 100.375 228.611 100.136 228.317 100.136H210.837C210.542 100.136 210.361 100.377 210.434 100.669C210.507 100.963 210.809 101.204 211.103 101.204H228.583Z" fill="#898888"/>
<path d="M229.096 103.255C229.392 103.255 229.572 103.015 229.499 102.721C229.426 102.427 229.124 102.187 228.83 102.187H211.35C211.055 102.187 210.874 102.427 210.947 102.721C211.02 103.015 211.323 103.255 211.616 103.255H229.096Z" fill="#898888"/>
<path d="M230.012 104.775C229.939 104.481 229.637 104.24 229.343 104.24H211.863C211.568 104.24 211.387 104.481 211.461 104.775C211.534 105.069 211.836 105.308 212.13 105.308H229.61C229.905 105.308 230.087 105.069 230.012 104.775Z" fill="#898888"/>
<path d="M216.564 106.54H212.439C212.143 106.54 211.963 106.78 212.036 107.074C212.109 107.368 212.411 107.607 212.705 107.607H216.83C217.125 107.607 217.306 107.367 217.233 107.074C217.16 106.78 216.858 106.54 216.564 106.54Z" fill="#898888"/>
<path d="M104.23 102.536C104.674 102.536 104.945 102.177 104.833 101.735C104.723 101.293 104.273 100.934 103.829 100.934H68.2025C67.7583 100.934 67.4879 101.293 67.5997 101.735C67.71 102.177 68.1597 102.536 68.6039 102.536H104.23Z" fill="#FF7900"/>
<path d="M104.895 105.192C105.339 105.192 105.61 104.834 105.498 104.392C105.388 103.949 104.938 103.591 104.494 103.591H68.8675C68.4233 103.591 68.153 103.949 68.2647 104.392C68.3751 104.834 68.8247 105.192 69.2689 105.192H104.895Z" fill="#FF7900"/>
<path d="M105.189 106.367H69.5616C69.1174 106.367 68.8471 106.725 68.9588 107.168C69.0691 107.61 69.5188 107.968 69.963 107.968H105.591C106.035 107.968 106.305 107.61 106.193 107.168C106.082 106.725 105.633 106.367 105.189 106.367Z" fill="#FF7900"/>
<path d="M150.209 102.536C150.653 102.536 150.923 102.177 150.812 101.735C150.701 101.293 150.252 100.934 149.807 100.934H114.18C113.736 100.934 113.465 101.293 113.577 101.735C113.687 102.177 114.137 102.536 114.581 102.536H150.209Z" fill="#FF7900"/>
<path d="M150.874 105.192C151.318 105.192 151.588 104.834 151.476 104.392C151.366 103.949 150.916 103.591 150.472 103.591H114.845C114.4 103.591 114.13 103.949 114.242 104.392C114.352 104.834 114.802 105.192 115.246 105.192H150.874Z" fill="#FF7900"/>
<path d="M151.167 106.367H115.54C115.096 106.367 114.825 106.725 114.937 107.168C115.047 107.61 115.497 107.968 115.941 107.968H151.569C152.013 107.968 152.283 107.61 152.172 107.168C152.06 106.725 151.612 106.367 151.167 106.367Z" fill="#FF7900"/>
<path d="M194.772 102.536C195.216 102.536 195.487 102.177 195.375 101.735C195.265 101.293 194.815 100.934 194.371 100.934H158.743C158.299 100.934 158.029 101.293 158.14 101.735C158.251 102.177 158.7 102.536 159.145 102.536H194.772Z" fill="#FF7900"/>
<path d="M195.437 105.192C195.881 105.192 196.152 104.834 196.04 104.392C195.93 103.949 195.48 103.591 195.036 103.591H159.408C158.964 103.591 158.694 103.949 158.805 104.392C158.916 104.834 159.366 105.192 159.81 105.192H195.437Z" fill="#FF7900"/>
<path d="M196.735 107.168C196.625 106.725 196.175 106.367 195.731 106.367H160.103C159.659 106.367 159.389 106.725 159.5 107.168C159.611 107.61 160.06 107.968 160.504 107.968H196.132C196.575 107.967 196.845 107.61 196.735 107.168Z" fill="#FF7900"/>
<path d="M203.628 112.515H66.2369C65.023 112.515 63.7912 111.536 63.4891 110.333L60.7455 99.3751C60.5896 98.7515 60.7027 98.1348 61.0558 97.6842C61.4035 97.2419 61.9345 96.9988 62.5525 96.9988H199.944C201.158 96.9988 202.389 97.9782 202.692 99.1815L205.435 110.139C205.591 110.763 205.478 111.379 205.125 111.83C204.777 112.272 204.246 112.515 203.628 112.515ZM62.5525 97.801C62.1883 97.801 61.8821 97.9356 61.6917 98.1787C61.489 98.437 61.431 98.7941 61.5276 99.1815L64.2713 110.139C64.4851 110.992 65.3844 111.713 66.2369 111.713H203.628C203.992 111.713 204.299 111.578 204.489 111.335C204.692 111.077 204.75 110.72 204.653 110.333L201.909 99.3751C201.696 98.5221 200.795 97.801 199.944 97.801H62.5525Z" fill="#FF7900"/>
</svg>
