<svg width="266" height="150" viewBox="0 0 266 150" fill="none" xmlns="http://www.w3.org/2000/svg">
<g clip-path="url(#clip0_1598_13668)">
<path opacity="0.1" d="M128.664 149.625C174.978 149.625 212.523 145.916 212.523 141.34C212.523 136.765 174.978 133.055 128.664 133.055C82.3498 133.055 44.8047 136.765 44.8047 141.34C44.8047 145.916 82.3498 149.625 128.664 149.625Z" fill="#2A94F4"/>
<path d="M124.688 13.6741H199.763V141.216H124.688V13.6741Z" fill="#D3D3D3"/>
<path d="M111.18 7.2041H190.065V141.202H111.18V7.2041Z" fill="#F2F2F2"/>
<path d="M97.7812 1.1499H180.241V141.216H97.7812V1.1499Z" fill="#FFBE55"/>
<path opacity="0.33" d="M97.7812 1.1499H180.241V141.216H97.7812V1.1499Z" fill="white"/>
<path d="M167.969 76.1562H110.045V18.2319H167.969V76.1562ZM114.021 72.1939H163.993V22.2081H114.021V72.1939Z" fill="white"/>
<path d="M107.73 44.6103C110.072 47.9491 112.413 51.288 114.754 54.6407C118.467 59.9468 122.18 65.2391 125.907 70.5453C126.78 71.7783 127.639 73.0113 128.512 74.2582C128.983 74.9232 130.895 77.1399 131.726 75.7544C134.206 71.5428 136.824 67.4142 139.47 63.3134C145.358 54.1974 151.523 45.2476 158.104 36.6164C162.108 31.3657 166.278 26.2397 170.739 21.3768C172.54 19.4095 167.664 12.8842 166.472 14.1727C158.423 22.9424 151.232 32.4602 144.416 42.1997C139.235 49.5978 134.275 57.1483 129.537 64.8374L128.456 66.583C127.916 67.4697 128.124 67.9684 127.154 66.583C125.782 64.6295 124.411 62.6761 123.039 60.7088C119.326 55.4027 115.613 50.1104 111.887 44.8042C111.014 43.5712 110.155 42.3382 109.282 41.0913C108.839 40.454 106.816 38.1542 106.068 39.5951C105.347 41.0498 106.982 43.5435 107.73 44.6103Z" fill="#0B4870"/>
<path d="M110.045 93.7651H167.969V98.0461H110.045V93.7651ZM110.045 103.158H167.969V107.439H110.045V103.158ZM110.045 113.563H149.183V117.844H110.045V113.563Z" fill="white"/>
<path d="M80.3826 36.1455C80.3826 36.1455 83.4028 29.7171 82.0174 26.7939C80.632 23.8707 78.3322 23.2195 75.6307 23.7044C72.9291 24.1893 71.987 22.7485 71.5852 23.1503C71.1835 23.552 70.8787 24.8959 71.225 24.8959C71.5852 24.8959 70.0751 26.0042 70.3106 26.7939C70.5462 27.5836 68.4403 35.619 74.176 36.575C79.9116 37.5309 80.3826 36.1455 80.3826 36.1455Z" fill="#0B4870"/>
<path d="M64.1172 137.433H67.8301L68.2873 133.152H64.5882L64.1172 137.433Z" fill="#FCD2B1"/>
<path d="M64.1174 135.799C64.1174 135.799 60.7924 138.5 58.3817 138.251C55.9711 138.015 55.8326 140.08 55.791 141.146H63.4801C63.4801 141.146 65.0317 139.678 66.0292 141.146H68.3013V135.799C68.2875 135.799 66.1678 136.755 64.1174 135.799Z" fill="#0B4870"/>
<path d="M86.5607 137.433H82.8617L82.3906 133.152H86.1035L86.5607 137.433Z" fill="#FCD2B1"/>
<path d="M65.3913 75.2558L63.5625 133.817H69.118C69.118 133.817 71.1823 92.9891 75.2139 90.6062C79.6749 87.9739 82.0024 133.817 82.0024 133.817H86.7128C86.7128 133.817 85.4936 77.0845 85.0226 75.2558C84.8702 74.5769 68.4946 67.9131 65.3913 75.2558Z" fill="#0E538C"/>
<path d="M68.1633 41.9226C68.1633 41.9226 73.5664 36.9351 82.0175 41.0082C84.0817 42.0057 85.0515 73.6763 85.0515 75.2696C85.0515 75.2696 78.0967 79.3981 65.4063 75.2696C65.3925 75.2557 67.6368 42.2828 68.1633 41.9226Z" fill="#FFBE55"/>
<path d="M88.2079 48.4341C88.2079 48.4341 96.271 57.0098 98.0582 56.5803C100.829 55.9153 109.114 53.671 109.114 53.671L110.014 55.3612C110.014 55.3612 101.397 61.0414 97.7119 61.3877C94.0266 61.7341 85.0214 51.8283 85.0214 51.8283L88.2079 48.4341ZM65.9027 51.4543C65.9027 51.4543 59.696 58.6446 59.6129 60.7089C59.5298 62.7731 64.7805 71.1272 64.7805 71.1272L63.5752 73.3023C63.5752 73.3023 56.0524 65.0452 54.8332 62.0527C53.614 59.0602 62.5361 48.3787 62.5361 48.3787L65.9027 51.4543Z" fill="#FCD2B1"/>
<path d="M66.2907 52.9091L61.5664 47.9631C61.5664 47.9631 67.6622 40.2048 71.7077 40.371C74.811 40.4957 72.5528 49.1269 66.2907 52.9091ZM84.1071 52.7567L88.8868 47.8661C88.8868 47.8661 84.7306 40.6758 80.6852 40.8005C77.5957 40.8836 77.9005 48.8914 84.1071 52.7567Z" fill="#FFBE55"/>
<path d="M72.4434 33.4439V40.6066C72.4434 42.0197 73.5933 43.1696 75.0064 43.1696C76.4195 43.1696 77.5694 42.0197 77.5694 40.6066V33.0283L72.4434 33.4439Z" fill="#FCD2B1"/>
<path d="M81.0187 26.7939C81.0187 26.7939 83.8727 36.1455 79.9104 37.5171C75.9481 38.8886 72.7201 36.0347 72.6646 33.9288C72.6646 33.9288 69.8523 31.8646 72.0828 30.2852C72.817 29.7587 73.5097 30.8117 73.5097 31.6013C73.5097 32.391 74.0362 31.8092 74.0362 31.4489V27.9023C74.0362 27.9023 80.229 30.5346 81.0187 26.7939Z" fill="#FFE3CA"/>
<path d="M86.5746 135.799C86.5746 135.799 89.8996 138.5 92.3102 138.251C94.7208 138.015 94.8594 140.08 94.9009 141.146H87.2119C87.2119 141.146 85.6602 139.678 84.6627 141.146H82.3906V135.799C82.3906 135.799 84.5103 136.755 86.5746 135.799Z" fill="#0B4870"/>
<path d="M64.7687 71.1272C64.7687 71.1272 66.4312 72.2494 65.8909 74.3275C65.3506 76.4195 63.8267 78.4145 62.3443 78.3175C61.8317 78.2759 61.3883 78.1235 61.0004 77.9296C60.1553 77.514 59.7535 76.5026 60.1692 75.6575C60.2939 75.3943 60.4601 75.2696 60.6679 75.5328C61.2359 76.2671 63.7158 74.7154 63.5634 73.2884C63.411 71.8753 62.1087 69.3261 64.7687 71.1272Z" fill="#FCD2B1"/>
<path d="M110.002 50.4153C110.002 50.4153 111.512 55.6937 109.129 55.6244C106.76 55.5413 105.652 52.1609 110.002 50.4153Z" fill="#FFE3CA"/>
</g>
<defs>
<clipPath id="clip0_1598_13668">
<rect width="266" height="149.625" fill="white"/>
</clipPath>
</defs>
</svg>
