<svg width="20" height="20" viewBox="0 0 20 20" fill="none" xmlns="http://www.w3.org/2000/svg">
<g clip-path="url(#clip0_689_2102)">
<path d="M9.11625 5.88375C8.62813 5.39562 8.62813 4.60437 9.11625 4.11625C9.60437 3.62812 10.3956 3.62812 10.8837 4.11625C11.3719 4.60437 11.3719 5.39562 10.8837 5.88375C10.3956 6.37187 9.60437 6.37187 9.11625 5.88375ZM19.375 10C19.375 15.1694 15.1694 19.375 10 19.375C4.83063 19.375 0.625 15.1694 0.625 10C0.625 4.83063 4.83063 0.625 10 0.625C15.1694 0.625 19.375 4.83063 19.375 10ZM18.125 10C18.125 5.52 14.48 1.875 10 1.875C5.52 1.875 1.875 5.52 1.875 10C1.875 14.48 5.52 18.125 10 18.125C14.48 18.125 18.125 14.48 18.125 10ZM11.875 15H11.25V8.125C11.25 7.78 10.97 7.5 10.625 7.5H9.375C9.03 7.5 8.75 7.78 8.75 8.125C8.75 8.47 9.03 8.75 9.375 8.75H10V15H9.375C9.03 15 8.75 15.28 8.75 15.625C8.75 15.97 9.03 16.25 9.375 16.25H11.875C12.22 16.25 12.5 15.97 12.5 15.625C12.5 15.28 12.22 15 11.875 15Z" fill="#1A1A1A"/>
</g>
<defs>
<clipPath id="clip0_689_2102">
<rect width="20" height="20" fill="white"/>
</clipPath>
</defs>
</svg>
