<svg width="16" height="16" viewBox="0 0 16 16" fill="none" xmlns="http://www.w3.org/2000/svg">
<g id="Calendar Clock">
<path id="Shape" d="M13.6 3.275C13.6 2.01855 12.5814 1 11.325 1H3.275C2.01855 1 1 2.01855 1 3.275V11.325C1 12.5814 2.01855 13.6 3.275 13.6H7.31527C7.10768 13.2757 6.94008 12.9234 6.81945 12.55H3.275C2.59845 12.55 2.05 12.0015 2.05 11.325V4.85H12.55V6.81945C12.9234 6.94008 13.2757 7.10768 13.6 7.31527V3.275ZM3.275 2.05H11.325C12.0015 2.05 12.55 2.59845 12.55 3.275V3.8H2.05V3.275C2.05 2.59845 2.59845 2.05 3.275 2.05ZM15 11.15C15 9.0237 13.2763 7.3 11.15 7.3C9.0237 7.3 7.3 9.0237 7.3 11.15C7.3 13.2763 9.0237 15 11.15 15C13.2763 15 15 13.2763 15 11.15ZM11.15 11.15H12.55C12.7433 11.15 12.9 11.3067 12.9 11.5C12.9 11.6933 12.7433 11.85 12.55 11.85H10.8C10.6088 11.85 10.4534 11.6967 10.4501 11.5062L10.45 11.5V9.39995C10.45 9.20665 10.6067 9.04995 10.8 9.04995C10.9933 9.04995 11.15 9.20665 11.15 9.39995L11.15 11.15Z" fill="#FF7900"/>
</g>
</svg>
