<svg width="24" height="24" viewBox="0 0 24 24" fill="none" xmlns="http://www.w3.org/2000/svg">
<g clip-path="url(#clip0_2153_5866)">
<path d="M10.0277 12.8326C10.9252 12.8326 11.8024 12.5665 12.5486 12.0679C13.2948 11.5693 13.8764 10.8606 14.2198 10.0315C14.5633 9.20238 14.6531 8.29004 14.478 7.40985C14.303 6.52966 13.8708 5.72115 13.2362 5.08657C12.6017 4.45199 11.7931 4.01984 10.913 3.84476C10.0328 3.66968 9.12043 3.75953 8.29131 4.10297C7.46219 4.4464 6.75353 5.02798 6.25494 5.77417C5.75635 6.52036 5.49023 7.39764 5.49023 8.29507C5.49222 9.49788 5.97091 10.6509 6.82143 11.5014C7.67194 12.3519 8.82492 12.8306 10.0277 12.8326ZM10.0277 5.25007C10.6285 5.25007 11.2158 5.42822 11.7153 5.76198C12.2148 6.09575 12.6041 6.57014 12.834 7.12517C13.0639 7.6802 13.1241 8.29094 13.0069 8.88016C12.8897 9.46937 12.6004 10.0106 12.1756 10.4354C11.7508 10.8602 11.2095 11.1495 10.6203 11.2667C10.0311 11.3839 9.42036 11.3238 8.86533 11.0939C8.3103 10.864 7.83591 10.4746 7.50215 9.97511C7.16838 9.4756 6.99023 8.88833 6.99023 8.28757C6.99221 7.48258 7.31287 6.71113 7.88208 6.14192C8.4513 5.57271 9.22275 5.25205 10.0277 5.25007ZM19.2827 21.9676C19.213 21.8973 19.1301 21.8415 19.0387 21.8034C18.9473 21.7653 18.8492 21.7457 18.7502 21.7457C18.6512 21.7457 18.5532 21.7653 18.4618 21.8034C18.3704 21.8415 18.2875 21.8973 18.2177 21.9676C18.1495 22.0389 18.0959 22.123 18.0602 22.2151C18.0218 22.3052 18.0014 22.4021 18.0002 22.5001C18.0002 22.699 18.0793 22.8897 18.2199 23.0304C18.3606 23.1711 18.5513 23.2501 18.7502 23.2501C18.9491 23.2501 19.1399 23.1711 19.2806 23.0304C19.4212 22.8897 19.5002 22.699 19.5002 22.5001C19.499 22.4021 19.4787 22.3052 19.4402 22.2151C19.4045 22.123 19.351 22.0389 19.2827 21.9676ZM15.7502 21.7501H12.7502C12.5513 21.7501 12.3606 21.8291 12.2199 21.9697C12.0793 22.1104 12.0002 22.3012 12.0002 22.5001C12.0002 22.699 12.0793 22.8897 12.2199 23.0304C12.3606 23.1711 12.5513 23.2501 12.7502 23.2501H15.7502C15.9491 23.2501 16.1399 23.1711 16.2806 23.0304C16.4212 22.8897 16.5002 22.699 16.5002 22.5001C16.5002 22.3012 16.4212 22.1104 16.2806 21.9697C16.1399 21.8291 15.9491 21.7501 15.7502 21.7501Z" fill="#999999"/>
<path d="M18.21 20.1976H18.2625C18.3025 20.1737 18.3401 20.146 18.375 20.1151L18.465 20.0401C18.4998 19.9985 18.53 19.9532 18.555 19.9051C18.6119 19.8315 18.6458 19.7428 18.6525 19.6501C18.6566 19.6052 18.6566 19.56 18.6525 19.5151C18.6575 19.4652 18.6575 19.415 18.6525 19.3651C18.6555 19.3277 18.6555 19.29 18.6525 19.2526C17.9944 17.4978 16.8186 15.9845 15.281 14.913C13.7435 13.8415 11.9166 13.2624 10.0425 13.2526C7.59353 13.2778 5.2513 14.2587 3.51533 15.9863C1.77936 17.7138 0.787038 20.0513 0.75 22.5001C0.75 22.699 0.829018 22.8898 0.96967 23.0304C1.11032 23.1711 1.30109 23.2501 1.5 23.2501H9.75C9.94891 23.2501 10.1397 23.1711 10.2803 23.0304C10.421 22.8898 10.5 22.699 10.5 22.5001C10.5 22.3012 10.421 22.1104 10.2803 21.9698C10.1397 21.8291 9.94891 21.7501 9.75 21.7501H2.31C2.51202 19.8367 3.40952 18.064 4.83216 16.7685C6.2548 15.4731 8.10355 14.745 10.0275 14.7226C11.6014 14.7316 13.1352 15.2193 14.4253 16.1209C15.7153 17.0225 16.7005 18.2952 17.25 19.7701V19.8301C17.3266 19.9788 17.4507 20.0975 17.6025 20.1676H17.64C17.725 20.2052 17.817 20.2246 17.91 20.2246C18.003 20.2246 18.095 20.2052 18.18 20.1676L18.21 20.1976ZM13.26 2.9251C13.5329 2.68026 13.8549 2.49641 14.2045 2.3858C14.554 2.27519 14.9232 2.24036 15.2873 2.28362C15.6514 2.32689 16.002 2.44726 16.316 2.63672C16.6299 2.82618 16.8998 3.08037 17.1077 3.38235C17.3157 3.68433 17.4569 4.02716 17.5219 4.388C17.5869 4.74884 17.5743 5.1194 17.4849 5.47497C17.3954 5.83055 17.2312 6.16298 17.0032 6.4501C16.7752 6.73723 16.4886 6.97245 16.1625 7.1401C16.0743 7.18442 15.9958 7.24567 15.9313 7.32035C15.8668 7.39503 15.8177 7.48168 15.7867 7.57535C15.7557 7.66902 15.7435 7.76788 15.7507 7.86628C15.7579 7.96468 15.7844 8.0607 15.8287 8.14885C15.8731 8.237 15.9343 8.31556 16.009 8.38004C16.0837 8.44451 16.1703 8.49365 16.264 8.52464C16.3577 8.55564 16.4565 8.56787 16.5549 8.56066C16.6533 8.55345 16.7494 8.52692 16.8375 8.4826C17.353 8.217 17.806 7.84455 18.1663 7.39008C18.5265 6.9356 18.7857 6.40955 18.9267 5.847C19.0676 5.28445 19.0869 4.69832 18.9835 4.12769C18.88 3.55706 18.6561 3.01504 18.3266 2.53778C17.9971 2.06052 17.5697 1.65898 17.0728 1.35993C16.576 1.06088 16.021 0.871189 15.4451 0.803512C14.8691 0.735835 14.2853 0.791723 13.7326 0.967451C13.18 1.14318 12.6711 1.43471 12.24 1.8226C12.1676 1.88957 12.1091 1.97015 12.0679 2.05973C12.0266 2.14931 12.0034 2.24614 11.9996 2.34468C11.9958 2.44323 12.0114 2.54156 12.0455 2.63407C12.0797 2.72658 12.1318 2.81146 12.1987 2.88385C12.2657 2.95624 12.3463 3.01473 12.4359 3.05598C12.5255 3.09723 12.6223 3.12044 12.7208 3.12427C12.8194 3.1281 12.9177 3.11248 13.0102 3.07831C13.1027 3.04413 13.1876 2.99207 13.26 2.9251ZM15.825 9.1276C15.6261 9.10771 15.4274 9.16765 15.2727 9.29424C15.118 9.42082 15.0199 9.60369 15 9.8026C14.9801 10.0015 15.0401 10.2002 15.1666 10.3549C15.2932 10.5096 15.4761 10.6077 15.675 10.6276C17.202 10.8127 18.6229 11.5043 19.7106 12.592C20.7983 13.6797 21.4899 15.1006 21.675 16.6276H19.5C19.3011 16.6276 19.1103 16.7066 18.9697 16.8473C18.829 16.9879 18.75 17.1787 18.75 17.3776C18.75 17.5765 18.829 17.7673 18.9697 17.9079C19.1103 18.0486 19.3011 18.1276 19.5 18.1276H22.5C22.6989 18.1276 22.8897 18.0486 23.0303 17.9079C23.171 17.7673 23.25 17.5765 23.25 17.3776C23.2225 15.3361 22.4545 13.3741 21.0887 11.8566C19.7229 10.339 17.8523 9.36922 15.825 9.1276Z" fill="#999999"/>
</g>
<defs>
<clipPath id="clip0_2153_5866">
<rect width="24" height="24" fill="white"/>
</clipPath>
</defs>
</svg>
