<svg width="16" height="16" viewBox="0 0 16 16" fill="none" xmlns="http://www.w3.org/2000/svg">
<path id="Vector o&#39;clock" d="M8 0C12.4183 0 16 3.58172 16 8C16 12.4183 12.4183 16 8 16C3.58172 16 0 12.4183 0 8C0 3.58172 3.58172 0 8 0ZM8 1.33333C4.3181 1.33333 1.33333 4.3181 1.33333 8C1.33333 11.6819 4.3181 14.6667 8 14.6667C11.6819 14.6667 14.6667 11.6819 14.6667 8C14.6667 4.3181 11.6819 1.33333 8 1.33333ZM7.33537 4C7.66265 4 7.93485 4.23583 7.99129 4.54683L8.00204 4.66667V8H10C10.3682 8 10.6667 8.29848 10.6667 8.66667C10.6667 8.99395 10.4308 9.26614 10.1198 9.32259L10 9.33333H7.33537C7.00809 9.33333 6.73589 9.0975 6.67944 8.7865L6.6687 8.66667V4.66667C6.6687 4.29848 6.96718 4 7.33537 4Z" fill="#EEEEEE"/>
</svg>
