<svg width="24" height="24" viewBox="0 0 24 24" fill="none" xmlns="http://www.w3.org/2000/svg">
<path d="M3.3825 4.06602C3.32146 4.11869 3.27245 4.18388 3.23881 4.25715C3.20517 4.33043 3.18767 4.41008 3.1875 4.49071V20.2501C3.1875 20.3993 3.24676 20.5423 3.35225 20.6478C3.45774 20.7533 3.60082 20.8126 3.75 20.8126C3.89918 20.8126 4.04226 20.7533 4.14775 20.6478C4.25324 20.5423 4.3125 20.3993 4.3125 20.2501V16.0107C6.945 13.8741 9.17625 14.9795 11.7506 16.2516C13.2619 17.0016 14.8903 17.806 16.6256 17.806C17.8978 17.806 19.2281 17.3748 20.6156 16.1729C20.6768 16.1206 20.726 16.0558 20.7599 15.9829C20.7939 15.9099 20.8118 15.8305 20.8125 15.7501V4.49071C20.8126 4.38281 20.7817 4.27716 20.7234 4.18636C20.6652 4.09555 20.582 4.02341 20.4839 3.97855C20.3858 3.93369 20.2768 3.91799 20.17 3.93334C20.0632 3.94868 19.9631 3.99441 19.8816 4.06508C17.1628 6.42008 14.8866 5.29227 12.2494 3.98633C9.63469 2.69164 6.65625 1.23383 3.3825 4.06602ZM19.6875 15.4848C17.055 17.6223 14.8238 16.516 12.2494 15.2429C9.88125 14.0701 7.22719 12.7566 4.3125 14.6251V4.75508C6.945 2.61758 9.17625 3.72383 11.7506 4.99508C14.1187 6.16789 16.7728 7.48133 19.6875 5.61664V15.4848Z" fill="#999999"/>
</svg>
