<svg width="25" height="25" viewBox="0 0 25 25" fill="none" xmlns="http://www.w3.org/2000/svg">
<path d="M22.8643 7.17904C22.9528 7.14721 23.0293 7.08916 23.0833 7.01276C23.1374 6.93636 23.1664 6.84534 23.1664 6.75204C23.1664 6.65875 23.1374 6.56772 23.0833 6.49133C23.0293 6.41493 22.9528 6.35687 22.8643 6.32504C11.4447 2.38666 12.2424 2.60925 12.0178 2.69101L1.47378 6.32504C1.38432 6.35603 1.30675 6.41373 1.25175 6.4902C1.19674 6.56666 1.167 6.65814 1.16663 6.75204C1.16663 7.18358 1.41876 7.16087 3.4588 7.86497V10.4678C3.19128 10.5616 2.95956 10.735 2.79542 10.9643C2.63127 11.1936 2.54273 11.4677 2.54193 11.7488V13.5659C2.54193 13.6863 2.59023 13.8019 2.6762 13.8871C2.76217 13.9722 2.87878 14.0201 3.00036 14.0201H4.8341C4.95569 14.0201 5.07229 13.9722 5.15826 13.8871C5.24424 13.8019 5.29254 13.6863 5.29254 13.5659V11.7488C5.29174 11.4677 5.2032 11.1936 5.03905 10.9643C4.8749 10.735 4.64319 10.5616 4.37567 10.4678V8.19657L6.50739 8.92792L5.75097 14.8741C5.73762 14.9802 5.76249 15.0876 5.82119 15.1774C5.87989 15.2671 5.96866 15.3334 6.07187 15.3647C6.95207 15.6327 7.44718 15.4919 4.23814 15.7281C4.11698 15.741 3.99964 15.7778 3.89298 15.8361C3.78631 15.8945 3.69246 15.9734 3.61691 16.0681C3.54136 16.1629 3.48563 16.2716 3.45297 16.3879C3.42031 16.5042 3.41138 16.6258 3.42671 16.7456C2.92243 16.8319 2.45024 16.8592 2.07891 17.3816C1.64798 17.9948 1.86345 18.4582 2.1706 20.1889C2.22659 20.5041 2.3928 20.7898 2.64008 20.9958C2.88736 21.2018 3.19993 21.3149 3.52298 21.3154C3.75767 21.3015 3.99077 21.2681 4.2198 21.2155C4.26557 21.4166 4.37899 21.5963 4.54144 21.725C4.70389 21.8538 4.90571 21.924 5.11375 21.9241C5.3017 21.9241 4.83869 22.0377 11.0367 20.307C11.5364 23.1279 11.2659 23.0325 13.1959 21.9786L14.4612 22.1967C14.5333 22.2073 14.607 22.2006 14.676 22.1774C14.745 22.1541 14.8075 22.1149 14.8581 22.0629C14.9088 22.0109 14.9462 21.9477 14.9673 21.8786C14.9883 21.8094 14.9924 21.7363 14.9793 21.6652L14.6308 19.7028L20.5217 19.2486C20.6441 19.2373 20.7629 19.2018 20.8712 19.1442C20.9794 19.0866 21.0749 19.0079 21.1519 18.913C21.2288 18.8181 21.2858 18.7088 21.3193 18.5917C21.3528 18.4745 21.3622 18.3519 21.3469 18.231L21.8053 18.1493C22.1638 18.0861 22.4823 17.8847 22.6911 17.5893C22.8999 17.2938 22.982 16.9283 22.9193 16.573C22.6122 14.8287 22.6443 14.3245 22.0391 13.902C21.434 13.4795 21.026 13.6749 20.5538 13.7566C20.5266 13.6368 20.4752 13.5236 20.4026 13.424C20.33 13.3245 20.2378 13.2405 20.1315 13.1772C20.0252 13.114 19.9071 13.0727 19.7843 13.056C19.6614 13.0392 19.5365 13.0473 19.4169 13.0798L18.3763 13.3705L17.8124 8.91883L22.8643 7.17904ZM4.37567 13.1116H3.4588V11.7488C3.4588 11.6284 3.5071 11.5128 3.59307 11.4276C3.67904 11.3424 3.79565 11.2946 3.91723 11.2946C4.03882 11.2946 4.15542 11.3424 4.24139 11.4276C4.32737 11.5128 4.37567 11.6284 4.37567 11.7488V13.1116ZM12.1691 3.59952L21.3377 6.75204L12.1691 9.90457L6.04437 7.79683L10.9267 7.34257C11.0637 7.63378 11.3001 7.86767 11.5942 8.00295C11.8883 8.13823 12.2211 8.16619 12.534 8.08191C12.8469 7.99763 13.1197 7.80653 13.3042 7.54233C13.4887 7.27813 13.5731 6.95784 13.5424 6.63799C13.5117 6.31815 13.368 6.01933 13.1366 5.79428C12.9052 5.56924 12.601 5.43244 12.2777 5.40805C11.9544 5.38366 11.6328 5.47323 11.3696 5.66096C11.1065 5.8487 10.9188 6.12251 10.8396 6.43407L3.96308 7.09273L3.00036 6.75204L12.1691 3.59952ZM11.7106 6.75204C11.7106 6.63157 11.7589 6.51603 11.8449 6.43084C11.9309 6.34565 12.0475 6.29779 12.1691 6.29779C12.2906 6.29779 12.4072 6.34565 12.4932 6.43084C12.5792 6.51603 12.6275 6.63157 12.6275 6.75204C12.6275 6.87252 12.5792 6.98806 12.4932 7.07325C12.4072 7.15844 12.2906 7.2063 12.1691 7.2063C12.0475 7.2063 11.9309 7.15844 11.8449 7.07325C11.7589 6.98806 11.7106 6.87252 11.7106 6.75204ZM12.0086 15.3193C12.179 15.4221 12.3711 15.4847 12.5699 15.502C12.7686 15.5193 12.9688 15.491 13.1547 15.4192C13.6131 15.9552 13.4435 15.8371 14.0991 16.0733C14.2183 16.7547 14.1312 16.573 14.585 17.1045C14.342 17.7632 14.365 17.5587 14.4841 18.2401C13.9478 18.6944 14.0624 18.5218 13.824 19.1713C13.1272 19.294 13.3151 19.2122 12.7834 19.6529C12.1095 19.4121 12.3249 19.4348 11.6373 19.5529C11.1788 19.026 11.353 19.1395 10.6929 18.9033C10.5691 18.2083 10.6562 18.3946 10.207 17.8676C10.4453 17.2181 10.4316 17.4134 10.3078 16.732C10.8533 16.2777 10.7296 16.4458 10.968 15.8235C11.6648 15.6781 11.4768 15.7599 12.0086 15.3193ZM2.75739 18.2492C2.74683 18.1904 2.74806 18.1302 2.76101 18.0719C2.77396 18.0136 2.79837 17.9584 2.83286 17.9095C2.86734 17.8606 2.91122 17.8188 2.96199 17.7867C3.01276 17.7546 3.06941 17.7327 3.12873 17.7223L3.58716 17.6451C3.88514 19.2985 3.77512 18.6808 4.04559 20.3252C2.94535 20.5205 3.15165 20.4614 2.75739 18.2492ZM5.10916 21.0202C4.9808 20.3024 5.48049 23.0779 4.32524 16.6321L9.47346 16.255C9.26258 16.4867 9.37719 16.7093 9.47346 17.2317C9.26716 17.7995 9.13422 18.0039 9.3451 18.2538C9.80353 18.8125 9.71184 18.5626 9.84479 19.3167C9.85771 19.3841 9.88587 19.4477 9.92716 19.5028C9.96845 19.5579 10.0218 19.603 10.0832 19.6347L5.10916 21.0202ZM12.1691 21.4971L11.9765 20.416L12.1324 20.3887C13.0492 20.7294 12.875 20.7521 13.6315 20.1298L13.7827 20.1026L14.0028 21.1837C12.8338 21.0111 13.1959 20.952 12.1691 21.4971ZM21.1865 14.5652C21.2458 14.5547 21.3066 14.556 21.3654 14.5688C21.4242 14.5816 21.4799 14.6058 21.5293 14.64C21.5787 14.6742 21.6208 14.7176 21.6532 14.7679C21.6856 14.8182 21.7077 14.8744 21.7182 14.9332L22.0346 16.7456C22.0451 16.8044 22.0439 16.8646 22.0309 16.9229C22.018 16.9812 21.9936 17.0364 21.9591 17.0853C21.9246 17.1343 21.8807 17.176 21.83 17.2081C21.7792 17.2403 21.7225 17.2621 21.6632 17.2726L21.2048 17.3543L20.7464 14.6697L21.1865 14.5652ZM19.6828 13.952C19.7745 14.488 19.3665 12.1895 20.4667 18.3401L15.3185 18.7171C15.511 18.5036 15.4285 18.3264 15.3185 17.7404C15.5431 17.1272 15.6532 16.9637 15.4469 16.7229C14.9884 16.1596 15.0801 16.4095 14.9472 15.6554C14.9342 15.588 14.9061 15.5244 14.8648 15.4693C14.8235 15.4143 14.7702 15.3692 14.7088 15.3374L19.6828 13.952ZM17.5006 13.6158C13.3197 14.7833 13.7369 14.6879 13.6865 14.6333C13.4893 14.3971 13.3106 14.4698 12.6504 14.5834C12.0315 14.3608 11.8665 14.2518 11.6235 14.4562C11.0596 14.9104 11.3118 14.8196 10.5462 14.9513C10.4652 14.966 10.3897 15.002 10.3276 15.0555C10.2654 15.1091 10.219 15.1782 10.1932 15.2557C9.01567 15.1431 7.85099 14.9242 6.71368 14.6016L7.39216 9.21864C12.4487 10.963 12.059 10.8403 12.1691 10.8403C12.2791 10.8403 11.8894 10.963 16.9459 9.21864L17.5006 13.6158Z" fill="#FAFAFA"/>
<path d="M12.3938 18.8488C12.5744 18.8333 12.7502 18.7827 12.9111 18.6999C13.0719 18.617 13.2148 18.5037 13.3314 18.3661C13.448 18.2286 13.5362 18.0697 13.5909 17.8984C13.6455 17.7272 13.6656 17.5469 13.6499 17.3679C13.6343 17.189 13.5832 17.0148 13.4996 16.8554C13.4161 16.696 13.3016 16.5545 13.1628 16.4389C13.0241 16.3233 12.8637 16.236 12.6908 16.1818C12.518 16.1277 12.336 16.1078 12.1554 16.1233C11.7907 16.1546 11.4534 16.3282 11.2179 16.6059C10.9823 16.8836 10.8677 17.2427 10.8993 17.6041C10.9309 17.9656 11.1062 18.2997 11.3864 18.5332C11.6667 18.7666 12.0291 18.8801 12.3938 18.8488ZM12.3159 17.0318C12.3761 17.0213 12.4378 17.0228 12.4974 17.0359C12.5571 17.0491 12.6135 17.0738 12.6635 17.1086C12.7136 17.1434 12.7562 17.1876 12.7889 17.2388C12.8217 17.2899 12.844 17.3469 12.8545 17.4065C12.8651 17.4662 12.8637 17.5273 12.8504 17.5864C12.837 17.6455 12.8121 17.7015 12.777 17.751C12.7419 17.8006 12.6973 17.8428 12.6457 17.8753C12.5941 17.9078 12.5365 17.9298 12.4763 17.9403C12.356 17.9614 12.2321 17.9342 12.1319 17.8648C12.0318 17.7954 11.9635 17.6893 11.9423 17.5701C11.921 17.4508 11.9484 17.328 12.0185 17.2288C12.0885 17.1295 12.1955 17.0619 12.3159 17.0409V17.0318Z" fill="#FAFAFA"/>
</svg>
