<svg width="25" height="24" viewBox="0 0 25 24" fill="none" xmlns="http://www.w3.org/2000/svg">
<path d="M23.3637 6.52084C23.4522 6.48901 23.5287 6.43095 23.5827 6.35456C23.6368 6.27816 23.6657 6.18713 23.6657 6.09384C23.6657 6.00055 23.6368 5.90952 23.5827 5.83312C23.5287 5.75673 23.4522 5.69867 23.3637 5.66684C11.9441 1.72846 12.7418 1.95104 12.5172 2.03281L1.97317 5.66684C1.88371 5.69783 1.80614 5.75553 1.75113 5.83199C1.69613 5.90846 1.66639 5.99994 1.66602 6.09384C1.66602 6.52538 1.91815 6.50267 3.95819 7.20676V9.80964C3.69067 9.90336 3.45895 10.0768 3.2948 10.3061C3.13066 10.5354 3.04212 10.8095 3.04132 11.0906V12.9076C3.04132 13.0281 3.08962 13.1437 3.17559 13.2289C3.26156 13.314 3.37817 13.3619 3.49975 13.3619H5.33349C5.45508 13.3619 5.57168 13.314 5.65765 13.2289C5.74363 13.1437 5.79192 13.0281 5.79192 12.9076V11.0906C5.79113 10.8095 5.70259 10.5354 5.53844 10.3061C5.37429 10.0768 5.14258 9.90336 4.87506 9.80964V7.53837L7.00678 8.26972L6.25036 14.2159C6.23701 14.322 6.26188 14.4294 6.32058 14.5191C6.37928 14.6089 6.46805 14.6752 6.57126 14.7065C7.45146 14.9745 7.94657 14.8337 4.73753 15.0699C4.61637 15.0828 4.49903 15.1196 4.39236 15.1779C4.2857 15.2363 4.19185 15.3152 4.1163 15.4099C4.04075 15.5047 3.98502 15.6134 3.95236 15.7297C3.9197 15.846 3.91077 15.9676 3.9261 16.0874C3.42182 16.1737 2.94963 16.201 2.5783 16.7234C2.14737 17.3366 2.36284 17.8 2.66999 19.5307C2.72598 19.8459 2.89219 20.1316 3.13947 20.3376C3.38675 20.5436 3.69932 20.6567 4.02237 20.6572C4.25706 20.6433 4.49016 20.6099 4.71919 20.5573C4.76496 20.7584 4.87838 20.9381 5.04083 21.0668C5.20328 21.1956 5.4051 21.2658 5.61314 21.2659C5.80109 21.2659 5.33808 21.3795 11.5361 19.6488C12.0358 22.4697 11.7653 22.3743 13.6953 21.3204L14.9606 21.5385C15.0327 21.5491 15.1064 21.5424 15.1754 21.5192C15.2444 21.4959 15.3069 21.4567 15.3575 21.4047C15.4082 21.3527 15.4456 21.2895 15.4666 21.2204C15.4877 21.1512 15.4918 21.0781 15.4786 21.007L15.1302 19.0446L21.0211 18.5904C21.1435 18.5791 21.2623 18.5436 21.3706 18.486C21.4788 18.4284 21.5743 18.3497 21.6512 18.2548C21.7282 18.1599 21.7852 18.0506 21.8187 17.9335C21.8522 17.8163 21.8616 17.6937 21.8463 17.5728L22.3047 17.4911C22.6631 17.4279 22.9817 17.2265 23.1905 16.9311C23.3993 16.6356 23.4814 16.2701 23.4187 15.9148C23.1116 14.1705 23.1437 13.6663 22.5385 13.2438C21.9334 12.8213 21.5254 13.0167 21.0532 13.0984C21.026 12.9786 20.9745 12.8654 20.902 12.7658C20.8294 12.6663 20.7371 12.5823 20.6309 12.519C20.5246 12.4558 20.4065 12.4145 20.2837 12.3978C20.1608 12.381 20.0359 12.3891 19.9163 12.4216L18.8756 12.7123L18.3118 8.26063L23.3637 6.52084ZM4.87506 12.4534H3.95819V11.0906C3.95819 10.9702 4.00649 10.8546 4.09246 10.7694C4.17843 10.6842 4.29504 10.6364 4.41662 10.6364C4.53821 10.6364 4.65481 10.6842 4.74078 10.7694C4.82676 10.8546 4.87506 10.9702 4.87506 11.0906V12.4534ZM12.6684 2.94132L21.8371 6.09384L12.6684 9.24636L6.54376 7.13862L11.4261 6.68437C11.5631 6.97558 11.7995 7.20947 12.0936 7.34475C12.3877 7.48002 12.7205 7.50799 13.0334 7.42371C13.3463 7.33943 13.6191 7.14832 13.8036 6.88413C13.9881 6.61993 14.0724 6.29963 14.0418 5.97979C14.0111 5.65995 13.8674 5.36113 13.636 5.13608C13.4046 4.91103 13.1004 4.77424 12.7771 4.74985C12.4538 4.72545 12.1322 4.81503 11.869 5.00276C11.6059 5.19049 11.4182 5.46431 11.339 5.77586L4.46247 6.43453L3.49975 6.09384L12.6684 2.94132ZM12.21 6.09384C12.21 5.97336 12.2583 5.85782 12.3443 5.77263C12.4303 5.68745 12.5469 5.63959 12.6684 5.63959C12.79 5.63959 12.9066 5.68745 12.9926 5.77263C13.0786 5.85782 13.1269 5.97336 13.1269 6.09384C13.1269 6.21432 13.0786 6.32986 12.9926 6.41505C12.9066 6.50024 12.79 6.54809 12.6684 6.54809C12.5469 6.54809 12.4303 6.50024 12.3443 6.41505C12.2583 6.32986 12.21 6.21432 12.21 6.09384ZM12.508 14.6611C12.6784 14.7639 12.8705 14.8265 13.0692 14.8438C13.268 14.8611 13.4682 14.8328 13.6541 14.761C14.1125 15.297 13.9429 15.1789 14.5984 15.4151C14.7176 16.0965 14.6305 15.9148 15.0844 16.4463C14.8414 17.105 14.8643 16.9005 14.9835 17.5819C14.4472 18.0362 14.5618 17.8636 14.3234 18.5131C13.6266 18.6358 13.8145 18.554 13.2827 18.9947C12.6088 18.7539 12.8243 18.7766 12.1367 18.8947C11.6782 18.3678 11.8524 18.4813 11.1923 18.2451C11.0685 17.5501 11.1556 17.7364 10.7063 17.2094C10.9447 16.5599 10.931 16.7552 10.8072 16.0738C11.3527 15.6195 11.229 15.7876 11.4673 15.1653C12.1642 15.0199 11.9762 15.1017 12.508 14.6611ZM3.25678 17.591C3.24622 17.5322 3.24745 17.472 3.2604 17.4137C3.27335 17.3554 3.29776 17.3002 3.33225 17.2513C3.36673 17.2024 3.41061 17.1606 3.46138 17.1285C3.51215 17.0964 3.5688 17.0745 3.62811 17.0641L4.08655 16.9868C4.38453 18.6403 4.27451 18.0225 4.54498 19.6669C3.44474 19.8623 3.65104 19.8032 3.25678 17.591ZM5.60855 20.362C5.48019 19.6442 5.97988 22.4197 4.82463 15.9739L9.97285 15.5968C9.76197 15.8285 9.87658 16.0511 9.97285 16.5735C9.76655 17.1413 9.63361 17.3457 9.84449 17.5955C10.3029 18.1543 10.2112 17.9044 10.3442 18.6585C10.3571 18.7259 10.3853 18.7895 10.4265 18.8446C10.4678 18.8997 10.5212 18.9448 10.5826 18.9765L5.60855 20.362ZM12.6684 20.8389L12.4759 19.7578L12.6318 19.7305C13.5486 20.0712 13.3744 20.0939 14.1308 19.4716L14.2821 19.4444L14.5022 20.5255C13.3332 20.3529 13.6953 20.2938 12.6684 20.8389ZM21.6858 13.907C21.7451 13.8965 21.806 13.8978 21.8648 13.9106C21.9236 13.9234 21.9793 13.9476 22.0287 13.9818C22.0781 14.016 22.1202 14.0594 22.1526 14.1097C22.185 14.16 22.2071 14.2162 22.2176 14.275L22.5339 16.0874C22.5445 16.1462 22.5433 16.2064 22.5303 16.2647C22.5174 16.323 22.493 16.3782 22.4585 16.4271C22.424 16.4761 22.3801 16.5178 22.3294 16.5499C22.2786 16.582 22.2219 16.6039 22.1626 16.6144L21.7042 16.6961L21.2457 14.0115L21.6858 13.907ZM20.1822 13.2938C20.2739 13.8298 19.8659 11.5313 20.9661 17.6819L15.8179 18.0589C16.0104 17.8454 15.9279 17.6682 15.8179 17.0822C16.0425 16.469 16.1525 16.3055 15.9462 16.0647C15.4878 15.5014 15.5795 15.7513 15.4466 14.9972C15.4336 14.9298 15.4055 14.8662 15.3642 14.8111C15.3229 14.7561 15.2696 14.711 15.2082 14.6792L20.1822 13.2938ZM18 12.9576C13.8191 14.1251 14.2363 14.0297 14.1859 13.9751C13.9887 13.7389 13.8099 13.8116 13.1498 13.9252C12.5309 13.7026 12.3659 13.5936 12.1229 13.798C11.559 14.2522 11.8112 14.1614 11.0456 14.2931C10.9646 14.3078 10.8891 14.3438 10.8269 14.3973C10.7648 14.4509 10.7184 14.52 10.6926 14.5975C9.51506 14.4849 8.35038 14.266 7.21307 13.9433L7.89155 8.56044C12.9481 10.3048 12.5584 10.1821 12.6684 10.1821C12.7785 10.1821 12.3888 10.3048 17.4453 8.56044L18 12.9576Z" fill="#999999"/>
<path d="M12.8932 18.1908C13.0738 18.1753 13.2496 18.1247 13.4104 18.0419C13.5713 17.9591 13.7141 17.8457 13.8308 17.7082C13.9474 17.5707 14.0356 17.4117 14.0902 17.2405C14.1449 17.0692 14.165 16.8889 14.1493 16.71C14.1337 16.531 14.0826 16.3569 13.999 16.1975C13.9154 16.0381 13.801 15.8965 13.6622 15.7809C13.5234 15.6654 13.3631 15.578 13.1902 15.5239C13.0174 15.4697 12.8354 15.4498 12.6548 15.4653C12.2901 15.4966 11.9528 15.6703 11.7172 15.948C11.4817 16.2257 11.3671 16.5848 11.3987 16.9462C11.4303 17.3076 11.6055 17.6418 11.8858 17.8752C12.1661 18.1086 12.5285 18.2222 12.8932 18.1908ZM12.8153 16.3738C12.8755 16.3634 12.9372 16.3648 12.9968 16.378C13.0565 16.3912 13.1129 16.4159 13.1629 16.4507C13.213 16.4855 13.2556 16.5297 13.2883 16.5808C13.3211 16.6319 13.3434 16.6889 13.3539 16.7486C13.3645 16.8082 13.363 16.8694 13.3497 16.9285C13.3364 16.9876 13.3115 17.0435 13.2764 17.0931C13.2413 17.1426 13.1966 17.1849 13.1451 17.2173C13.0935 17.2498 13.0359 17.2719 12.9757 17.2823C12.8554 17.3034 12.7315 17.2763 12.6313 17.2068C12.5312 17.1374 12.4629 17.0314 12.4417 16.9121C12.4204 16.7928 12.4478 16.6701 12.5179 16.5708C12.5879 16.4716 12.6949 16.404 12.8153 16.3829V16.3738Z" fill="#999999"/>
</svg>
