<svg width="24" height="24" viewBox="0 0 24 24" fill="none" xmlns="http://www.w3.org/2000/svg">
<path d="M19.5 4.38462H17.25V3.69231C17.25 3.5087 17.171 3.33261 17.0303 3.20277C16.8897 3.07294 16.6989 3 16.5 3C16.3011 3 16.1103 3.07294 15.9697 3.20277C15.829 3.33261 15.75 3.5087 15.75 3.69231V4.38462H8.25V3.69231C8.25 3.5087 8.17098 3.33261 8.03033 3.20277C7.88968 3.07294 7.69891 3 7.5 3C7.30109 3 7.11032 3.07294 6.96967 3.20277C6.82902 3.33261 6.75 3.5087 6.75 3.69231V4.38462H4.5C4.10218 4.38462 3.72064 4.53049 3.43934 4.79016C3.15804 5.04983 3 5.40201 3 5.76923V19.6154C3 19.9826 3.15804 20.3348 3.43934 20.5945C3.72064 20.8541 4.10218 21 4.5 21H19.5C19.8978 21 20.2794 20.8541 20.5607 20.5945C20.842 20.3348 21 19.9826 21 19.6154V5.76923C21 5.40201 20.842 5.04983 20.5607 4.79016C20.2794 4.53049 19.8978 4.38462 19.5 4.38462ZM6.75 5.76923V6.46154C6.75 6.64515 6.82902 6.82124 6.96967 6.95107C7.11032 7.08091 7.30109 7.15385 7.5 7.15385C7.69891 7.15385 7.88968 7.08091 8.03033 6.95107C8.17098 6.82124 8.25 6.64515 8.25 6.46154V5.76923H15.75V6.46154C15.75 6.64515 15.829 6.82124 15.9697 6.95107C16.1103 7.08091 16.3011 7.15385 16.5 7.15385C16.6989 7.15385 16.8897 7.08091 17.0303 6.95107C17.171 6.82124 17.25 6.64515 17.25 6.46154V5.76923H19.5V8.53846H4.5V5.76923H6.75ZM19.5 19.6154H4.5V9.92308H19.5V19.6154Z" fill="#999999"/>
</svg>
