<svg width="20" height="20" viewBox="0 0 20 20" fill="none" xmlns="http://www.w3.org/2000/svg">
<g clip-path="url(#clip0_689_2125)">
<path d="M6.25 0.5C7.98022 0.5 9.5 2.01959 9.5 3.74912C9.5 5.47865 7.98022 6.99824 6.25 6.99824C4.51978 6.99824 3 5.47865 3 3.74912C3 2.01959 4.51978 0.5 6.25 0.5ZM0.5 16.6961C0.5 14.6037 1.20403 12.7278 2.2823 11.3828C3.3628 10.0351 4.79236 9.24795 6.25 9.24795C7.70764 9.24795 9.1372 10.0351 10.2177 11.3828C11.296 12.7278 12 14.6037 12 16.6961C12 17.5145 11.4291 18.207 10.3342 18.7215C9.24822 19.2318 7.76386 19.5 6.25 19.5C4.73614 19.5 3.25178 19.2318 2.16576 18.7215C1.07088 18.207 0.5 17.5145 0.5 16.6961Z" stroke="#CD3C14"/>
<path d="M13 3H19" stroke="#CD3C14" stroke-linecap="round" stroke-linejoin="round"/>
</g>
<defs>
<clipPath id="clip0_689_2125">
<rect width="20" height="20" fill="white"/>
</clipPath>
</defs>
</svg>
