<svg width="16" height="16" viewBox="0 0 16 16" fill="none" xmlns="http://www.w3.org/2000/svg">
<g id="date/ Icons">
<path id="Vector" d="M13 2.92308H11.5V2.46154C11.5 2.33913 11.4473 2.22174 11.3536 2.13518C11.2598 2.04863 11.1326 2 11 2C10.8674 2 10.7402 2.04863 10.6464 2.13518C10.5527 2.22174 10.5 2.33913 10.5 2.46154V2.92308H5.5V2.46154C5.5 2.33913 5.44732 2.22174 5.35355 2.13518C5.25979 2.04863 5.13261 2 5 2C4.86739 2 4.74021 2.04863 4.64645 2.13518C4.55268 2.22174 4.5 2.33913 4.5 2.46154V2.92308H3C2.73478 2.92308 2.48043 3.02033 2.29289 3.19344C2.10536 3.36655 2 3.60134 2 3.84615V13.0769C2 13.3217 2.10536 13.5565 2.29289 13.7296C2.48043 13.9027 2.73478 14 3 14H13C13.2652 14 13.5196 13.9027 13.7071 13.7296C13.8946 13.5565 14 13.3217 14 13.0769V3.84615C14 3.60134 13.8946 3.36655 13.7071 3.19344C13.5196 3.02033 13.2652 2.92308 13 2.92308ZM4.5 3.84615V4.30769C4.5 4.4301 4.55268 4.54749 4.64645 4.63405C4.74021 4.7206 4.86739 4.76923 5 4.76923C5.13261 4.76923 5.25979 4.7206 5.35355 4.63405C5.44732 4.54749 5.5 4.4301 5.5 4.30769V3.84615H10.5V4.30769C10.5 4.4301 10.5527 4.54749 10.6464 4.63405C10.7402 4.7206 10.8674 4.76923 11 4.76923C11.1326 4.76923 11.2598 4.7206 11.3536 4.63405C11.4473 4.54749 11.5 4.4301 11.5 4.30769V3.84615H13V5.69231H3V3.84615H4.5ZM13 13.0769H3V6.61538H13V13.0769Z" fill="#FF7900"/>
</g>
</svg>
