<svg width="24" height="25" viewBox="0 0 24 25" fill="none" xmlns="http://www.w3.org/2000/svg">
<g clip-path="url(#clip0_702_2450)">
<path d="M21.5733 3.08661C18.3364 -0.152895 13.092 -0.152895 9.85149 3.08661C6.97469 5.96254 6.66556 10.4419 8.91317 13.6705L7.48022 15.103C7.01106 14.8666 6.4037 14.9321 6.02546 15.3139C4.27247 17.07 2.12305 19.2187 0.362782 20.9784C-0.120927 21.462 -0.120927 22.251 0.362782 22.7382L1.91938 24.2907C2.40673 24.7779 3.1923 24.7779 3.67965 24.2907C3.74875 24.2216 8.61858 19.3532 9.34596 18.6261C9.71693 18.2552 9.83331 17.6808 9.56054 17.1681L10.9862 15.7429C14.1976 17.9862 18.671 17.7062 21.5769 14.8048C24.8065 11.5726 24.8065 6.31522 21.5733 3.08661ZM6.5419 15.8265C6.71647 15.6556 6.99651 15.6447 7.19655 15.7756C7.26928 15.9029 7.09471 15.6847 8.80406 17.4081C9.05865 17.6626 8.98591 17.9571 8.82952 18.1134L8.25852 18.6843L5.9709 16.3973L6.5419 15.8265ZM4.24701 22.6946L1.95939 20.4076L5.4581 16.91L7.74572 19.1969L4.24701 22.6946ZM0.875587 22.2219C0.675557 22.0219 0.675557 21.6911 0.875587 21.4911L1.44658 20.9203L3.7342 23.2072L3.16321 23.778C2.96681 23.9744 2.62858 23.9707 2.43219 23.778L0.875587 22.2219ZM9.08774 16.6118L8.04395 15.5684L9.36051 14.2522C9.5169 14.4376 9.68056 14.623 9.85513 14.8012C10.0297 14.9757 10.2152 15.1393 10.4007 15.2957L9.08774 16.6118ZM21.0605 14.2886C19.6312 15.7174 17.7327 16.5028 15.7142 16.5028C13.9503 16.5028 12.2773 15.9029 10.9317 14.7976L9.86968 13.7359C7.43294 10.7691 7.60024 6.36975 10.3679 3.59926C13.3211 0.646984 18.1037 0.646984 21.0605 3.59926C24.0064 6.54791 24.0064 11.3435 21.0605 14.2886Z" fill="#999999"/>
<path d="M16.9305 4.46829C16.7523 4.38103 16.5341 4.45374 16.4431 4.6319C16.3559 4.81369 16.4286 5.0282 16.6068 5.1191C17.0651 5.34452 17.4979 5.63175 17.8906 5.97351C18.0434 6.1044 18.2725 6.08986 18.4034 5.93715C18.5344 5.78445 18.5198 5.55539 18.3671 5.4245C17.9306 5.04274 17.4469 4.72279 16.9305 4.46829ZM20.3019 8.16954C20.0837 7.6169 19.8 7.09334 19.4509 6.60614C19.3345 6.44253 19.1054 6.40617 18.9417 6.52252C18.7781 6.63887 18.7417 6.86792 18.8581 7.03153C19.1708 7.46783 19.4291 7.94049 19.6218 8.43496C19.6946 8.62038 19.9055 8.71491 20.0946 8.6422C20.2837 8.56948 20.3747 8.3586 20.3019 8.16954Z" fill="#999999"/>
</g>
<defs>
<clipPath id="clip0_702_2450">
<rect width="24" height="24" fill="white" transform="translate(0 0.657959)"/>
</clipPath>
</defs>
</svg>
