<svg width="16" height="16" viewBox="0 0 16 16" fill="none" xmlns="http://www.w3.org/2000/svg">
<g id="firework" clip-path="url(#clip0_1905_1258)">
<path id="Vector" d="M8.33268 12.8264H7.66602V16.0001H8.33268V12.8264Z" fill="#FF7900"/>
<path id="Vector_2" d="M8.33268 0H7.66602V1.99767H8.33268V0Z" fill="#FF7900"/>
<path id="Vector_3" d="M9.97185 12.4459L9.3457 12.6738L10.4646 15.7479L11.0907 15.52L9.97185 12.4459Z" fill="#FF7900"/>
<path id="Vector_4" d="M5.53436 0.25258L4.9082 0.480469L6.36594 4.48578L6.99209 4.25789L5.53436 0.25258Z" fill="#FF7900"/>
<path id="Vector_5" d="M11.5768 11.7448L11.0664 12.1731L12.9665 14.4375L13.477 14.0092L11.5768 11.7448Z" fill="#FF7900"/>
<path id="Vector_6" d="M3.03387 1.56289L2.52344 1.99121L5.95321 6.07851L6.46364 5.65019L3.03387 1.56289Z" fill="#FF7900"/>
<path id="Vector_7" d="M11.8305 8.33719L11.7148 8.99341L15.9413 9.7385L16.057 9.08229L11.8305 8.33719Z" fill="#FF7900"/>
<path id="Vector_8" d="M0.0570565 6.2615L-0.0585938 6.91772L3.13683 7.48088L3.25248 6.82466L0.0570565 6.2615Z" fill="#FF7900"/>
<path id="Vector_9" d="M15.9415 6.26156L12.7461 6.82471L12.8617 7.48093L16.0572 6.91778L15.9415 6.26156Z" fill="#FF7900"/>
<path id="Vector_10" d="M4.1679 8.33694L-0.0585938 9.08203L0.0570909 9.73825L4.28358 8.99315L4.1679 8.33694Z" fill="#FF7900"/>
<path id="Vector_11" d="M4.76426 9.48302L4.17969 9.84009L4.5272 10.409L5.11177 10.052L4.76426 9.48302Z" fill="#FF7900"/>
<path id="Vector_12" d="M3.60673 10.1693L0.798828 11.7725L1.12938 12.3514L3.93728 10.7483L3.60673 10.1693Z" fill="#FF7900"/>
<path id="Vector_13" d="M11.2733 9.48332L10.9258 10.0522L11.5104 10.4093L11.8579 9.84038L11.2733 9.48332Z" fill="#FF7900"/>
<path id="Vector_14" d="M12.4302 10.1691L12.0996 10.748L14.9075 12.3512L15.2381 11.7723L12.4302 10.1691Z" fill="#FF7900"/>
<path id="Vector_15" d="M4.23382 5.39215L3.88672 5.96094L4.47144 6.31776L4.81854 5.74897L4.23382 5.39215Z" fill="#FF7900"/>
<path id="Vector_16" d="M1.12933 3.62816L0.800781 4.20825L3.31633 5.63299L3.64488 5.0529L1.12933 3.62816Z" fill="#FF7900"/>
<path id="Vector_17" d="M12.0925 5.22546L11.5078 5.58228L11.8549 6.15107L12.4396 5.79425L12.0925 5.22546Z" fill="#FF7900"/>
<path id="Vector_18" d="M14.9075 3.62819L12.6816 4.88599L13.0098 5.46669L15.2357 4.20889L14.9075 3.62819Z" fill="#FF7900"/>
<path id="Vector_19" d="M12.9654 1.56245L9.52344 5.66431L10.0339 6.09263L13.4759 1.99077L12.9654 1.56245Z" fill="#FF7900"/>
<path id="Vector_20" d="M4.42356 11.7446L2.52344 14.009L3.03387 14.4374L4.93399 12.173L4.42356 11.7446Z" fill="#FF7900"/>
<path id="Vector_21" d="M10.4651 0.252595L9.00781 4.25806L9.63399 4.48588L11.0913 0.480418L10.4651 0.252595Z" fill="#FF7900"/>
<path id="Vector_22" d="M6.02669 12.4456L4.9082 15.5198L5.53438 15.7476L6.65287 12.6734L6.02669 12.4456Z" fill="#FF7900"/>
<path id="Vector_23" d="M4.53958 6.65844C4.41832 6.65793 4.30003 6.69595 4.20177 6.76701C4.10352 6.83807 4.03037 6.93851 3.99288 7.05383C3.95539 7.16915 3.9555 7.2934 3.99319 7.40865C4.03088 7.52391 4.1042 7.62421 4.20258 7.6951L6.00525 9.00344L5.30525 11.1108C5.2665 11.2262 5.26543 11.3509 5.3022 11.4669C5.33897 11.5829 5.41167 11.6843 5.50979 11.7563C5.60792 11.8283 5.72639 11.8672 5.84811 11.8675C5.96982 11.8678 6.08847 11.8293 6.18691 11.7578L7.98691 10.4541L9.79691 11.7668C9.89526 11.8371 10.0133 11.8747 10.1342 11.8742C10.2551 11.8736 10.3728 11.8349 10.4705 11.7636C10.5682 11.6923 10.6409 11.5921 10.6783 11.4771C10.7157 11.3621 10.7159 11.2382 10.6789 11.1231L9.99291 9.00377L11.7966 7.69577C11.8949 7.62492 11.9683 7.52469 12.006 7.40951C12.0438 7.29432 12.044 7.17013 12.0067 7.0548C11.9694 6.93947 11.8964 6.83896 11.7984 6.76773C11.7003 6.6965 11.5821 6.65824 11.4609 6.65844H9.23058L8.53058 4.52711C8.49346 4.41197 8.42075 4.31159 8.32292 4.24043C8.2251 4.16926 8.10722 4.13098 7.98625 4.13111C7.86539 4.13082 7.74755 4.16888 7.64968 4.23979C7.55181 4.31071 7.47895 4.41083 7.44158 4.52577L6.74158 6.6591L4.53958 6.65844ZM7.35325 6.92711L7.98491 5.00444L8.61825 6.92844C8.65587 7.04345 8.72878 7.14367 8.82662 7.21488C8.92445 7.28609 9.04224 7.32466 9.16325 7.32511H11.1726L9.54991 8.5001C9.45016 8.57011 9.37562 8.6704 9.33737 8.78611C9.29912 8.90182 9.2992 9.02677 9.33758 9.14244L9.95791 11.0594L8.31958 9.87344C8.22212 9.80449 8.10563 9.76756 7.98625 9.76777C7.86479 9.76779 7.74633 9.80553 7.64725 9.87577L6.02658 11.0494L6.65991 9.14944C6.69919 9.03367 6.70014 8.90832 6.66262 8.79197C6.6251 8.67562 6.5511 8.57445 6.45158 8.50344L4.82858 7.32544H6.80791C6.92912 7.32469 7.04702 7.28582 7.1449 7.21432C7.24277 7.14283 7.31567 7.04234 7.35325 6.92711Z" fill="#FF7900"/>
<path id="Vector_24" d="M8.33268 11.4761H7.66602V12.1601H8.33268V11.4761Z" fill="#FF7900"/>
<path id="Vector_25" d="M8.33268 2.67529H7.66602V3.35929H8.33268V2.67529Z" fill="#FF7900"/>
</g>
<defs>
<clipPath id="clip0_1905_1258">
<rect width="16" height="16" fill="white"/>
</clipPath>
</defs>
</svg>
