<svg width="24" height="24" viewBox="0 0 24 24" fill="none" xmlns="http://www.w3.org/2000/svg">
<path d="M5.88721 11.4765C5.97464 11.4912 6.05402 11.5364 6.11128 11.6041C6.16853 11.6718 6.19995 11.7576 6.19996 11.8463V16.1625C6.19996 16.262 6.16045 16.3574 6.09013 16.4277C6.0198 16.498 5.92442 16.5375 5.82496 16.5375H3.23146V17.538H5.82496C5.92442 17.538 6.0198 17.5775 6.09013 17.6478C6.16045 17.7182 6.19996 17.8136 6.19996 17.913V22.1003H7.19971V17.913C7.19971 17.8136 7.23922 17.7182 7.30955 17.6478C7.37987 17.5775 7.47526 17.538 7.57471 17.538H10.1682V16.5375H7.57471C7.47526 16.5375 7.37987 16.498 7.30955 16.4277C7.23922 16.3574 7.19971 16.262 7.19971 16.1625V11.8455C7.19969 11.757 7.23101 11.6713 7.28811 11.6036C7.34522 11.5359 7.42442 11.4906 7.51171 11.4758C8.7029 11.2722 9.77426 10.6289 10.5137 9.67309C11.2532 8.71729 11.6068 7.5187 11.5047 6.31457C11.4026 5.11045 10.8521 3.98855 9.9622 3.17096C9.07232 2.35336 7.90791 1.89966 6.69946 1.89966C5.49101 1.89966 4.3266 2.35336 3.43672 3.17096C2.54684 3.98855 1.99635 5.11045 1.89422 6.31457C1.79208 7.5187 2.14575 8.71729 2.88521 9.67309C3.62467 10.6289 4.69603 11.2722 5.88721 11.4758V11.4765ZM6.69721 3.05551C7.4224 3.05566 8.13125 3.27084 8.73415 3.67384C9.33704 4.07683 9.8069 4.64955 10.0843 5.31958C10.3617 5.9896 10.4342 6.72684 10.2927 7.43807C10.1511 8.1493 9.80182 8.80258 9.28898 9.31531C8.77615 9.82804 8.12279 10.1772 7.41153 10.3186C6.70027 10.46 5.96305 10.3874 5.29308 10.1098C4.62312 9.83228 4.05049 9.3623 3.64762 8.75932C3.24475 8.15634 3.02971 7.44744 3.02971 6.72226C3.0309 5.75002 3.41771 4.81794 4.10526 4.13053C4.79281 3.44312 5.72497 3.0565 6.69721 3.05551ZM18.0972 12.522C18.0096 12.5075 17.9301 12.4623 17.8727 12.3946C17.8153 12.3269 17.7838 12.241 17.7837 12.1523V4.55476C17.7837 4.48065 17.8057 4.40821 17.8469 4.34658C17.888 4.28494 17.9465 4.23689 18.015 4.20848C18.0834 4.18008 18.1588 4.17259 18.2315 4.18697C18.3042 4.20134 18.371 4.23694 18.4235 4.28926L20.7935 6.65851L21.3515 6.10051L17.2992 2.05501L13.2477 6.10051L13.8057 6.65851L16.1757 4.28851C16.2282 4.23619 16.295 4.20059 16.3677 4.18622C16.4404 4.17184 16.5158 4.17933 16.5842 4.20773C16.6527 4.23614 16.7112 4.28419 16.7523 4.34583C16.7935 4.40746 16.8154 4.4799 16.8155 4.55401V12.1515C16.8154 12.2403 16.7839 12.3261 16.7265 12.3939C16.6691 12.4616 16.5895 12.5067 16.502 12.5213C15.3074 12.7208 14.2315 13.362 13.4876 14.3178C12.7437 15.2735 12.3862 16.474 12.486 17.681C12.5859 18.888 13.1357 20.0134 14.0265 20.8339C14.9173 21.6545 16.084 22.1102 17.2951 22.1108C18.5062 22.1114 19.6733 21.6567 20.5649 20.837C21.4564 20.0173 22.0073 18.8924 22.1083 17.6855C22.2093 16.4786 21.8529 15.2778 21.1099 14.3214C20.3669 13.3649 19.2916 12.7227 18.0972 12.522ZM17.297 20.9385C16.5717 20.9387 15.8627 20.7237 15.2596 20.3209C14.6565 19.9181 14.1864 19.3455 13.9088 18.6755C13.6312 18.0055 13.5584 17.2682 13.6998 16.5569C13.8412 15.8455 14.1904 15.1921 14.7032 14.6792C15.2159 14.1664 15.8693 13.8171 16.5806 13.6755C17.2919 13.534 18.0292 13.6066 18.6992 13.8841C19.3693 14.1616 19.942 14.6315 20.3449 15.2345C20.7479 15.8376 20.963 16.5465 20.963 17.2718C20.9618 18.2439 20.5751 19.1758 19.8877 19.8632C19.2003 20.5506 18.2691 20.9373 17.297 20.9385Z" fill="#999999"/>
</svg>
