<svg width="20" height="20" viewBox="0 0 20 20" fill="none" xmlns="http://www.w3.org/2000/svg">
<g clip-path="url(#clip0_689_2092)">
<path d="M6.25 0.5C7.98022 0.5 9.5 2.01959 9.5 3.74912C9.5 5.47865 7.98022 6.99824 6.25 6.99824C4.51978 6.99824 3 5.47865 3 3.74912C3 2.01959 4.51978 0.5 6.25 0.5ZM0.5 16.6961C0.5 14.6037 1.20403 12.7278 2.2823 11.3828C3.3628 10.0351 4.79236 9.24795 6.25 9.24795C7.70764 9.24795 9.1372 10.0351 10.2177 11.3828C11.296 12.7278 12 14.6037 12 16.6961C12 17.5145 11.4291 18.207 10.3342 18.7215C9.24822 19.2318 7.76386 19.5 6.25 19.5C4.73614 19.5 3.25178 19.2318 2.16576 18.7215C1.07088 18.207 0.5 17.5145 0.5 16.6961Z" stroke="#1A1A1A"/>
<path d="M17.5 7.5C18.0178 7.5 18.4375 7.91973 18.4375 8.4375C18.4375 8.95527 18.0178 9.375 17.5 9.375C16.9822 9.375 16.5625 8.95527 16.5625 8.4375C16.5625 7.91973 16.9822 7.5 17.5 7.5ZM17.5 0C18.8807 0 20 1.11929 20 2.5C20 3.41317 19.7353 3.92461 19.0576 4.63488L18.7275 4.97182C18.2556 5.46378 18.125 5.72888 18.125 6.25C18.125 6.59518 17.8452 6.875 17.5 6.875C17.1548 6.875 16.875 6.59518 16.875 6.25C16.875 5.33683 17.1397 4.82539 17.8174 4.11512L18.1475 3.77818C18.6194 3.28623 18.75 3.02113 18.75 2.5C18.75 1.80964 18.1904 1.25 17.5 1.25C16.8096 1.25 16.25 1.80964 16.25 2.5C16.25 2.84518 15.9702 3.125 15.625 3.125C15.2798 3.125 15 2.84518 15 2.5C15 1.11929 16.1193 0 17.5 0Z" fill="#1A1A1A"/>
</g>
<defs>
<clipPath id="clip0_689_2092">
<rect width="20" height="20" fill="white"/>
</clipPath>
</defs>
</svg>
