<svg width="23" height="21" viewBox="0 0 23 21" fill="none" xmlns="http://www.w3.org/2000/svg">
<path fill-rule="evenodd" clip-rule="evenodd" d="M20.7279 10.2877C19.2254 6.40131 15.5542 3.78182 11.3904 3.62524C7.22655 3.78182 3.55534 6.40131 2.05286 10.2877C2.00321 10.4251 2.00321 10.5754 2.05286 10.7127C3.55534 14.5992 7.22655 17.2187 11.3904 17.3752C15.5542 17.2187 19.2254 14.5992 20.7279 10.7127C20.7775 10.5754 20.7775 10.4251 20.7279 10.2877ZM7.64022 10.5002C7.64022 8.42918 9.31915 6.75024 11.3902 6.75024C13.4613 6.75024 15.1402 8.42918 15.1402 10.5002C15.1402 12.5713 13.4613 14.2502 11.3902 14.2502C9.31915 14.2502 7.64022 12.5713 7.64022 10.5002ZM8.89022 10.5002C8.89022 11.881 10.0095 13.0002 11.3902 13.0002C12.0533 13.0002 12.6891 12.7369 13.158 12.268C13.6268 11.7992 13.8902 11.1633 13.8902 10.5002C13.8902 9.11953 12.7709 8.00024 11.3902 8.00024C10.0095 8.00024 8.89022 9.11953 8.89022 10.5002ZM3.30911 10.5002C4.57786 13.669 8.07786 16.1252 11.3904 16.1252C14.7029 16.1252 18.2029 13.669 19.4716 10.5002C18.2029 7.33149 14.7029 4.87524 11.3904 4.87524C8.07786 4.87524 4.57786 7.33149 3.30911 10.5002Z" fill="#999999"/>
<path d="M1 4.50024L21.7846 16.5002" stroke="#999999" stroke-width="2"/>
</svg>
