<svg width="24" height="24" viewBox="0 0 24 24" fill="none" xmlns="http://www.w3.org/2000/svg">
<path fill-rule="evenodd" clip-rule="evenodd" d="M8.4 6.46154H4.8C4.3224 6.46154 3.8646 6.656 3.5274 7.00246C3.36014 7.17377 3.22746 7.37724 3.13696 7.60121C3.04646 7.82518 2.99992 8.06525 3 8.30769V18.1538C3 18.6437 3.1896 19.1132 3.5274 19.4591C3.69443 19.6306 3.89281 19.7667 4.11118 19.8595C4.32955 19.9523 4.56362 20.0001 4.8 20H19.2C19.6776 20 20.1354 19.8055 20.4726 19.4591C20.6399 19.2878 20.7725 19.0843 20.863 18.8603C20.9535 18.6364 21.0001 18.3963 21 18.1538V8.30769C21 7.81785 20.8104 7.34831 20.4726 7.00246C20.3056 6.83091 20.1072 6.69483 19.8888 6.60201C19.6705 6.50919 19.4364 6.46146 19.2 6.46154H15.6V5.84615C15.6 5.35631 15.4104 4.88677 15.0726 4.54092C14.9056 4.36937 14.7072 4.23329 14.4888 4.14047C14.2705 4.04765 14.0364 3.99992 13.8 4H10.2C9.7224 4 9.2646 4.19446 8.9274 4.54092C8.76014 4.71223 8.62746 4.9157 8.53696 5.13967C8.44646 5.36364 8.39992 5.60371 8.4 5.84615V6.46154ZM19.8 12.2006L12.4944 14.3415C12.1712 14.4357 11.8288 14.4357 11.5056 14.3415L4.2 12.2006V18.1538C4.19976 18.2347 4.21512 18.3149 4.24519 18.3896C4.27526 18.4644 4.31944 18.5323 4.37521 18.5895C4.43097 18.6467 4.49721 18.692 4.57011 18.7229C4.64301 18.7537 4.72114 18.7695 4.8 18.7692H19.2C19.2789 18.7695 19.357 18.7537 19.4299 18.7229C19.5028 18.692 19.569 18.6467 19.6248 18.5895C19.6806 18.5323 19.7247 18.4644 19.7548 18.3896C19.7849 18.3149 19.8002 18.2347 19.8 18.1538V12.2006ZM19.2 7.69231H4.8C4.72114 7.69206 4.64301 7.70781 4.57011 7.73865C4.49721 7.76949 4.43097 7.81481 4.37521 7.87201C4.31944 7.9292 4.27526 7.99713 4.24519 8.07191C4.21512 8.14668 4.19976 8.22681 4.2 8.30769V10.9206L11.835 13.1582C11.943 13.1895 12.057 13.1895 12.165 13.1575L19.8 10.9206V8.30769C19.8002 8.22681 19.7849 8.14668 19.7548 8.07191C19.7247 7.99713 19.6806 7.9292 19.6248 7.87201C19.569 7.81481 19.5028 7.76949 19.4299 7.73865C19.357 7.70781 19.2789 7.69206 19.2 7.69231ZM14.4 6.46154H9.6V5.84615C9.59976 5.76527 9.61512 5.68514 9.64519 5.61037C9.67526 5.5356 9.71944 5.46766 9.77521 5.41047C9.83097 5.35328 9.89721 5.30796 9.97011 5.27712C10.043 5.24628 10.1211 5.23053 10.2 5.23077H13.8C13.8789 5.23053 13.957 5.24628 14.0299 5.27712C14.1028 5.30796 14.169 5.35328 14.2248 5.41047C14.2806 5.46766 14.3247 5.5356 14.3548 5.61037C14.3849 5.68514 14.4002 5.76527 14.4 5.84615V6.46154Z" fill="#999999"/>
<path d="M12.0002 12.0005C12.442 12.0005 12.8002 11.5872 12.8002 11.0774C12.8002 10.5676 12.442 10.1543 12.0002 10.1543C11.5584 10.1543 11.2002 10.5676 11.2002 11.0774C11.2002 11.5872 11.5584 12.0005 12.0002 12.0005Z" fill="#999999"/>
</svg>
