<svg width="25" height="25" viewBox="0 0 25 25" fill="none" xmlns="http://www.w3.org/2000/svg">
<g clip-path="url(#clip0_702_2456)">
<path d="M15.9277 16.4993C18.0407 14.401 19.4707 10.4746 19.4707 7.94262C19.4707 4.28229 16.492 1.30396 12.832 1.30396C9.17169 1.30396 6.19336 4.28229 6.19336 7.94262C6.19336 10.5013 7.59969 14.3543 9.69603 16.4593C9.46456 16.6464 9.2779 16.883 9.14974 17.1517C9.02158 17.4204 8.95516 17.7143 8.95536 18.012V21.3453C8.95536 21.8757 9.16607 22.3844 9.54115 22.7595C9.91622 23.1346 10.4249 23.3453 10.9554 23.3453H11.408C11.5564 23.7 11.843 24.012 12.2734 24.012H13.2384C13.6687 24.012 13.9834 23.7 14.151 23.3453H14.622C15.1525 23.3453 15.6612 23.1346 16.0362 22.7595C16.4113 22.3844 16.622 21.8757 16.622 21.3453V18.012C16.6222 17.7247 16.5602 17.4408 16.4403 17.1797C16.3205 16.9186 16.1456 16.6865 15.9277 16.4993ZM10.3154 21.5223C10.2985 21.4649 10.2895 21.4054 10.2887 21.3456V19.9273L15.2424 17.7726C15.2714 17.8473 15.2887 17.9276 15.2887 18.0123V19.359L10.3154 21.5223ZM10.9554 17.3456H14.5534L10.2887 19.2003V18.0123C10.2887 17.8355 10.3589 17.6659 10.484 17.5409C10.609 17.4159 10.7785 17.3456 10.9554 17.3456ZM7.52669 7.94262C7.52669 5.01729 9.90669 2.63729 12.832 2.63729C15.757 2.63729 18.1374 5.01729 18.1374 7.94262C18.1374 10.3806 16.6024 14.3246 14.547 15.9536L14.5937 16.0123H11.197C9.12669 14.445 7.52669 10.4053 7.52669 7.94262ZM14.622 22.0123H10.9554C10.9287 22.0123 10.9037 22.0073 10.8777 22.0046L15.2887 20.086V21.3456C15.2887 21.5224 15.2185 21.692 15.0934 21.817C14.9684 21.9421 14.7988 22.0123 14.622 22.0123Z" fill="#1A1A1A"/>
<path d="M12.9231 8.34536C13.0131 8.34536 13.0964 8.30869 13.1594 8.24869C13.2198 8.18536 13.2564 8.0987 13.2564 8.01203C13.2564 7.92536 13.2198 7.83836 13.1594 7.77536C13.0364 7.65203 12.8098 7.65203 12.6864 7.77536C12.6261 7.83836 12.5898 7.9217 12.5898 8.01203C12.5898 8.10203 12.6261 8.18536 12.6864 8.24869C12.7494 8.30869 12.8364 8.34536 12.9231 8.34536ZM12.9561 9.01203C12.8677 9.01203 12.7829 9.04715 12.7204 9.10966C12.6579 9.17217 12.6228 9.25696 12.6228 9.34536V11.012C12.6228 11.1004 12.6579 11.1852 12.7204 11.2477C12.7829 11.3102 12.8677 11.3454 12.9561 11.3454C13.0445 11.3454 13.1293 11.3102 13.1918 11.2477C13.2543 11.1852 13.2894 11.1004 13.2894 11.012V9.34536C13.2894 9.25696 13.2543 9.17217 13.1918 9.10966C13.1293 9.04715 13.0445 9.01203 12.9561 9.01203ZM11.5544 11.362C11.6204 11.3622 11.685 11.3427 11.7399 11.3061C11.7948 11.2695 11.8376 11.2174 11.8628 11.1565C11.8881 11.0955 11.8947 11.0284 11.8817 10.9637C11.8688 10.899 11.8369 10.8396 11.7901 10.793L10.8814 9.88436C10.8505 9.85341 10.8138 9.82886 10.7733 9.81211C10.7329 9.79537 10.6895 9.78675 10.6458 9.78675C10.602 9.78675 10.5587 9.79537 10.5182 9.81211C10.4778 9.82886 10.4411 9.85341 10.4101 9.88436C10.3792 9.91531 10.3546 9.95205 10.3379 9.99249C10.3211 10.0329 10.3125 10.0763 10.3125 10.12C10.3125 10.1638 10.3211 10.2071 10.3379 10.2476C10.3546 10.288 10.3792 10.3247 10.4101 10.3557L11.3188 11.2644C11.3497 11.2954 11.3864 11.3199 11.4269 11.3367C11.4673 11.3535 11.5107 11.3621 11.5544 11.362ZM14.3458 11.362C14.3896 11.3621 14.4329 11.3535 14.4734 11.3367C14.5138 11.3199 14.5505 11.2954 14.5814 11.2644L15.4904 10.3557C15.5214 10.3247 15.5459 10.288 15.5627 10.2476C15.5794 10.2071 15.5881 10.1638 15.5881 10.12C15.5881 10.0763 15.5794 10.0329 15.5627 9.99249C15.5459 9.95205 15.5214 9.91531 15.4904 9.88436C15.4595 9.85341 15.4228 9.82886 15.3823 9.81211C15.3419 9.79537 15.2985 9.78675 15.2548 9.78675C15.211 9.78675 15.1677 9.79537 15.1272 9.81211C15.0868 9.82886 15.0501 9.85341 15.0191 9.88436L14.1101 10.793C14.0633 10.8396 14.0315 10.899 14.0185 10.9637C14.0056 11.0284 14.0121 11.0955 14.0374 11.1565C14.0626 11.2174 14.1054 11.2695 14.1603 11.3061C14.2153 11.3427 14.2798 11.3622 14.3458 11.362Z" fill="#1A1A1A"/>
</g>
<defs>
<clipPath id="clip0_702_2456">
<rect width="24" height="24" fill="white" transform="translate(0.832031 0.657959)"/>
</clipPath>
</defs>
</svg>
