<svg width="24" height="24" viewBox="0 0 24 24" fill="none" xmlns="http://www.w3.org/2000/svg">
<path d="M15.8784 7.41691C14.724 6.33331 13.2135 5.79115 11.6285 5.89267C8.79963 6.07435 6.52731 8.34331 6.34275 11.171C6.24627 12.6746 6.73227 14.1268 7.71363 15.263C7.85883 15.4288 8.15187 15.894 8.48067 17.142C8.56539 17.466 8.70435 17.7645 8.89011 18.035V19.6015C8.89011 20.5543 9.48555 21.3691 10.3231 21.6979C10.4004 22.3156 11.1211 22.8 12 22.8C12.8595 22.8 13.567 22.3368 13.6702 21.7387C14.5659 21.4406 15.2143 20.5963 15.2143 19.6017V17.8255C15.3389 17.6059 15.4385 17.3714 15.5047 17.1196C15.8153 15.9208 16.1026 15.4699 16.2456 15.3079C17.1636 14.2723 17.6691 12.9384 17.6691 11.5519C17.6693 9.99235 17.0165 8.48491 15.8784 7.41691ZM14.2543 19.6017C14.2543 20.3148 13.6743 20.8948 12.9612 20.8948H11.1432C10.4302 20.8948 9.85011 20.3148 9.85011 19.6017V18.4125H14.2543V19.6017ZM15.5271 14.6716C15.1659 15.0796 14.8546 15.8016 14.5759 16.8768C14.521 17.0848 14.436 17.2776 14.3225 17.4523H12.2391V14.0385C13.2562 13.8667 14.0343 12.982 14.0343 11.9167C14.0343 10.7289 13.068 9.76243 11.88 9.76243C10.692 9.76243 9.72579 10.7287 9.72579 11.9167C9.72579 12.9813 10.5027 13.8655 11.5188 14.038V17.4523H9.65283C9.54339 17.2836 9.46155 17.0983 9.40899 16.8979C9.11595 15.7855 8.79771 15.0439 8.43795 14.6328C7.62411 13.6908 7.22019 12.4831 7.30059 11.2327C7.45371 8.88547 9.34059 7.00123 11.6895 6.85051C13.0066 6.76747 14.2623 7.21627 15.2213 8.11651C16.1806 9.01675 16.7091 10.2367 16.7091 11.5514C16.7093 12.7036 16.2895 13.8115 15.5271 14.6716ZM11.88 13.3509C11.0892 13.3509 10.4458 12.7075 10.4458 11.9167C10.4458 11.1259 11.0892 10.4824 11.88 10.4824C12.6708 10.4824 13.3143 11.1259 13.3143 11.9167C13.3143 12.7075 12.6708 13.3509 11.88 13.3509ZM4.20243 11.0258H2.17419C1.93563 11.0258 1.74219 11.2192 1.74219 11.4578C1.74219 11.6964 1.93563 11.8898 2.17419 11.8898H4.20243C4.44099 11.8898 4.63443 11.6964 4.63443 11.4578C4.63443 11.2192 4.44099 11.0258 4.20243 11.0258ZM21.8259 11.0258H19.7976C19.5591 11.0258 19.3656 11.2192 19.3656 11.4578C19.3656 11.6964 19.5591 11.8898 19.7976 11.8898H21.8259C22.0644 11.8898 22.2579 11.6964 22.2579 11.4578C22.2579 11.2192 22.0647 11.0258 21.8259 11.0258ZM6.18075 16.6663L4.74651 18.1005C4.57779 18.269 4.57779 18.5426 4.74651 18.7113C4.83099 18.7958 4.94139 18.8378 5.05203 18.8378C5.16243 18.8378 5.27307 18.7956 5.35755 18.7113L6.79179 17.2771C6.96051 17.1086 6.96051 16.835 6.79179 16.6663C6.62331 16.4978 6.34971 16.4976 6.18075 16.6663ZM17.5138 6.37603C17.6242 6.37603 17.7348 6.33379 17.8193 6.24955L19.2535 4.81531C19.4223 4.64683 19.4223 4.37323 19.2535 4.20451C19.0851 4.03603 18.8115 4.03579 18.6425 4.20451L17.2083 5.63875C17.0395 5.80723 17.0395 6.08083 17.2083 6.24955C17.2927 6.33403 17.4031 6.37603 17.5138 6.37603ZM11.568 1.63195V3.66019C11.568 3.89875 11.7615 4.09219 12 4.09219C12.2386 4.09219 12.432 3.89875 12.432 3.66019V1.63195C12.432 1.39339 12.2386 1.19995 12 1.19995C11.7615 1.19995 11.568 1.39339 11.568 1.63195ZM17.8193 16.6663C17.6506 16.4976 17.377 16.4976 17.2083 16.6663C17.0395 16.835 17.0395 17.1086 17.2083 17.2771L18.6425 18.7113C18.727 18.7958 18.8376 18.8378 18.948 18.8378C19.0584 18.8378 19.1691 18.7956 19.2535 18.7113C19.4223 18.5426 19.4223 18.269 19.2535 18.1005L17.8193 16.6663ZM6.18075 6.24955C6.26523 6.33403 6.37587 6.37603 6.48627 6.37603C6.59667 6.37603 6.70731 6.33379 6.79179 6.24955C6.96051 6.08083 6.96051 5.80723 6.79179 5.63875L5.35755 4.20451C5.18883 4.03579 4.91523 4.03579 4.74651 4.20451C4.57779 4.37323 4.57779 4.64683 4.74651 4.81531L6.18075 6.24955Z" fill="#FF7900"/>
</svg>
