<svg width="24" height="24" viewBox="0 0 24 24" fill="none" xmlns="http://www.w3.org/2000/svg">
<path d="M12 22.1818C12.164 22.1808 12.323 22.1244 12.4509 22.0218C12.7273 21.7745 20 15.9127 20 9.81811C20 7.69638 19.1571 5.66155 17.6569 4.16126C16.1566 2.66097 14.1217 1.81812 12 1.81812C9.87827 1.81812 7.84344 2.66097 6.34315 4.16126C4.84285 5.66155 4 7.69638 4 9.81811C4 15.9127 11.2727 21.7745 11.5491 22.0218C11.677 22.1244 11.836 22.1808 12 22.1818ZM5.45455 9.81811C5.45455 8.08215 6.14415 6.41729 7.37166 5.18978C8.59918 3.96227 10.264 3.27266 12 3.27266C13.736 3.27266 15.4008 3.96227 16.6283 5.18978C17.8558 6.41729 18.5455 8.08215 18.5455 9.81811C18.5455 14.3999 13.5491 19.1345 12 20.5018C10.4509 19.1345 5.45455 14.3999 5.45455 9.81811Z" fill="#999999"/>
<path d="M15.636 9.81776C15.636 9.09856 15.4227 8.3955 15.0232 7.79751C14.6236 7.19951 14.0557 6.73343 13.3912 6.4582C12.7268 6.18297 11.9956 6.11096 11.2902 6.25127C10.5848 6.39158 9.9369 6.73791 9.42835 7.24646C8.91979 7.75502 8.57346 8.40296 8.43315 9.10834C8.29284 9.81373 8.36486 10.5449 8.64008 11.2093C8.91531 11.8738 9.38139 12.4417 9.97939 12.8413C10.5774 13.2409 11.2804 13.4541 11.9996 13.4541C12.9641 13.4541 13.889 13.071 14.5709 12.3891C15.2529 11.7071 15.636 10.7822 15.636 9.81776ZM9.81783 9.81776C9.81783 9.38624 9.94579 8.96441 10.1855 8.60561C10.4253 8.24681 10.766 7.96716 11.1647 7.80202C11.5634 7.63689 12.0021 7.59368 12.4253 7.67787C12.8485 7.76205 13.2373 7.96985 13.5424 8.27498C13.8476 8.58012 14.0554 8.96888 14.1395 9.39211C14.2237 9.81534 14.1805 10.254 14.0154 10.6527C13.8502 11.0514 13.5706 11.3921 13.2118 11.6319C12.853 11.8716 12.4312 11.9996 11.9996 11.9996C11.421 11.9996 10.866 11.7697 10.4569 11.3605C10.0477 10.9514 9.81783 10.3964 9.81783 9.81776Z" fill="#999999"/>
</svg>
