<svg width="18" height="20" viewBox="0 0 18 20" fill="none" xmlns="http://www.w3.org/2000/svg">
<path d="M14.8327 7.02V5.83333C14.8327 4.28624 14.2181 2.80251 13.1241 1.70854C12.0302 0.614582 10.5464 0 8.99935 0C7.45225 0 5.96852 0.614582 4.87456 1.70854C3.7806 2.80251 3.16602 4.28624 3.16602 5.83333V7.02C2.42382 7.34392 1.79209 7.8771 1.3481 8.55434C0.904103 9.23158 0.667081 10.0235 0.666016 10.8333V15.8333C0.667339 16.938 1.10675 17.997 1.88787 18.7782C2.66898 19.5593 3.72802 19.9987 4.83268 20H13.166C14.2707 19.9987 15.3297 19.5593 16.1108 18.7782C16.8919 17.997 17.3314 16.938 17.3327 15.8333V10.8333C17.3316 10.0235 17.0946 9.23158 16.6506 8.55434C16.2066 7.8771 15.5749 7.34392 14.8327 7.02ZM4.83268 5.83333C4.83268 4.72826 5.27167 3.66846 6.05307 2.88705C6.83447 2.10565 7.89428 1.66667 8.99935 1.66667C10.1044 1.66667 11.1642 2.10565 11.9456 2.88705C12.727 3.66846 13.166 4.72826 13.166 5.83333V6.66667H4.83268V5.83333ZM15.666 15.8333C15.666 16.4964 15.4026 17.1323 14.9338 17.6011C14.4649 18.0699 13.8291 18.3333 13.166 18.3333H4.83268C4.16964 18.3333 3.53376 18.0699 3.06492 17.6011C2.59607 17.1323 2.33268 16.4964 2.33268 15.8333V10.8333C2.33268 10.1703 2.59607 9.53441 3.06492 9.06557C3.53376 8.59672 4.16964 8.33333 4.83268 8.33333H13.166C13.8291 8.33333 14.4649 8.59672 14.9338 9.06557C15.4026 9.53441 15.666 10.1703 15.666 10.8333V15.8333Z" fill="#999999"/>
</svg>
