<svg width="20" height="21" viewBox="0 0 20 21" fill="none" xmlns="http://www.w3.org/2000/svg">
<g clip-path="url(#clip0_1_3672)">
<path d="M15.8327 7.52024V6.33358C15.8327 4.78648 15.2181 3.30275 14.1241 2.20879C13.0302 1.11483 11.5464 0.500244 9.99935 0.500244C8.45225 0.500244 6.96852 1.11483 5.87456 2.20879C4.7806 3.30275 4.16602 4.78648 4.16602 6.33358V7.52024C3.42382 7.84417 2.79209 8.37735 2.3481 9.05459C1.9041 9.73183 1.66708 10.5238 1.66602 11.3336V16.3336C1.66734 17.4382 2.10675 18.4973 2.88787 19.2784C3.66898 20.0595 4.72802 20.4989 5.83268 20.5002H14.166C15.2707 20.4989 16.3297 20.0595 17.1108 19.2784C17.8919 18.4973 18.3314 17.4382 18.3327 16.3336V11.3336C18.3316 10.5238 18.0946 9.73183 17.6506 9.05459C17.2066 8.37735 16.5749 7.84417 15.8327 7.52024ZM5.83268 6.33358C5.83268 5.22851 6.27167 4.1687 7.05307 3.3873C7.83447 2.6059 8.89428 2.16691 9.99935 2.16691C11.1044 2.16691 12.1642 2.6059 12.9456 3.3873C13.727 4.1687 14.166 5.22851 14.166 6.33358V7.16691H5.83268V6.33358ZM16.666 16.3336C16.666 16.9966 16.4026 17.6325 15.9338 18.1013C15.4649 18.5702 14.8291 18.8336 14.166 18.8336H5.83268C5.16964 18.8336 4.53376 18.5702 4.06492 18.1013C3.59607 17.6325 3.33268 16.9966 3.33268 16.3336V11.3336C3.33268 10.6705 3.59607 10.0347 4.06492 9.56581C4.53376 9.09697 5.16964 8.83358 5.83268 8.83358H14.166C14.8291 8.83358 15.4649 9.09697 15.9338 9.56581C16.4026 10.0347 16.666 10.6705 16.666 11.3336V16.3336Z" fill="#999999"/>
<path d="M9.99935 12.1672C9.77834 12.1672 9.56637 12.255 9.41009 12.4113C9.25381 12.5676 9.16602 12.7796 9.16602 13.0006V14.6672C9.16602 14.8883 9.25381 15.1002 9.41009 15.2565C9.56637 15.4128 9.77834 15.5006 9.99935 15.5006C10.2204 15.5006 10.4323 15.4128 10.5886 15.2565C10.7449 15.1002 10.8327 14.8883 10.8327 14.6672V13.0006C10.8327 12.7796 10.7449 12.5676 10.5886 12.4113C10.4323 12.255 10.2204 12.1672 9.99935 12.1672Z" fill="#999999"/>
</g>
<defs>
<clipPath id="clip0_1_3672">
<rect width="20" height="20" fill="white" transform="translate(0 0.500244)"/>
</clipPath>
</defs>
</svg>
