<svg width="20" height="20" viewBox="0 0 20 20" fill="none" xmlns="http://www.w3.org/2000/svg">
<g clip-path="url(#clip0_689_2111)">
<path d="M19.6098 9.60456H11.373C11.2694 9.60456 11.1701 9.56319 11.0968 9.48957C11.0236 9.41594 10.9824 9.31607 10.9824 9.21195C10.9824 9.10782 11.0236 9.00796 11.0968 8.93433C11.1701 8.8607 11.2694 8.81934 11.373 8.81934H19.6098C19.7134 8.81934 19.8127 8.8607 19.886 8.93433C19.9592 9.00796 20.0004 9.10782 20.0004 9.21195C20.0004 9.31607 19.9592 9.41594 19.886 9.48957C19.8127 9.56319 19.7134 9.60456 19.6098 9.60456Z" fill="#1A1A1A"/>
<path d="M17.1027 11.7037C17.0224 11.7038 16.9441 11.679 16.8784 11.6327C16.8126 11.5863 16.7626 11.5208 16.7353 11.4449C16.7079 11.3691 16.7045 11.2866 16.7254 11.2087C16.7464 11.1308 16.7907 11.0613 16.8523 11.0096L19.0008 9.21144L16.8523 7.41367C16.7727 7.34698 16.7227 7.25123 16.7134 7.14749C16.704 7.04374 16.736 6.94051 16.8023 6.86049C16.8687 6.78046 16.964 6.73021 17.0672 6.72079C17.1704 6.71136 17.2731 6.74354 17.3527 6.81023L19.8594 8.90991C19.9034 8.94676 19.9388 8.99289 19.9631 9.04503C19.9875 9.09717 20.0001 9.15405 20.0001 9.21164C20.0001 9.26922 19.9875 9.3261 19.9631 9.37824C19.9388 9.43038 19.9034 9.47651 19.8594 9.51336L17.3527 11.6126C17.2826 11.6715 17.1941 11.7037 17.1027 11.7037ZM12.9418 18.4233H9.01953C8.91593 18.4233 8.81657 18.3819 8.74332 18.3083C8.67006 18.2347 8.62891 18.1348 8.62891 18.0307C8.62891 17.9265 8.67006 17.8267 8.74332 17.753C8.81657 17.6794 8.91593 17.6381 9.01953 17.6381H12.5512V0.785222H0.78125V18.0307C0.78125 18.1348 0.740095 18.2347 0.666839 18.3083C0.593582 18.3819 0.494225 18.4233 0.390625 18.4233C0.287025 18.4233 0.187668 18.3819 0.114411 18.3083C0.041155 18.2347 0 18.1348 0 18.0307L0 0.392611C0 0.288484 0.041155 0.188622 0.114411 0.114993C0.187668 0.0413643 0.287025 0 0.390625 0L12.9418 0C13.0454 0 13.1448 0.0413643 13.218 0.114993C13.2913 0.188622 13.3324 0.288484 13.3324 0.392611V18.0307C13.3324 18.1348 13.2913 18.2347 13.218 18.3083C13.1448 18.3819 13.0454 18.4233 12.9418 18.4233Z" fill="#1A1A1A"/>
<path d="M9.01953 20.0001C8.99608 20.0001 8.97268 19.998 8.94961 19.9938L0.320703 18.4171C0.230698 18.4006 0.149296 18.3529 0.0906885 18.2823C0.0320809 18.2117 -1.38024e-05 18.1227 4.45283e-09 18.0307V0.39267C-8.63236e-06 0.335155 0.0125557 0.27834 0.0368045 0.226243C0.0610533 0.174147 0.0963942 0.128041 0.140328 0.0911876C0.184262 0.0543339 0.235715 0.027632 0.291049 0.0129705C0.346383 -0.00169108 0.404246 -0.00395424 0.460547 0.00634104L9.08945 1.58307C9.17946 1.59953 9.26086 1.64721 9.31947 1.71781C9.37807 1.78841 9.41017 1.87745 9.41016 1.9694V19.6074C9.41016 19.7116 9.369 19.8114 9.29574 19.8851C9.22249 19.9587 9.12313 20.0001 9.01953 20.0001ZM0.78125 17.7029L8.62891 19.1371V2.29723L0.78125 0.863804V17.7029Z" fill="#1A1A1A"/>
<path d="M7.0582 7.38461C7.03675 7.38465 7.01532 7.38294 6.99414 7.3795L2.2875 6.59114C2.19609 6.57586 2.11306 6.52843 2.05324 6.4573C1.99342 6.38617 1.9607 6.29598 1.96094 6.20285V4.23194C1.96129 4.17511 1.97392 4.11903 1.99795 4.06758C2.02197 4.01614 2.05683 3.97055 2.1001 3.93396C2.14337 3.89738 2.19403 3.87067 2.24857 3.85569C2.30312 3.8407 2.36025 3.8378 2.41602 3.84718L7.12266 4.6324C7.2138 4.64773 7.29658 4.69503 7.3563 4.7659C7.41602 4.83678 7.4488 4.92664 7.44883 5.01952V6.99042C7.44883 7.09455 7.40767 7.19441 7.33442 7.26804C7.26116 7.34167 7.1618 7.38303 7.0582 7.38303V7.38461ZM2.74219 5.87109L6.66758 6.52871V5.35363L2.74219 4.696V5.87109Z" fill="#1A1A1A"/>
</g>
<defs>
<clipPath id="clip0_689_2111">
<rect width="20" height="20" fill="white"/>
</clipPath>
</defs>
</svg>
