<svg width="24" height="24" viewBox="0 0 24 24" fill="none" xmlns="http://www.w3.org/2000/svg">
<path d="M9.59553 14.6532C9.75508 14.6532 9.88442 14.5239 9.88442 14.3643C9.88442 14.2048 9.75508 14.0754 9.59553 14.0754C9.43598 14.0754 9.30664 14.2048 9.30664 14.3643C9.30664 14.5239 9.43598 14.6532 9.59553 14.6532Z" fill="#999999"/>
<path d="M9.59553 15.8778C9.75508 15.8778 9.88442 15.7485 9.88442 15.5889C9.88442 15.4294 9.75508 15.3 9.59553 15.3C9.43598 15.3 9.30664 15.4294 9.30664 15.5889C9.30664 15.7485 9.43598 15.8778 9.59553 15.8778Z" fill="#999999"/>
<path d="M6.21333 16.4556C7.36667 17.2933 8.53778 17.9022 9.13556 18.1933C9.24222 18.2444 9.35778 18.2711 9.47333 18.2711C9.59111 18.2711 9.70667 18.2444 9.81333 18.1911C9.86222 18.1667 9.92 18.14 9.98444 18.1067C10.2133 17.9933 10.5289 17.8289 10.8933 17.6244C12.0667 16.9667 13.7644 15.8689 14.86 14.5067C15.5822 13.6133 15.9489 12.72 15.9489 11.8511V6.67333C15.9489 6.28667 15.6644 5.95333 15.2867 5.89778C14.1311 5.73333 13.2089 4.81333 13.0422 3.66C12.9867 3.28444 12.6556 3 12.2689 3H6.68C6.29333 3 5.96 3.28444 5.90444 3.66C5.73778 4.81333 4.81556 5.73333 3.66 5.89778C3.28444 5.95333 3 6.28667 3 6.67333V11.8511C3 12.7222 3.36667 13.6178 4.08667 14.5067C4.60889 15.16 5.32444 15.8133 6.21333 16.4556ZM9.37556 17.6933C8.79556 17.4133 7.65778 16.82 6.53778 16.0067C6.36 15.8778 6.18889 15.7489 6.02667 15.6178C6.00889 15.6022 5.98889 15.5889 5.97111 15.5733C5.81778 15.4511 5.67333 15.3267 5.53333 15.2044C5.50889 15.1844 5.48667 15.1622 5.46222 15.1422C5.32667 15.0222 5.2 14.9 5.08 14.78C5.05778 14.7578 5.03778 14.7378 5.01778 14.7156C4.89778 14.5933 4.78444 14.4711 4.68 14.3511C4.67333 14.3444 4.66889 14.3378 4.66444 14.3311C5.12 13.82 5.78 13.52 6.46889 13.52H7.73333C8.09333 13.52 8.40444 13.2978 8.53333 12.9844C8.60889 13.0111 8.68667 13.0311 8.76444 13.0511C8.78 13.0556 8.79778 13.0578 8.81333 13.0622C8.88889 13.08 8.96444 13.0933 9.04 13.1022C9.06444 13.1067 9.09111 13.1089 9.11556 13.1111C9.19333 13.12 9.27333 13.1244 9.35333 13.1267C9.36667 13.1267 9.38 13.1289 9.39333 13.1289C9.40222 13.1289 9.41333 13.1289 9.42222 13.1289C9.44222 13.1289 9.46 13.1244 9.48 13.1244C9.56667 13.1222 9.65111 13.1178 9.73778 13.1067C9.76444 13.1044 9.78889 13.1 9.81556 13.0956C9.9 13.0822 9.98444 13.0667 10.0689 13.0444C10.0933 13.0378 10.1156 13.0333 10.14 13.0289C10.2289 13.0044 10.32 12.9756 10.4067 12.94C10.5244 13.2756 10.8467 13.5156 11.2222 13.5156H12.4867C13.1844 13.5156 13.8289 13.8067 14.2889 14.3222C14.2644 14.3511 14.24 14.38 14.2156 14.4067C14.1689 14.46 14.12 14.5133 14.0711 14.5644C14.02 14.62 13.9667 14.6733 13.9156 14.7267C13.8644 14.7778 13.8156 14.8289 13.7644 14.8778C13.7089 14.9311 13.6533 14.9844 13.5978 15.0356C13.5467 15.0844 13.4933 15.1311 13.44 15.18C13.3822 15.2311 13.3222 15.2822 13.2622 15.3333C13.2089 15.38 13.1556 15.4244 13.1 15.4689C13.04 15.52 12.9778 15.5689 12.9156 15.6178C12.8622 15.66 12.8067 15.7044 12.7533 15.7444C12.6889 15.7933 12.6267 15.84 12.5622 15.8889C12.5089 15.9289 12.4556 15.9689 12.4022 16.0067C12.3378 16.0533 12.2711 16.1 12.2067 16.1444C12.1556 16.18 12.1022 16.2178 12.0511 16.2533C11.9844 16.2978 11.9178 16.3422 11.8533 16.3867C11.8044 16.42 11.7533 16.4533 11.7044 16.4844C11.6378 16.5289 11.5711 16.5689 11.5044 16.6111C11.4578 16.64 11.4111 16.6711 11.3644 16.6978C11.2956 16.74 11.2311 16.78 11.1644 16.82C11.1222 16.8444 11.08 16.8711 11.0378 16.8956C10.9711 16.9356 10.9067 16.9733 10.8422 17.0089C10.8044 17.0311 10.7644 17.0533 10.7289 17.0756C10.6622 17.1133 10.6 17.1489 10.5356 17.1822C10.5044 17.2 10.4711 17.2178 10.44 17.2356C10.3733 17.2711 10.3111 17.3044 10.2489 17.3378C10.2244 17.3511 10.2 17.3644 10.1756 17.3756C10.1089 17.4111 10.0467 17.4422 9.98667 17.4733C9.97111 17.48 9.95556 17.4889 9.94 17.4978C9.87778 17.5289 9.82222 17.5578 9.77111 17.5822C9.76 17.5867 9.74889 17.5933 9.73778 17.5978C9.67778 17.6289 9.62222 17.6556 9.57333 17.6778C9.50889 17.7222 9.43778 17.7222 9.37556 17.6933ZM12.0444 7.87556L11.8733 8.54889C11.8733 8.54667 11.8711 8.54222 11.8711 8.54C11.8511 8.48222 11.8311 8.42222 11.8133 8.36222C11.8089 8.35111 11.8067 8.34 11.8022 8.32889C11.7533 8.15778 11.6333 8.01778 11.4733 7.94C11.4733 7.94 11.4733 7.94 11.4711 7.94C11.4667 7.93778 11.4644 7.93778 11.46 7.93556C11.4222 7.91778 11.3844 7.90444 11.3444 7.89556C11.3222 7.89111 11.3 7.88889 11.2778 7.88667C11.2556 7.88444 11.2333 7.87778 11.2111 7.87778C11.1978 7.87778 11.1844 7.88 11.1689 7.88222C11.0933 7.88444 11.0178 7.9 10.9444 7.92889C10.28 8.21556 9.48889 8.3 8.53778 8.19333C8.35333 8.17333 8.16667 8.14667 7.97111 8.11111C7.78444 8.07778 7.59778 8.12667 7.45333 8.23778C7.40444 8.27556 7.36222 8.32 7.32667 8.37111L7.07778 8.72889L6.87111 7.54222C6.80889 7.18 6.89778 6.82 7.12222 6.52889C7.34444 6.23778 7.66889 6.06 8.03333 6.02889L10.2956 5.82C10.3467 5.81556 10.4 5.81333 10.4511 5.81333C10.9333 5.81333 11.3822 6.02 11.7022 6.39333C12.0533 6.80889 12.1778 7.34889 12.0444 7.87556ZM7.16444 9.52C7.17778 9.51333 7.18667 9.50222 7.2 9.49556C7.20889 9.48889 7.22 9.48222 7.22889 9.47333C7.24889 9.45556 7.26667 9.43333 7.28222 9.41111C7.28222 9.40889 7.28444 9.40889 7.28444 9.40889L7.30667 9.37778L7.78222 8.69778C7.79111 8.68444 7.80667 8.67333 7.82222 8.66889C7.83778 8.66222 7.85556 8.66222 7.87333 8.66444C8.00222 8.68667 8.12667 8.70667 8.25111 8.72222C9.4 8.88444 10.3578 8.79333 11.1644 8.44444C11.1933 8.43333 11.2178 8.44 11.2289 8.44444H11.2311C11.2489 8.45333 11.2622 8.46667 11.2689 8.48889C11.2933 8.56667 11.3178 8.64444 11.3444 8.72C11.3956 8.87111 11.4467 9.00444 11.4911 9.11556C11.4933 9.12 11.4933 9.12222 11.4956 9.12667C11.5089 9.15778 11.5178 9.18444 11.5289 9.21111C11.54 9.23778 11.5511 9.26444 11.56 9.28889C11.5733 9.32 11.5911 9.34889 11.6111 9.37556C11.6156 9.38222 11.6222 9.38667 11.6267 9.39333C11.6422 9.41111 11.66 9.42889 11.68 9.44222C11.6844 9.44444 11.6867 9.44889 11.6911 9.45333V10.2244C11.6911 11.0622 11.22 11.8733 10.4933 12.2889C10.4778 12.2978 10.4622 12.3022 10.4467 12.3111C10.2067 12.44 9.94667 12.5267 9.67778 12.56C9.67556 12.56 9.67333 12.56 9.67111 12.56C9.57778 12.5711 9.48667 12.5756 9.39333 12.5756C9.29111 12.5756 9.19111 12.5644 9.09111 12.5511C9.02889 12.5422 8.96444 12.5333 8.90222 12.5178C8.89778 12.5178 8.89333 12.5156 8.89111 12.5133C8.81556 12.4956 8.74 12.4733 8.66667 12.4467C8.66222 12.4444 8.66 12.4444 8.65556 12.4422C8.58222 12.4156 8.50889 12.3844 8.43778 12.3489C8.20889 12.2378 8.00444 12.0911 7.82667 11.9133C7.39778 11.4867 7.16222 10.9178 7.16222 10.3156V9.52H7.16444ZM3.55556 6.67556C3.55556 6.56222 3.63556 6.46444 3.74 6.44889C5.13778 6.24889 6.25333 5.13556 6.45556 3.74222C6.47111 3.63778 6.56889 3.55778 6.68222 3.55778H12.2733C12.3844 3.55778 12.4822 3.63778 12.4978 3.74222C12.7 5.13778 13.8156 6.25111 15.2133 6.44889C15.32 6.46444 15.4 6.56222 15.4 6.67556V11.8533C15.4 12.5067 15.1422 13.1911 14.6378 13.8911C14.08 13.3067 13.3 12.9667 12.4867 12.9667H11.2222C11.0578 12.9667 10.9244 12.8378 10.9178 12.6756C11.7422 12.1356 12.2533 11.2156 12.2533 10.2222V9.29556C12.2622 9.27556 12.2733 9.25556 12.2778 9.23556L12.5889 8.01333C12.7689 7.30889 12.6 6.58667 12.1289 6.03556C11.6578 5.48444 10.9733 5.20444 10.2489 5.27111L7.98667 5.48C7.47333 5.52667 7 5.78667 6.68667 6.19556C6.37111 6.60444 6.24222 7.13333 6.32889 7.64222L6.60889 9.26C6.60889 9.26444 6.61111 9.26889 6.61111 9.27333V10.3178C6.61111 11.0711 6.90444 11.7778 7.43778 12.3089C7.61333 12.4844 7.80889 12.6333 8.02444 12.7556C7.98444 12.8778 7.87111 12.9689 7.73556 12.9689H6.47111C5.65778 12.9689 4.87556 13.3111 4.31778 13.8956C3.81556 13.1978 3.55778 12.5133 3.55778 11.8556V6.67556H3.55556ZM20.4822 18.38C20.6356 18.38 20.76 18.2556 20.76 18.1022V17.1689C20.76 17.0156 20.6356 16.8911 20.4822 16.8911C20.3289 16.8911 20.2044 17.0156 20.2044 17.1689V17.3578H19.8178C19.7689 16.9622 19.6156 16.5911 19.3689 16.2756L19.6422 16.0022L19.7756 16.1356C19.8289 16.1889 19.9 16.2178 19.9711 16.2178C20.0422 16.2178 20.1133 16.1911 20.1667 16.1356C20.2756 16.0267 20.2756 15.8511 20.1667 15.7422L19.5067 15.0822C19.3978 14.9733 19.2222 14.9733 19.1133 15.0822C19.0044 15.1911 19.0044 15.3667 19.1133 15.4756L19.2467 15.6089L18.9733 15.8844C18.6578 15.6378 18.2867 15.4844 17.8911 15.4356V15.0467H18.08C18.2333 15.0467 18.3578 14.9222 18.3578 14.7689C18.3578 14.6156 18.2356 14.4911 18.0822 14.4911H17.1489C16.9956 14.4911 16.8711 14.6156 16.8711 14.7689C16.8711 14.9222 16.9956 15.0467 17.1489 15.0467H17.3378V15.4356C16.9422 15.4844 16.5711 15.6378 16.2556 15.8844L15.98 15.6089L16.1133 15.4756C16.2222 15.3667 16.2222 15.1911 16.1133 15.0822C16.0044 14.9733 15.8289 14.9733 15.72 15.0822L15.06 15.7422C14.9511 15.8511 14.9511 16.0267 15.06 16.1356C15.1133 16.1889 15.1844 16.2178 15.2556 16.2178C15.3267 16.2178 15.3978 16.1911 15.4511 16.1356L15.5844 16.0022L15.86 16.2778C15.6156 16.5933 15.46 16.9644 15.4111 17.36H15.0222V17.1711C15.0222 17.0178 14.8978 16.8933 14.7444 16.8933C14.5911 16.8933 14.4667 17.0178 14.4667 17.1711V18.1044C14.4667 18.2578 14.5911 18.3822 14.7444 18.3822C14.8978 18.3822 15.0222 18.2578 15.0222 18.1044V17.9133H15.4111C15.46 18.3089 15.6133 18.68 15.86 18.9956L15.5867 19.2689L15.4533 19.1356C15.3444 19.0267 15.1689 19.0267 15.06 19.1356C14.9511 19.2444 14.9511 19.42 15.06 19.5289L15.72 20.1889C15.7733 20.2422 15.8444 20.2711 15.9156 20.2711C15.9867 20.2711 16.0578 20.2444 16.1111 20.1889C16.22 20.08 16.22 19.9044 16.1111 19.7956L15.9778 19.6622L16.2511 19.3889C16.5667 19.6333 16.9378 19.7889 17.3333 19.8378V20.2244H17.1444C16.9911 20.2244 16.8667 20.3489 16.8667 20.5022C16.8667 20.6556 16.9911 20.78 17.1444 20.78H18.0778C18.2311 20.78 18.3556 20.6556 18.3556 20.5022C18.3556 20.3489 18.2356 20.2244 18.0822 20.2244H17.8933V19.8356C18.2889 19.7867 18.66 19.6333 18.9756 19.3867L19.2511 19.6622L19.1178 19.7956C19.0089 19.9044 19.0089 20.08 19.1178 20.1889C19.1711 20.2422 19.2422 20.2711 19.3133 20.2711C19.3844 20.2711 19.4556 20.2444 19.5089 20.1889L20.1689 19.5289C20.2778 19.42 20.2778 19.2444 20.1689 19.1356C20.06 19.0267 19.8844 19.0267 19.7756 19.1356L19.6422 19.2689L19.3689 18.9956C19.6156 18.68 19.7689 18.3089 19.8178 17.9133H20.2044V18.1022C20.2044 18.2556 20.3289 18.38 20.4822 18.38ZM18.7933 18.8111C18.7933 18.8133 18.7933 18.8133 18.7933 18.8111C18.4756 19.1267 18.06 19.3 17.6178 19.3H17.6156H17.6133C17.1711 19.3 16.7556 19.1267 16.44 18.8156C16.44 18.8156 16.44 18.8133 16.4378 18.8133C16.4378 18.8133 16.4356 18.8133 16.4356 18.8111C16.1222 18.4978 15.9511 18.08 15.9511 17.6378V17.6356V17.6333C15.9511 17.1889 16.1244 16.7733 16.4378 16.46C16.7511 16.1467 17.1689 15.9733 17.6133 15.9733C18.0556 15.9733 18.4756 16.1467 18.7911 16.4622C18.7978 16.4689 18.8022 16.4733 18.8089 16.4778C19.1111 16.7889 19.2778 17.1978 19.28 17.6311C19.28 17.6333 19.2778 17.6356 19.2778 17.6378C19.2778 17.64 19.28 17.6422 19.28 17.6444C19.28 18.0844 19.1067 18.5 18.7933 18.8111Z" fill="#999999"/>
</svg>
