<svg width="20" height="21" viewBox="0 0 20 21" fill="none" xmlns="http://www.w3.org/2000/svg">
<path d="M15.8333 3.16675H4.16667C3.062 3.16781 2.00296 3.51934 1.22185 4.14423C0.440735 4.76912 0.00132321 5.61635 0 6.50008L0 14.5001C0.00132321 15.3838 0.440735 16.231 1.22185 16.8559C2.00296 17.4808 3.062 17.8324 4.16667 17.8334H15.8333C16.938 17.8324 17.997 17.4808 18.7782 16.8559C19.5593 16.231 19.9987 15.3838 20 14.5001V6.50008C19.9987 5.61635 19.5593 4.76912 18.7782 4.14423C17.997 3.51934 16.938 3.16781 15.8333 3.16675ZM4.16667 4.50008H15.8333C16.3323 4.50087 16.8196 4.62109 17.2325 4.84528C17.6453 5.06948 17.9649 5.38738 18.15 5.75808L11.7683 10.8641C11.2987 11.2383 10.6628 11.4484 10 11.4484C9.33715 11.4484 8.70131 11.2383 8.23167 10.8641L1.85 5.75808C2.03512 5.38738 2.35468 5.06948 2.76754 4.84528C3.1804 4.62109 3.66768 4.50087 4.16667 4.50008ZM15.8333 16.5001H4.16667C3.50363 16.5001 2.86774 16.2894 2.3989 15.9143C1.93006 15.5392 1.66667 15.0305 1.66667 14.5001V7.50008L7.05333 11.8067C7.83552 12.4309 8.89521 12.7814 10 12.7814C11.1048 12.7814 12.1645 12.4309 12.9467 11.8067L18.3333 7.50008V14.5001C18.3333 15.0305 18.0699 15.5392 17.6011 15.9143C17.1323 16.2894 16.4964 16.5001 15.8333 16.5001Z" fill="#999999"/>
</svg>
