<svg width="20" height="20" viewBox="0 0 20 20" fill="none" xmlns="http://www.w3.org/2000/svg">
<g clip-path="url(#clip0_689_2135)">
<path fill-rule="evenodd" clip-rule="evenodd" d="M7.29753 2.86282C3.07363 4.11872 0.671132 8.60841 1.94693 12.8992C3.22273 17.19 7.68788 19.6377 11.9118 18.3818C14.1038 17.7301 15.8046 16.2089 16.7562 14.2949C12.9903 14.9138 9.25798 12.6124 8.13179 8.82469C7.47781 6.62512 7.8336 4.36667 8.92941 2.55808C8.38674 2.60119 7.84036 2.70141 7.29753 2.86282ZM1.03405 13.1706C-0.388458 8.3864 2.28733 3.35892 7.0261 1.94994C7.97303 1.66839 8.93122 1.55282 9.86941 1.58683C10.0487 1.59334 10.2093 1.70015 10.2845 1.86314C10.3597 2.02611 10.3369 2.21753 10.2255 2.35828C8.89798 4.03525 8.38265 6.3267 9.04465 8.55324C10.1181 12.1635 13.8743 14.2214 17.426 13.1654C17.5985 13.1141 17.7857 13.1642 17.909 13.2952C18.0324 13.4262 18.0713 13.6156 18.0098 13.7846C17.0739 16.3545 14.9899 18.4602 12.1832 19.2947C7.44448 20.7037 2.45656 17.9549 1.03405 13.1706Z" fill="#1A1A1A"/>
<path fill-rule="evenodd" clip-rule="evenodd" d="M15.2345 8.40774C15.4974 8.40774 15.7107 8.62094 15.7107 8.88389V10.7887C15.7107 11.0517 15.4974 11.2648 15.2345 11.2648C14.9715 11.2648 14.7583 11.0517 14.7583 10.7887V8.88389C14.7583 8.62094 14.9715 8.40774 15.2345 8.40774ZM18.0916 3.16964C18.3546 3.16964 18.5678 3.38283 18.5678 3.64583V5.55059C18.5678 5.81359 18.3546 6.02679 18.0916 6.02679C17.8287 6.02679 17.6154 5.81359 17.6154 5.55059V3.64583C17.6154 3.38283 17.8287 3.16964 18.0916 3.16964ZM13.3297 0.3125C13.5927 0.3125 13.8059 0.52569 13.8059 0.78869V2.69345C13.8059 2.95644 13.5927 3.16964 13.3297 3.16964C13.0668 3.16964 12.8535 2.95644 12.8535 2.69345V0.78869C12.8535 0.52569 13.0668 0.3125 13.3297 0.3125Z" fill="#1A1A1A"/>
<path fill-rule="evenodd" clip-rule="evenodd" d="M16.6633 9.83628C16.6633 10.0993 16.45 10.3125 16.1871 10.3125H14.2823C14.0194 10.3125 13.8061 10.0993 13.8061 9.83628C13.8061 9.57333 14.0194 9.36009 14.2823 9.36009H16.1871C16.45 9.36009 16.6633 9.57333 16.6633 9.83628ZM19.5204 4.59823C19.5204 4.86122 19.3072 5.07442 19.0442 5.07442H17.1395C16.8765 5.07442 16.6633 4.86122 16.6633 4.59823C16.6633 4.33523 16.8765 4.12204 17.1395 4.12204H19.0442C19.3072 4.12204 19.5204 4.33523 19.5204 4.59823ZM14.7585 1.74108C14.7585 2.00407 14.5453 2.21727 14.2823 2.21727H12.3776C12.1146 2.21727 11.9014 2.00407 11.9014 1.74108C11.9014 1.47808 12.1146 1.26489 12.3776 1.26489H14.2823C14.5453 1.26489 14.7585 1.47808 14.7585 1.74108Z" fill="#1A1A1A"/>
</g>
<defs>
<clipPath id="clip0_689_2135">
<rect width="20" height="20" fill="white"/>
</clipPath>
</defs>
</svg>
