<svg width="24" height="24" viewBox="0 0 24 24" fill="none" xmlns="http://www.w3.org/2000/svg">
<g id="notifications 2" clip-path="url(#clip0_1075_2739)">
<path id="59 Notifications, Alarm, Notification" d="M17.9939 9.69709H16.7939C16.7939 8.53978 16.2882 7.42987 15.3881 6.61153C14.4879 5.79319 13.267 5.33345 11.9939 5.33345V4.24254C13.5852 4.24254 15.1114 4.81722 16.2366 5.84014C17.3618 6.86307 17.9939 8.25045 17.9939 9.69709ZM22.1939 18.9698C22.1939 19.4038 22.0043 19.82 21.6667 20.1269C21.3292 20.4338 20.8713 20.6062 20.3939 20.6062H16.1459C15.9946 21.5086 15.4925 22.3319 14.7308 22.9268C13.9691 23.5217 12.9981 23.8488 11.9939 23.8488C10.9898 23.8488 10.0188 23.5217 9.25709 22.9268C8.49538 22.3319 7.99333 21.5086 7.84194 20.6062H3.59395C3.11656 20.6062 2.65872 20.4338 2.32115 20.1269C1.98359 19.82 1.79395 19.4038 1.79395 18.9698C1.79395 18.5358 1.98359 18.1196 2.32115 17.8127C2.65872 17.5059 3.11656 17.3335 3.59395 17.3335V9.69709C3.5961 7.76756 4.40167 5.91031 5.84868 4.49871C7.2957 3.08711 9.27689 2.22582 11.3939 2.088V-0.121094H12.5939V2.088C14.711 2.22582 16.6922 3.08711 18.1392 4.49871C19.5862 5.91031 20.3918 7.76756 20.3939 9.69709V17.3335C20.8713 17.3335 21.3292 17.5059 21.6667 17.8127C22.0043 18.1196 22.1939 18.5358 22.1939 18.9698ZM4.79395 17.3335H19.1939V9.69709C19.1939 7.96113 18.4354 6.29626 17.0851 5.06875C15.7349 3.84124 13.9035 3.15163 11.9939 3.15163C10.0844 3.15163 8.25304 3.84124 6.90278 5.06875C5.55251 6.29626 4.79395 7.96113 4.79395 9.69709V17.3335ZM14.9339 20.6062H9.05395C9.19165 21.2227 9.55958 21.777 10.0954 22.1751C10.6312 22.5732 11.3019 22.7907 11.9939 22.7907C12.686 22.7907 13.3567 22.5732 13.8925 22.1751C14.4283 21.777 14.7962 21.2227 14.9339 20.6062ZM20.9939 18.9698C20.9939 18.8252 20.9307 18.6864 20.8182 18.5841C20.7057 18.4818 20.5531 18.4244 20.3939 18.4244H3.59395C3.43482 18.4244 3.2822 18.4818 3.16968 18.5841C3.05716 18.6864 2.99395 18.8252 2.99395 18.9698C2.99395 19.1145 3.05716 19.2532 3.16968 19.3555C3.2822 19.4578 3.43482 19.5153 3.59395 19.5153H20.3939C20.5531 19.5153 20.7057 19.4578 20.8182 19.3555C20.9307 19.2532 20.9939 19.1145 20.9939 18.9698Z" fill="#1A1A1A"/>
</g>
<defs>
<clipPath id="clip0_1075_2739">
<rect width="24" height="24" fill="white"/>
</clipPath>
</defs>
</svg>
