<svg width="32" height="32" viewBox="0 0 32 32" fill="none" xmlns="http://www.w3.org/2000/svg">
<g id="notification">
<path id="secondary" d="M20 24H12C12 25.0609 12.4214 26.0783 13.1716 26.8284C13.9217 27.5786 14.9391 28 16 28C17.0609 28 18.0783 27.5786 18.8284 26.8284C19.5786 26.0783 20 25.0609 20 24Z" stroke="#FF7900" stroke-linecap="round" stroke-linejoin="round"/>
<path id="primary" d="M25.8397 19.1733C26.1021 19.4361 26.3101 19.7479 26.452 20.0911C26.5938 20.4343 26.6667 20.802 26.6663 21.1733C26.6663 21.923 26.3685 22.642 25.8384 23.1721C25.3083 23.7022 24.5894 24 23.8397 24H8.15968C7.41 24 6.69102 23.7022 6.16092 23.1721C5.63082 22.642 5.33301 21.923 5.33301 21.1733C5.33268 20.802 5.40552 20.4343 5.54736 20.0911C5.6892 19.7479 5.89727 19.4361 6.15968 19.1733L7.99968 17.3333V12C7.99968 9.87827 8.84253 7.84344 10.3428 6.34315C11.8431 4.84285 13.8779 4 15.9997 4C18.1214 4 20.1562 4.84285 21.6565 6.34315C23.1568 7.84344 23.9997 9.87827 23.9997 12V17.3333L25.8397 19.1733Z" stroke="#1A1A1A" stroke-linecap="round" stroke-linejoin="round"/>
</g>
</svg>
