<svg width="24" height="24" viewBox="0 0 24 24" fill="none" xmlns="http://www.w3.org/2000/svg">
<path d="M4 13.7C5.1 13.7 6.1 14 7 14.5C7.2 14.6 7.3 14.6 7.5 14.6C7.8 14.6 8.2 14.4 8.4 14.1C8.7 13.7 8.5 13 8 12.8C6.8 12.1 5.4 11.8 4 11.8C3.4 11.8 3 12.2 3 12.8C3 13.4 3.4 13.7 4 13.7ZM4 9.4C6.2 9.4 8.3 10.1 10.1 11.3C10.3 11.4 10.5 11.5 10.7 11.5C11 11.5 11.3 11.4 11.5 11.1C11.8 10.6 11.7 10 11.3 9.7C9.2 8.2 6.6 7.4 4 7.4C3.4 7.4 3 7.8 3 8.4C3 9 3.4 9.4 4 9.4ZM4 16.1C3.4 16.1 3 16.5 3 17.1C3 17.6 3.4 18 3.9 18.1H4.1C4.5 18.1 4.9 17.8 5 17.4C5.2 16.9 4.9 16.3 4.4 16.1H4ZM4 5C7.4 5 10.5 6.1 13.2 8.2C13.4 8.3 13.6 8.4 13.8 8.4C14.1 8.4 14.4 8.3 14.6 8C14.9 7.6 14.9 6.9 14.4 6.6C11.4 4.2 7.8 3 4 3C3.4 3 3 3.4 3 4C3 4.6 3.4 5 4 5ZM20.3 4.3L4.3 20.3C3.9 20.7 3.9 21.3 4.3 21.7C4.5 21.9 4.7 22 5 22C5.3 22 5.5 21.9 5.7 21.7L6.5 20.9C6.6 21 6.8 21 6.9 21C7.5 21 7.9 20.6 7.9 20C7.9 19.9 7.9 19.7 7.8 19.6L9.8 17.6C10.1 18.3 10.3 19.1 10.3 20C10.3 20.6 10.7 21 11.3 21C11.9 21 12.3 20.6 12.3 20C12.3 18.6 12 17.3 11.3 16.1L13 14.4C14 16.1 14.6 18 14.6 20C14.6 20.6 15 21 15.6 21C16.2 21 16.6 20.6 16.6 20C16.6 17.5 15.8 15 14.4 12.9L16.1 11.2C18 13.8 19 16.8 19 20C19 20.6 19.4 21 20 21C20.6 21 21 20.6 21 20C21 16.3 19.8 12.8 17.6 9.8L21.7 5.7C22.1 5.3 22.1 4.7 21.7 4.3C21.3 3.9 20.7 3.9 20.3 4.3Z" fill="#999999"/>
</svg>
