<svg width="24" height="24" viewBox="0 0 24 24" fill="none" xmlns="http://www.w3.org/2000/svg">
<path d="M18.8727 14.5045L15.1922 12.8553L15.182 12.8506C14.991 12.7689 14.7825 12.7361 14.5756 12.7552C14.3687 12.7743 14.1698 12.8447 13.9969 12.96C13.9765 12.9734 13.957 12.9881 13.9383 13.0037L12.0367 14.6248C10.832 14.0397 9.58829 12.8053 9.00313 11.6162L10.6266 9.68578C10.6422 9.66625 10.657 9.64672 10.6711 9.62562C10.7839 9.4532 10.8524 9.25556 10.8704 9.05029C10.8884 8.84502 10.8553 8.63848 10.7742 8.44906V8.43969L9.12032 4.75297C9.01309 4.50552 8.8287 4.29938 8.59468 4.16534C8.36067 4.0313 8.08958 3.97653 7.82188 4.00922C6.76326 4.14852 5.79155 4.66841 5.08824 5.47179C4.38492 6.27517 3.99809 7.3071 4.00001 8.37484C4.00001 14.578 9.04688 19.6248 15.25 19.6248C16.3177 19.6268 17.3497 19.2399 18.1531 18.5366C18.9564 17.8333 19.4763 16.8616 19.6156 15.803C19.6484 15.5354 19.5937 15.2643 19.4598 15.0303C19.3259 14.7963 19.12 14.6119 18.8727 14.5045ZM15.25 18.3748C12.5987 18.3719 10.0569 17.3174 8.18214 15.4427C6.3074 13.568 5.2529 11.0261 5.25001 8.37484C5.24707 7.61194 5.52192 6.87406 6.02324 6.29899C6.52456 5.72392 7.21806 5.35099 7.97423 5.24984C7.97392 5.25296 7.97392 5.2561 7.97423 5.25922L9.61485 8.93109L8.00001 10.8639C7.98362 10.8828 7.96873 10.9029 7.95548 10.9241C7.83791 11.1045 7.76894 11.3122 7.75525 11.5271C7.74157 11.742 7.78362 11.9568 7.87735 12.1506C8.58516 13.5983 10.0438 15.0459 11.507 15.753C11.7023 15.8458 11.9184 15.8864 12.134 15.8708C12.3497 15.8552 12.5576 15.7839 12.7375 15.6639C12.7576 15.6504 12.7769 15.6358 12.7953 15.6202L14.6945 13.9998L18.3664 15.6444C18.3664 15.6444 18.3727 15.6444 18.375 15.6444C18.2751 16.4016 17.9027 17.0965 17.3275 17.5991C16.7524 18.1016 16.0138 18.3774 15.25 18.3748Z" fill="#999999"/>
</svg>
