<svg width="25" height="24" viewBox="0 0 25 24" fill="none" xmlns="http://www.w3.org/2000/svg">
<path d="M12.5 0.5C14.8229 0.5 16.8 2.39817 16.8 4.49895C16.8 6.59973 14.8229 8.49789 12.5 8.49789C10.1771 8.49789 8.2 6.59973 8.2 4.49895C8.2 2.39817 10.1771 0.5 12.5 0.5ZM5 20.0353C5 14.9489 8.63867 10.9975 12.5 10.9975C16.3613 10.9975 20 14.9489 20 20.0353C20 21.0563 19.2343 21.9187 17.7984 22.5513C16.3809 23.1757 14.4549 23.5 12.5 23.5C10.5451 23.5 8.61907 23.1757 7.20157 22.5513C5.76571 21.9187 5 21.0563 5 20.0353Z" stroke="#1A1A1A"/>
</svg>
