<svg width="24" height="25" viewBox="0 0 24 25" fill="none" xmlns="http://www.w3.org/2000/svg">
<g clip-path="url(#clip0_702_2512)">
<path d="M12 1.1582C14.3229 1.1582 16.3 3.05637 16.3 5.15715C16.3 7.25793 14.3229 9.15609 12 9.15609C9.67714 9.15609 7.7 7.25793 7.7 5.15715C7.7 3.05637 9.67714 1.1582 12 1.1582ZM4.5 20.6935C4.5 15.6071 8.13867 11.6557 12 11.6557C15.8613 11.6557 19.5 15.6071 19.5 20.6935C19.5 21.7145 18.7343 22.5769 17.2984 23.2095C15.8809 23.8339 13.9549 24.1582 12 24.1582C10.0451 24.1582 8.11907 23.8339 6.70157 23.2095C5.26571 22.5769 4.5 21.7145 4.5 20.6935Z" stroke="#1A1A1A"/>
</g>
<defs>
<clipPath id="clip0_702_2512">
<rect width="24" height="24" fill="white" transform="translate(0 0.658203)"/>
</clipPath>
</defs>
</svg>
