<svg width="25" height="24" viewBox="0 0 25 24" fill="none" xmlns="http://www.w3.org/2000/svg">
<path d="M12.5 10.9975C13.8412 10.9975 15.1556 11.4743 16.3 12.3098L5.67247 16.3617C6.89911 13.1677 9.63841 10.9975 12.5 10.9975ZM5.60146 17.459L16.8254 13.1797L18.7469 16.0039L5.40132 19.8226L5.60146 17.459ZM5.20834 20.9179L19.4941 16.8303C19.8187 17.8212 20 18.9 20 20.0353C20 21.0563 19.2343 21.9187 17.7984 22.5513C16.3809 23.1757 14.4549 23.5 12.5 23.5C10.5451 23.5 8.61907 23.1757 7.20157 22.5513C6.20089 22.1104 5.5257 21.5579 5.20834 20.9179ZM12.5 0.5C14.8229 0.5 16.8 2.39817 16.8 4.49895C16.8 6.59973 14.8229 8.49789 12.5 8.49789C10.1771 8.49789 8.2 6.59973 8.2 4.49895C8.2 2.39817 10.1771 0.5 12.5 0.5Z" stroke="#1A1A1A"/>
</svg>
