<svg width="20" height="15" viewBox="0 0 20 15" fill="none" xmlns="http://www.w3.org/2000/svg">
<path fill-rule="evenodd" clip-rule="evenodd" d="M19.1214 7.28774C17.6189 3.40131 13.9477 0.781824 9.78391 0.625244C5.6201 0.781824 1.94889 3.40131 0.446414 7.28774C0.396768 7.42506 0.396768 7.57543 0.446414 7.71274C1.94889 11.5992 5.6201 14.2187 9.78391 14.3752C13.9477 14.2187 17.6189 11.5992 19.1214 7.71274C19.1711 7.57543 19.1711 7.42506 19.1214 7.28774ZM6.03377 7.50024C6.03377 5.42918 7.7127 3.75024 9.78377 3.75024C11.8548 3.75024 13.5338 5.42918 13.5338 7.50024C13.5338 9.57131 11.8548 11.2502 9.78377 11.2502C7.7127 11.2502 6.03377 9.57131 6.03377 7.50024ZM7.28377 7.50024C7.28377 8.88096 8.40306 10.0002 9.78377 10.0002C10.4468 10.0002 11.0827 9.73685 11.5515 9.26801C12.0204 8.79917 12.2838 8.16329 12.2838 7.50024C12.2838 6.11953 11.1645 5.00024 9.78377 5.00024C8.40306 5.00024 7.28377 6.11953 7.28377 7.50024ZM1.70266 7.50024C2.97141 10.669 6.47141 13.1252 9.78391 13.1252C13.0964 13.1252 16.5964 10.669 17.8652 7.50024C16.5964 4.33149 13.0964 1.87524 9.78391 1.87524C6.47141 1.87524 2.97141 4.33149 1.70266 7.50024Z" fill="#999999"/>
</svg>
