<svg width="20" height="19" viewBox="0 0 20 19" fill="none" xmlns="http://www.w3.org/2000/svg">
<path d="M19.1781 3.46645L10.1781 0.466448C10.0625 0.427851 9.93749 0.427851 9.82187 0.466448L0.821875 3.46645C0.709953 3.50381 0.612614 3.57543 0.543634 3.67116C0.474653 3.76689 0.437524 3.88189 0.4375 3.99989V11.4999C0.4375 11.6491 0.496763 11.7921 0.602252 11.8976C0.707742 12.0031 0.850816 12.0624 1 12.0624C1.14918 12.0624 1.29226 12.0031 1.39775 11.8976C1.50324 11.7921 1.5625 11.6491 1.5625 11.4999V4.77989L5.18875 5.98926C4.73146 6.66506 4.42159 7.42958 4.27929 8.23305C4.137 9.03653 4.16547 9.86096 4.36285 10.6527C4.56023 11.4445 4.92211 12.1858 5.42493 12.8284C5.92774 13.4711 6.56024 14.0006 7.28125 14.3827C5.47656 14.9949 3.90625 16.2193 2.78125 17.9452C2.71658 18.0691 2.70033 18.2125 2.73565 18.3477C2.77097 18.4829 2.85534 18.6001 2.97233 18.6765C3.08932 18.7529 3.23055 18.783 3.36853 18.761C3.50651 18.739 3.63135 18.6664 3.71875 18.5574C5.16906 16.3364 7.4575 15.0624 10 15.0624C12.5425 15.0624 14.8309 16.3364 16.2812 18.5574C16.3681 18.6687 16.4937 18.7433 16.633 18.7663C16.7723 18.7894 16.9152 18.7591 17.0333 18.6817C17.1513 18.6042 17.236 18.4852 17.2703 18.3482C17.3047 18.2113 17.2863 18.0664 17.2188 17.9424C16.0938 16.2193 14.5253 14.9949 12.7188 14.3799C13.4394 13.9974 14.0714 13.4675 14.5738 12.8247C15.0761 12.1819 15.4375 11.4405 15.6344 10.6488C15.8314 9.85705 15.8594 9.03275 15.7168 8.22948C15.5742 7.42621 15.264 6.66196 14.8066 5.98645L19.1781 4.53332C19.29 4.4959 19.3872 4.42426 19.4562 4.32853C19.5251 4.23281 19.5622 4.11784 19.5622 3.99989C19.5622 3.88193 19.5251 3.76696 19.4562 3.67124C19.3872 3.57551 19.29 3.50387 19.1781 3.46645ZM14.6875 9.24989C14.6878 9.99682 14.5097 10.733 14.1678 11.3971C13.826 12.0613 13.3304 12.6341 12.7224 13.0679C12.1143 13.5017 11.4114 13.7839 10.6722 13.891C9.93297 13.9981 9.17886 13.927 8.47268 13.6837C7.76651 13.4403 7.12872 13.0317 6.61245 12.4919C6.09618 11.9521 5.71638 11.2967 5.50469 10.5804C5.293 9.86413 5.25556 9.1076 5.39548 8.37389C5.53539 7.64018 5.84862 6.95052 6.30906 6.36239L9.82187 7.53332C9.93749 7.57192 10.0625 7.57192 10.1781 7.53332L13.6909 6.36239C14.3376 7.18584 14.6886 8.20285 14.6875 9.24989ZM10 6.40739L2.78125 3.99989L10 1.59239L17.2188 3.99989L10 6.40739Z" fill="#999999"/>
</svg>
