<svg width="24" height="24" viewBox="0 0 24 24" fill="none" xmlns="http://www.w3.org/2000/svg">
<path d="M11.5 20C9.81886 20 8.17548 19.5015 6.77766 18.5675C5.37984 17.6335 4.29037 16.306 3.64703 14.7528C3.00368 13.1996 2.83535 11.4906 3.16333 9.84174C3.4913 8.1929 4.30085 6.67834 5.4896 5.4896C6.67834 4.30085 8.1929 3.4913 9.84174 3.16333C11.4906 2.83535 13.1996 3.00368 14.7528 3.64703C16.306 4.29037 17.6335 5.37984 18.5675 6.77766C19.5015 8.17548 20 9.81886 20 11.5C20 13.7543 19.1045 15.9164 17.5104 17.5104C15.9164 19.1045 13.7543 20 11.5 20ZM11.5 4.41667C10.0991 4.41667 8.72956 4.8321 7.56471 5.61043C6.39987 6.38875 5.49198 7.49502 4.95586 8.78933C4.41974 10.0836 4.27946 11.5079 4.55277 12.8819C4.82609 14.2559 5.50071 15.5181 6.49133 16.5087C7.48195 17.4993 8.74408 18.1739 10.1181 18.4472C11.4921 18.7205 12.9164 18.5803 14.2107 18.0442C15.505 17.508 16.6113 16.6001 17.3896 15.4353C18.1679 14.2704 18.5833 12.901 18.5833 11.5C18.5833 9.62139 17.8371 7.81971 16.5087 6.49133C15.1803 5.16295 13.3786 4.41667 11.5 4.41667Z" fill="#999999"/>
<path d="M15.043 12.208H11.5013C11.3134 12.208 11.1333 12.1334 11.0004 12.0005C10.8676 11.8677 10.793 11.6875 10.793 11.4997V6.54134C10.793 6.35348 10.8676 6.17331 11.0004 6.04047C11.1333 5.90764 11.3134 5.83301 11.5013 5.83301C11.6892 5.83301 11.8693 5.90764 12.0022 6.04047C12.135 6.17331 12.2096 6.35348 12.2096 6.54134V10.7913H15.043C15.2308 10.7913 15.411 10.866 15.5438 10.9988C15.6767 11.1316 15.7513 11.3118 15.7513 11.4997C15.7513 11.6875 15.6767 11.8677 15.5438 12.0005C15.411 12.1334 15.2308 12.208 15.043 12.208Z" fill="#999999"/>
</svg>
