<svg width="18" height="16" viewBox="0 0 18 16" fill="none" xmlns="http://www.w3.org/2000/svg">
<path d="M1.37979 5.71999H16.7698C17.1298 5.71999 17.3998 5.44999 17.3998 5.08999C17.3998 4.81999 17.2498 4.60999 17.0098 4.51999L9.35979 0.61999C9.17979 0.52999 8.96979 0.52999 8.78979 0.61999L1.10979 4.51999C0.83979 4.63999 0.71979 4.93999 0.77979 5.23999C0.86979 5.50999 1.07979 5.71999 1.37979 5.71999ZM9.08979 1.90999L14.1298 4.45999H4.04979L9.08979 1.90999ZM16.7698 14.18H15.5398V7.15999C15.5398 6.79999 15.2698 6.52999 14.9098 6.52999C14.5498 6.52999 14.2798 6.79999 14.2798 7.15999V14.18H11.6398V7.15999C11.6398 6.79999 11.3698 6.52999 11.0098 6.52999C10.6798 6.52999 10.3798 6.79999 10.3798 7.15999V14.18H7.73979V7.15999C7.73979 6.79999 7.46979 6.52999 7.10979 6.52999C6.74979 6.52999 6.47979 6.79999 6.47979 7.15999V14.18H3.86979V7.15999C3.86979 6.79999 3.59979 6.52999 3.23979 6.52999C2.87979 6.52999 2.63979 6.79999 2.63979 7.15999V14.18H1.40979C1.04979 14.18 0.77979 14.45 0.77979 14.81C0.77979 15.17 1.04979 15.44 1.40979 15.44H16.7998C17.1598 15.44 17.4298 15.17 17.4298 14.81C17.4298 14.45 17.1298 14.18 16.7698 14.18Z" fill="#999999"/>
</svg>
