<svg width="20" height="21" viewBox="0 0 20 21" fill="none" xmlns="http://www.w3.org/2000/svg">
<g clip-path="url(#clip0_1_3675)">
<path d="M10.0031 0.50022C7.25039 0.50022 5.00157 2.74904 5.00157 5.5018C5.00574 6.82615 5.53433 8.09492 6.47167 9.0305C7.40902 9.96608 8.67879 10.4923 10.0031 10.4939C12.7559 10.4939 14.9953 8.2514 14.9953 5.49865C14.9936 4.17429 14.4674 2.90451 13.5319 1.96717C12.5963 1.02982 11.3275 0.501234 10.0031 0.49707V0.50022ZM10.0031 2.16636C11.8551 2.16636 13.3291 3.64983 13.3291 5.5018C13.3312 5.93901 13.2466 6.37229 13.0802 6.77659C12.9137 7.18088 12.6687 7.54816 12.3594 7.85717C12.0501 8.16618 11.6826 8.41079 11.2782 8.57686C10.8737 8.74292 10.4404 8.82714 10.0031 8.82463C9.56523 8.82713 9.13116 8.74287 8.72597 8.57673C8.32079 8.41058 7.95252 8.16584 7.64242 7.85662C7.33232 7.5474 7.08654 7.17983 6.91924 6.77511C6.75195 6.3704 6.66646 5.93657 6.66772 5.49865C6.66772 3.64668 8.15118 2.16006 10.0031 2.16006V2.16636ZM10 12.1632C7.28504 12.1632 4.82835 13.0483 3.01732 14.412C1.20315 15.7853 0 17.6593 0 19.6656C0 19.7752 0.0215887 19.8837 0.0635336 19.985C0.105478 20.0862 0.166958 20.1783 0.244462 20.2558C0.321966 20.3333 0.413977 20.3947 0.515241 20.4367C0.616504 20.4786 0.725038 20.5002 0.834646 20.5002H19.1654C19.275 20.5002 19.3835 20.4786 19.4848 20.4367C19.586 20.3947 19.678 20.3333 19.7555 20.2558C19.833 20.1783 19.8945 20.0862 19.9365 19.985C19.9784 19.8837 20 19.7752 20 19.6656C20 17.6561 18.7969 15.7821 16.9827 14.4152C15.1717 13.0514 12.715 12.1632 10 12.1632ZM10 13.8294C12.3496 13.8294 14.4724 14.6105 15.9811 15.7443C17.178 16.6483 17.8142 17.7475 18.0819 18.8309H1.92126C2.18898 17.7475 2.8252 16.6483 4.02205 15.7443C5.53071 14.6105 7.65354 13.8294 10.0031 13.8294H10Z" fill="#999999"/>
</g>
<defs>
<clipPath id="clip0_1_3675">
<rect width="20" height="20" fill="white" transform="translate(0 0.500244)"/>
</clipPath>
</defs>
</svg>
